Commissioner-ExtraBoldItalic.ufo
<glyph name="numbersign" format="2">
  <advance width="1412.157894736842"/>
  <unicode hex="0023"/>
  <outline>
    <contour>
      <point x="-31.157894736842103" y="239.21052631578948" type="line"/>
      <point x="112.57894736842107" y="239.21052631578948"/>
      <point x="248.6842105263158" y="239.21052631578948"/>
      <point x="367.1578947368421" y="239.21052631578948" type="curve"/>
      <point x="841.0526315789473" y="239.21052631578948" type="line"/>
      <point x="959.5263157894736" y="239.21052631578948"/>
      <point x="1095.6315789473683" y="239.21052631578948"/>
      <point x="1239.3684210526314" y="239.21052631578948" type="curve"/>
      <point x="1297.0526315789473" y="510.57894736842104" type="line"/>
      <point x="1153.3157894736842" y="510.57894736842104"/>
      <point x="1017.2105263157895" y="510.57894736842104"/>
      <point x="898.7368421052631" y="510.57894736842104" type="curve"/>
      <point x="424.8421052631579" y="510.57894736842104" type="line"/>
      <point x="306.3684210526316" y="510.57894736842104"/>
      <point x="170.26315789473685" y="510.57894736842104"/>
      <point x="26.526315789473685" y="510.57894736842104" type="curve"/>
    </contour>
    <contour>
      <point x="87.10526315789474" y="0.0" type="curve"/>
      <point x="373.36842105263156" y="0.0" type="line"/>
      <point x="426.8421052631579" y="138.3684210526316"/>
      <point x="474.84210526315786" y="265.05263157894734"/>
      <point x="539.9473684210527" y="434.3157894736842" type="curve"/>
      <point x="717.6315789473684" y="900.1052631578947" type="line"/>
      <point x="787.1052631578947" y="1083.0"/>
      <point x="828.9473684210526" y="1192.842105263158"/>
      <point x="885.3157894736842" y="1338.6315789473683" type="curve"/>
      <point x="599.0526315789474" y="1338.6315789473683" type="line"/>
      <point x="541.0526315789474" y="1186.3157894736842"/>
      <point x="498.84210526315786" y="1077.3684210526314"/>
      <point x="431.3684210526316" y="900.1052631578948" type="curve"/>
      <point x="253.6842105263158" y="434.3157894736842" type="line"/>
      <point x="188.57894736842104" y="265.42105263157896"/>
      <point x="137.3157894736842" y="130.21052631578948"/>
    </contour>
    <contour>
      <point x="186.0" y="822.0526315789474" type="line"/>
      <point x="329.7368421052631" y="822.0526315789474"/>
      <point x="465.8421052631579" y="822.0526315789474"/>
      <point x="584.3157894736843" y="822.0526315789474" type="curve"/>
      <point x="1058.2105263157894" y="822.0526315789474" type="line"/>
      <point x="1176.6842105263156" y="822.0526315789474"/>
      <point x="1312.7894736842104" y="822.0526315789474"/>
      <point x="1456.5263157894735" y="822.0526315789474" type="curve"/>
      <point x="1514.2105263157894" y="1093.421052631579" type="line"/>
      <point x="1370.4736842105262" y="1093.421052631579"/>
      <point x="1234.3684210526314" y="1093.421052631579"/>
      <point x="1115.8947368421052" y="1093.421052631579" type="curve"/>
      <point x="642.0" y="1093.421052631579" type="line"/>
      <point x="523.5263157894736" y="1093.421052631579"/>
      <point x="387.42105263157896" y="1093.421052631579"/>
      <point x="243.68421052631578" y="1093.421052631579" type="curve"/>
    </contour>
    <contour>
      <point x="596.0526315789473" y="0.0" type="curve"/>
      <point x="882.3157894736843" y="0.0" type="line"/>
      <point x="935.7894736842105" y="138.3684210526316"/>
      <point x="983.7894736842106" y="265.05263157894734"/>
      <point x="1048.8947368421052" y="434.3157894736842" type="curve"/>
      <point x="1226.578947368421" y="900.1052631578947" type="line"/>
      <point x="1296.0526315789475" y="1083.0"/>
      <point x="1337.8947368421052" y="1192.842105263158"/>
      <point x="1394.2631578947369" y="1338.6315789473683" type="curve"/>
      <point x="1108.0" y="1338.6315789473683" type="line"/>
      <point x="1050.0" y="1186.3157894736842"/>
      <point x="1007.7894736842105" y="1077.3684210526314"/>
      <point x="940.3157894736843" y="900.1052631578948" type="curve"/>
      <point x="762.6315789473684" y="434.3157894736842" type="line"/>
      <point x="697.5263157894736" y="265.42105263157896"/>
      <point x="646.2631578947369" y="130.21052631578948"/>
    </contour>
  </outline>
</glyph>
<glyph name="dollar" format="2">
  <advance width="1162.7368421052631"/>
  <unicode hex="0024"/>
  <outline>
    <contour>
      <point x="521.7894736842105" y="-27.789473684210527" type="curve" smooth="yes"/>
      <point x="871.2105263157895" y="-27.789473684210527"/>
      <point x="1027.8947368421052" y="81.5263157894737"/>
      <point x="1084.578947368421" y="348.7894736842105" type="curve" smooth="yes"/>
      <point x="1130.3684210526314" y="564.8421052631578"/>
      <point x="1046.2105263157894" y="683.9473684210526"/>
      <point x="763.7894736842105" y="800.8947368421053" type="curve" smooth="yes"/>
      <point x="618.8947368421053" y="861.0526315789473"/>
      <point x="565.1578947368421" y="915.8421052631578"/>
      <point x="579.9473684210526" y="987.578947368421" type="curve" smooth="yes"/>
      <point x="595.4736842105262" y="1060.4736842105265"/>
      <point x="664.8947368421053" y="1084.8947368421052"/>
      <point x="747.6842105263157" y="1084.8947368421052" type="curve"/>
      <point x="828.3157894736842" y="1084.8947368421052"/>
      <point x="998.9999999999999" y="1044.157894736842"/>
      <point x="1108.9473684210527" y="960.3684210526317" type="curve"/>
      <point x="1206.7368421052631" y="1273.2631578947367" type="line"/>
      <point x="1098.6842105263158" y="1341.578947368421"/>
      <point x="884.6315789473684" y="1398.5263157894738"/>
      <point x="695.4736842105264" y="1398.5263157894738" type="curve" smooth="yes"/>
      <point x="380.3684210526316" y="1398.5263157894738"/>
      <point x="225.10526315789474" y="1280.7368421052631"/>
      <point x="174.05263157894737" y="1033.842105263158" type="curve" smooth="yes"/>
      <point x="121.89473684210526" y="782.5263157894736"/>
      <point x="245.68421052631578" y="664.578947368421"/>
      <point x="466.7368421052631" y="574.3157894736842" type="curve" smooth="yes"/>
      <point x="611.8947368421052" y="515.1052631578947"/>
      <point x="693.4736842105262" y="461.36842105263156"/>
      <point x="678.6842105263157" y="386.89473684210526" type="curve" smooth="yes"/>
      <point x="661.6842105263157" y="307.00000000000006"/>
      <point x="608.2105263157895" y="279.3157894736842"/>
      <point x="505.47368421052636" y="279.3157894736842" type="curve"/>
      <point x="362.42105263157896" y="279.3157894736842"/>
      <point x="212.68421052631578" y="334.42105263157896"/>
      <point x="93.63157894736842" y="417.31578947368416" type="curve"/>
      <point x="-0.5263157894736796" y="91.36842105263158" type="line"/>
      <point x="94.1578947368421" y="27.368421052631582"/>
      <point x="317.57894736842104" y="-27.789473684210527"/>
    </contour>
    <contour>
      <point x="296.2105263157895" y="-274.0" type="curve"/>
      <point x="568.3157894736842" y="-274.0" type="line"/>
      <point x="600.1052631578947" y="-123.05263157894737"/>
      <point x="629.8947368421052" y="17.0"/>
      <point x="659.6842105263157" y="155.05263157894737" type="curve"/>
      <point x="387.57894736842104" y="155.05263157894737" type="line"/>
      <point x="357.7894736842105" y="17.0"/>
      <point x="328.0" y="-123.05263157894737"/>
    </contour>
    <contour>
      <point x="617.7368421052631" y="1234.157894736842" type="curve"/>
      <point x="889.8421052631578" y="1234.157894736842" type="line"/>
      <point x="914.3684210526316" y="1352.421052631579"/>
      <point x="940.5263157894736" y="1475.578947368421"/>
      <point x="968.3157894736842" y="1606.0" type="curve"/>
      <point x="696.2105263157895" y="1606.0" type="line"/>
      <point x="668.421052631579" y="1475.578947368421"/>
      <point x="642.2631578947369" y="1352.421052631579"/>
    </contour>
  </outline>
</glyph>
<glyph name="ampersand" format="2">
  <advance width="1562.0582524271845"/>
  <unicode hex="0026"/>
  <outline>
    <contour>
      <point x="1016.7766990291263" y="0.0" type="curve"/>
      <point x="1447.2233009708739" y="0.0" type="line"/>
      <point x="1335.3009708737866" y="157.126213592233"/>
      <point x="1227.378640776699" y="306.9320388349514"/>
      <point x="1118.135922330097" y="459.378640776699" type="curve"/>
      <point x="804.504854368932" y="896.1747572815534" type="line" smooth="yes"/>
      <point x="742.3106796116504" y="981.0485436893204"/>
      <point x="727.5533980582524" y="1051.883495145631"/>
      <point x="744.2718446601941" y="1125.4757281553398" type="curve" smooth="yes"/>
      <point x="759.6699029126213" y="1189.7864077669904"/>
      <point x="805.9805825242719" y="1223.8640776699028"/>
      <point x="864.2135922330098" y="1223.8640776699028" type="curve"/>
      <point x="927.7669902912622" y="1223.8640776699028"/>
      <point x="974.7961165048544" y="1163.7864077669904"/>
      <point x="961.3980582524272" y="1094.116504854369" type="curve" smooth="yes"/>
      <point x="944.0000000000001" y="1009.6893203883495"/>
      <point x="882.8932038834952" y="960.9708737864078"/>
      <point x="773.1067961165048" y="912.8543689320389" type="curve"/>
      <point x="892.3883495145632" y="741.2038834951456" type="line"/>
      <point x="1034.621359223301" y="794.6407766990292"/>
      <point x="1217.9029126213595" y="877.3203883495146"/>
      <point x="1259.9029126213593" y="1076.0388349514565" type="curve" smooth="yes"/>
      <point x="1305.864077669903" y="1291.9223300970875"/>
      <point x="1118.7378640776699" y="1456.6407766990292"/>
      <point x="847.0485436893202" y="1456.6407766990292" type="curve" smooth="yes"/>
      <point x="631.9223300970874" y="1456.6407766990292"/>
      <point x="440.0776699029126" y="1378.5242718446602"/>
      <point x="393.47572815533977" y="1154.0776699029127" type="curve" smooth="yes"/>
      <point x="362.79611650485435" y="1006.6407766990291"/>
      <point x="408.9126213592233" y="852.0776699029126"/>
      <point x="489.7087378640777" y="739.3203883495146" type="curve" smooth="yes"/>
      <point x="819.9805825242718" y="272.0" type="line"/>
      <point x="886.0194174757281" y="182.0"/>
      <point x="953.4174757281554" y="88.64077669902912"/>
    </contour>
    <contour>
      <point x="443.6310679611651" y="-25.96116504854369" type="curve" smooth="yes"/>
      <point x="619.6699029126214" y="-25.96116504854369"/>
      <point x="755.5922330097087" y="37.475728155339816"/>
      <point x="879.747572815534" y="155.70873786407768" type="curve"/>
      <point x="912.3883495145631" y="155.70873786407768" type="line"/>
      <point x="899.7087378640776" y="203.63106796116503" type="line"/>
      <point x="766.6990291262136" y="377.92233009708735" type="line"/>
      <point x="700.2330097087379" y="300.621359223301"/>
      <point x="628.6796116504854" y="263.1456310679611"/>
      <point x="547.5728155339806" y="263.1456310679611" type="curve"/>
      <point x="431.10679611650477" y="263.1456310679611"/>
      <point x="384.87378640776694" y="356.6990291262136"/>
      <point x="406.2718446601941" y="442.4854368932039" type="curve" smooth="yes"/>
      <point x="423.70873786407765" y="522.3495145631068"/>
      <point x="479.4951456310679" y="581.8252427184466"/>
      <point x="580.6796116504855" y="632.5825242718447" type="curve"/>
      <point x="460.34951456310677" y="834.0388349514564" type="line"/>
      <point x="267.631067961165" y="765.3980582524273"/>
      <point x="90.27184466019418" y="652.7184466019417"/>
      <point x="43.59223300970874" y="431.28155339805824" type="curve" smooth="yes"/>
      <point x="-6.368932038834946" y="196.07766990291262"/>
      <point x="124.38834951456309" y="-25.96116504854369"/>
    </contour>
    <contour>
      <point x="1163.3009708737864" y="323.55339805825247" type="line"/>
      <point x="1293.2233009708737" y="440.2718446601942"/>
      <point x="1419.1067961165047" y="555.6310679611652"/>
      <point x="1548.3495145631066" y="672.3495145631067" type="curve"/>
      <point x="1289.8058252427184" y="869.0097087378641" type="line"/>
      <point x="1192.4466019417478" y="756.2912621359225"/>
      <point x="1097.7669902912623" y="643.6116504854369"/>
      <point x="1001.0485436893204" y="530.2135922330098" type="curve"/>
    </contour>
  </outline>
</glyph>
<glyph name="quotesingle" format="2">
  <advance width="478.57894736842104"/>
  <unicode hex="0027"/>
  <outline>
    <contour>
      <point x="142.42105263157896" y="757.421052631579" type="curve"/>
      <point x="413.42105263157896" y="759.421052631579" type="line"/>
      <point x="481.1578947368421" y="1005.7894736842105"/>
      <point x="549.1052631578948" y="1245.6315789473683"/>
      <point x="619.0526315789473" y="1489.6315789473683" type="curve"/>
      <point x="257.2631578947368" y="1481.1052631578948" type="line"/>
      <point x="219.8421052631579" y="1243.6315789473683"/>
      <point x="184.05263157894737" y="1000.8947368421052"/>
    </contour>
  </outline>
</glyph>
<glyph name="parenleft" format="2">
  <advance width="853.6315789473684"/>
  <unicode hex="0028"/>
  <outline>
    <contour>
      <point x="441.9473684210526" y="-277.8421052631579" type="curve"/>
      <point x="672.8947368421052" y="-172.78947368421052" type="line"/>
      <point x="519.5263157894736" y="9.789473684210526"/>
      <point x="404.36842105263156" y="263.8421052631579"/>
      <point x="489.10526315789474" y="662.421052631579" type="curve" smooth="yes"/>
      <point x="573.8421052631579" y="1063.0"/>
      <point x="801.7368421052631" y="1311.5263157894738"/>
      <point x="1022.2105263157895" y="1460.6315789473683" type="curve"/>
      <point x="782.0" y="1570.578947368421" type="line"/>
      <point x="454.6842105263158" y="1415.421052631579"/>
      <point x="209.63157894736844" y="1138.2631578947369"/>
      <point x="118.36842105263159" y="705.9473684210526" type="curve" smooth="yes"/>
      <point x="27.105263157894743" y="272.36842105263156"/>
      <point x="184.10526315789474" y="-81.57894736842104"/>
    </contour>
  </outline>
</glyph>
<glyph name="asterisk" format="2">
  <advance width="1005.7368421052631"/>
  <unicode hex="002A"/>
  <outline>
    <contour>
      <point x="878.8947368421053" y="629.8421052631578" type="curve"/>
      <point x="1035.4736842105265" y="803.1052631578947" type="line"/>
      <point x="911.1578947368421" y="896.9473684210526"/>
      <point x="784.4736842105262" y="987.5263157894738"/>
      <point x="660.1578947368422" y="1079.7368421052631" type="curve"/>
      <point x="555.4210526315788" y="1195.8947368421052"/>
      <point x="454.6842105263158" y="1313.3157894736842"/>
      <point x="350.3157894736842" y="1429.1052631578946" type="curve"/>
      <point x="193.73684210526315" y="1255.842105263158" type="line"/>
      <point x="318.05263157894734" y="1163.6315789473686"/>
      <point x="444.7368421052632" y="1071.421052631579"/>
      <point x="569.0526315789474" y="978.8421052631579" type="curve"/>
      <point x="673.7894736842105" y="863.0526315789473"/>
      <point x="774.5263157894738" y="745.6315789473684"/>
    </contour>
    <contour>
      <point x="210.94736842105263" y="772.0526315789473" type="line"/>
      <point x="352.57894736842104" y="835.8421052631579"/>
      <point x="493.8421052631579" y="901.2631578947368"/>
      <point x="635.8421052631579" y="965.0526315789473" type="curve"/>
      <point x="787.2631578947368" y="998.7368421052632"/>
      <point x="939.421052631579" y="1030.421052631579"/>
      <point x="1090.8421052631581" y="1065.3684210526314" type="curve"/>
      <point x="1018.2631578947369" y="1286.8947368421052" type="line"/>
      <point x="876.6315789473684" y="1223.1052631578948"/>
      <point x="735.3684210526316" y="1157.6842105263158"/>
      <point x="593.7368421052632" y="1095.8947368421052" type="curve"/>
      <point x="441.9473684210526" y="1060.2105263157896"/>
      <point x="288.52631578947364" y="1028.8947368421052"/>
      <point x="138.3684210526316" y="995.2105263157895" type="curve"/>
    </contour>
    <contour>
      <point x="402.3157894736842" y="600.3684210526316" type="curve"/>
      <point x="632.3684210526316" y="550.8421052631579" type="line"/>
      <point x="649.3157894736843" y="705.0"/>
      <point x="665.8947368421053" y="861.1578947368421"/>
      <point x="682.4736842105262" y="1016.0526315789474" type="curve"/>
      <point x="731.1578947368421" y="1163.3157894736844"/>
      <point x="778.2105263157895" y="1312.578947368421"/>
      <point x="826.8947368421052" y="1460.2105263157894" type="curve"/>
      <point x="596.8421052631579" y="1508.1052631578948" type="line"/>
      <point x="579.8947368421052" y="1353.9473684210527"/>
      <point x="563.3157894736842" y="1199.421052631579"/>
      <point x="546.7368421052631" y="1044.0" type="curve"/>
      <point x="498.0526315789474" y="895.6315789473684"/>
      <point x="451.0" y="748.0"/>
    </contour>
  </outline>
</glyph>
<glyph name="plus" format="2">
  <advance width="1208.9473684210527"/>
  <unicode hex="002B"/>
  <outline>
    <contour>
      <point x="350.8947368421053" y="95.73684210526315" type="curve"/>
      <point x="685.3684210526316" y="95.73684210526315" type="line"/>
      <point x="715.8947368421052" y="239.10526315789474"/>
      <point x="744.7894736842105" y="375.57894736842104"/>
      <point x="769.6842105263157" y="492.42105263157896" type="curve"/>
      <point x="819.8947368421052" y="728.3684210526316" type="line"/>
      <point x="846.4210526315788" y="851.7368421052631"/>
      <point x="875.3157894736842" y="986.578947368421"/>
      <point x="905.8421052631578" y="1129.9473684210527" type="curve"/>
      <point x="571.3684210526316" y="1129.9473684210527" type="line"/>
      <point x="540.8421052631579" y="986.578947368421"/>
      <point x="511.94736842105266" y="850.1052631578947"/>
      <point x="485.42105263157896" y="726.7368421052631" type="curve"/>
      <point x="435.2105263157895" y="492.42105263157896" type="line"/>
      <point x="410.3157894736842" y="375.57894736842104"/>
      <point x="381.42105263157896" y="239.10526315789474"/>
    </contour>
    <contour>
      <point x="80.57894736842105" y="452.3157894736842" type="line"/>
      <point x="224.31578947368422" y="452.3157894736842"/>
      <point x="360.42105263157896" y="452.3157894736842"/>
      <point x="478.89473684210526" y="452.3157894736842" type="curve"/>
      <point x="709.1052631578947" y="452.3157894736842" type="line"/>
      <point x="827.578947368421" y="452.3157894736842"/>
      <point x="963.6842105263157" y="452.3157894736842"/>
      <point x="1107.421052631579" y="452.3157894736842" type="curve"/>
      <point x="1176.5263157894735" y="773.3684210526316" type="line"/>
      <point x="1032.7894736842104" y="773.3684210526316"/>
      <point x="896.6842105263158" y="773.3684210526316"/>
      <point x="778.2105263157895" y="773.3684210526316" type="curve"/>
      <point x="548.0" y="773.3684210526316" type="line"/>
      <point x="429.5263157894737" y="773.3684210526316"/>
      <point x="293.42105263157896" y="773.3684210526316"/>
      <point x="149.68421052631578" y="773.3684210526316" type="curve"/>
    </contour>
  </outline>
</glyph>
<glyph name="comma" format="2">
  <advance width="522.6315789473684"/>
  <unicode hex="002C"/>
  <outline>
    <contour>
      <point x="-164.8421052631579" y="-314.0" type="curve"/>
      <point x="21.684210526315795" y="-310.36842105263156" type="line"/>
      <point x="156.68421052631578" y="-232.5263157894737"/>
      <point x="344.2631578947369" y="-69.26315789473685"/>
      <point x="385.6842105263158" y="142.0" type="curve" smooth="yes"/>
      <point x="410.3684210526316" y="263.7894736842105"/>
      <point x="376.7894736842105" y="361.4210526315789"/>
      <point x="247.94736842105263" y="390.63157894736844" type="curve"/>
      <point x="85.21052631578948" y="375.57894736842104" type="line"/>
      <point x="63.789473684210535" y="277.0"/>
      <point x="42.36842105263159" y="176.78947368421055"/>
      <point x="24.21052631578948" y="89.63157894736841" type="curve"/>
      <point x="-8.68421052631578" y="-70.47368421052632"/>
      <point x="-70.26315789473685" y="-199.10526315789474"/>
    </contour>
  </outline>
</glyph>
<glyph name="hyphen" format="2">
  <advance width="856.3157894736842"/>
  <unicode hex="002D"/>
  <outline>
    <contour>
      <point x="77.31578947368422" y="444.1578947368421" type="line"/>
      <point x="198.89473684210526" y="444.1578947368421"/>
      <point x="314.4736842105263" y="444.1578947368421"/>
      <point x="414.4210526315789" y="444.1578947368421" type="curve"/>
      <point x="514.3684210526316" y="444.1578947368421"/>
      <point x="629.9473684210527" y="444.1578947368421"/>
      <point x="751.5263157894738" y="444.1578947368421" type="curve"/>
      <point x="819.0" y="765.2105263157895" type="line"/>
      <point x="697.421052631579" y="765.2105263157895"/>
      <point x="581.8421052631578" y="765.2105263157895"/>
      <point x="481.89473684210526" y="765.2105263157895" type="curve"/>
      <point x="381.94736842105266" y="765.2105263157895"/>
      <point x="266.36842105263156" y="765.2105263157895"/>
      <point x="144.78947368421052" y="765.2105263157895" type="curve"/>
    </contour>
  </outline>
</glyph>
<glyph name="period" format="2">
  <advance width="560.1578947368421"/>
  <unicode hex="002E"/>
  <outline>
    <contour>
      <point x="196.3157894736842" y="-29.421052631578945" type="curve" smooth="yes"/>
      <point x="331.89473684210526" y="-29.421052631578945"/>
      <point x="401.4210526315789" y="37.736842105263165"/>
      <point x="424.47368421052624" y="150.47368421052633" type="curve" smooth="yes"/>
      <point x="449.1578947368421" y="273.0"/>
      <point x="374.36842105263156" y="387.1578947368421"/>
      <point x="229.89473684210526" y="387.1578947368421" type="curve" smooth="yes"/>
      <point x="93.05263157894737" y="387.1578947368421"/>
      <point x="23.526315789473685" y="320.7368421052631"/>
      <point x="0.10526315789473983" y="206.3684210526316" type="curve" smooth="yes"/>
      <point x="-24.94736842105263" y="86.73684210526316"/>
      <point x="44.94736842105264" y="-29.421052631578945"/>
    </contour>
  </outline>
</glyph>
<glyph name="slash" format="2">
  <advance width="918.421052631579"/>
  <unicode hex="002F"/>
  <outline>
    <contour>
      <point x="-89.26315789473684" y="0.0" type="curve"/>
      <point x="286.2105263157895" y="0.0" type="line"/>
      <point x="371.1578947368421" y="148.0"/>
      <point x="441.7368421052631" y="273.63157894736844"/>
      <point x="545.7894736842105" y="456.0" type="curve"/>
      <point x="824.4736842105264" y="948.0" type="line"/>
      <point x="934.5263157894736" y="1142.0"/>
      <point x="1009.1052631578948" y="1272.0"/>
      <point x="1096.4210526315792" y="1426.0" type="curve"/>
      <point x="720.9473684210526" y="1426.0" type="line"/>
      <point x="633.6315789473684" y="1272.0"/>
      <point x="559.0526315789474" y="1142.0"/>
      <point x="452.63157894736844" y="953.6315789473684" type="curve"/>
      <point x="170.31578947368422" y="456.0" type="line"/>
      <point x="66.26315789473685" y="273.63157894736844"/>
      <point x="-4.315789473684216" y="148.0"/>
    </contour>
  </outline>
</glyph>
<glyph name="zero" format="2">
  <advance width="1343.1052631578948"/>
  <unicode hex="0030"/>
  <outline>
    <contour>
      <point x="633.5263157894736" y="-27.789473684210527" type="curve" smooth="yes"/>
      <point x="1012.5789473684209" y="-27.789473684210527"/>
      <point x="1209.4736842105262" y="200.89473684210523"/>
      <point x="1299.4736842105262" y="627.421052631579" type="curve" smooth="yes"/>
      <point x="1388.578947368421" y="1056.0"/>
      <point x="1232.421052631579" y="1408.3157894736842"/>
      <point x="791.6315789473684" y="1408.3157894736842" type="curve" smooth="yes"/>
      <point x="400.2105263157895" y="1408.3157894736842"/>
      <point x="209.6315789473684" y="1165.6315789473686"/>
      <point x="124.0" y="750.578947368421" type="curve" smooth="yes"/>
      <point x="40.1578947368421" y="342.6842105263158"/>
      <point x="174.89473684210526" y="-27.789473684210527"/>
    </contour>
    <contour>
      <point x="646.578947368421" y="289.10526315789474" type="curve"/>
      <point x="494.42105263157896" y="289.10526315789474"/>
      <point x="470.7368421052631" y="482.0"/>
      <point x="518.8421052631579" y="714.1052631578948" type="curve" smooth="yes"/>
      <point x="568.3684210526316" y="951.1578947368421"/>
      <point x="642.7894736842105" y="1089.7894736842104"/>
      <point x="783.4736842105262" y="1089.7894736842104" type="curve"/>
      <point x="922.3157894736842" y="1089.7894736842104"/>
      <point x="959.6315789473684" y="901.8421052631579"/>
      <point x="907.8947368421052" y="661.8947368421053" type="curve" smooth="yes"/>
      <point x="858.3684210526316" y="431.36842105263156"/>
      <point x="787.7894736842105" y="289.10526315789474"/>
    </contour>
  </outline>
</glyph>
<glyph name="one" format="2">
  <advance width="933.4736842105264"/>
  <unicode hex="0031"/>
  <outline>
    <contour>
      <point x="188.26315789473685" y="816.3157894736842" type="line"/>
      <point x="362.0526315789474" y="885.6315789473683"/>
      <point x="532.2105263157895" y="956.578947368421"/>
      <point x="704.3684210526317" y="1025.8947368421052" type="curve"/>
      <point x="791.7894736842105" y="1388.3157894736842" type="line"/>
      <point x="581.0" y="1300.3157894736842"/>
      <point x="372.2105263157895" y="1212.6842105263158"/>
      <point x="163.05263157894737" y="1124.6842105263158" type="curve"/>
    </contour>
    <contour>
      <point x="297.57894736842104" y="0.0" type="curve"/>
      <point x="683.8947368421052" y="0.0" type="line"/>
      <point x="714.2631578947368" y="140.21052631578948"/>
      <point x="738.6315789473683" y="262.0526315789474"/>
      <point x="774.6315789473683" y="428.94736842105266" type="curve"/>
      <point x="873.8947368421052" y="897.2631578947369" type="line"/>
      <point x="906.6315789473683" y="1057.4736842105262"/>
      <point x="940.6315789473683" y="1216.2105263157896"/>
      <point x="973.8947368421052" y="1377.7894736842106" type="curve"/>
      <point x="791.7894736842105" y="1388.3157894736842" type="line"/>
      <point x="555.4736842105264" y="1220.157894736842" type="line"/>
      <point x="526.7368421052631" y="1084.842105263158"/>
      <point x="498.36842105263156" y="952.6315789473683"/>
      <point x="469.63157894736844" y="817.3157894736842" type="curve"/>
      <point x="388.3157894736842" y="428.94736842105266" type="line"/>
      <point x="352.3157894736842" y="262.0526315789474"/>
      <point x="327.94736842105266" y="140.21052631578948"/>
    </contour>
  </outline>
</glyph>
<glyph name="two" format="2">
  <advance width="1154.5263157894738"/>
  <unicode hex="0032"/>
  <outline>
    <contour>
      <point x="-25.73684210526316" y="0.0" type="line"/>
      <point x="969.6842105263157" y="0.0" type="line"/>
      <point x="1038.7894736842104" y="327.57894736842104" type="line"/>
      <point x="912.3157894736843" y="327.57894736842104"/>
      <point x="785.4736842105264" y="327.57894736842104"/>
      <point x="659.0" y="327.57894736842104" type="curve"/>
      <point x="427.1578947368421" y="327.57894736842104" type="line"/>
      <point x="465.6315789473684" y="245.21052631578945" type="line"/>
      <point x="676.578947368421" y="380.8947368421052" type="line"/>
      <point x="974.4736842105264" y="571.3684210526316"/>
      <point x="1112.5263157894738" y="717.8421052631579"/>
      <point x="1156.0" y="923.9473684210526" type="curve" smooth="yes"/>
      <point x="1215.0526315789473" y="1202.157894736842"/>
      <point x="1045.7894736842106" y="1408.3157894736842"/>
      <point x="701.2631578947368" y="1408.3157894736842" type="curve" smooth="yes"/>
      <point x="516.7894736842105" y="1408.3157894736842"/>
      <point x="372.0" y="1361.5263157894735"/>
      <point x="240.78947368421052" y="1308.0526315789473" type="curve"/>
      <point x="196.36842105263156" y="928.9473684210526" type="line"/>
      <point x="337.57894736842104" y="1013.3684210526316"/>
      <point x="485.5789473684211" y="1086.5263157894738"/>
      <point x="603.3684210526316" y="1086.5263157894738" type="curve"/>
      <point x="722.7894736842105" y="1086.5263157894738"/>
      <point x="777.421052631579" y="1016.842105263158"/>
      <point x="755.0" y="915.1052631578947" type="curve" smooth="yes"/>
      <point x="721.6842105263158" y="759.7894736842105"/>
      <point x="538.8421052631579" y="621.8421052631579"/>
      <point x="264.7368421052632" y="425.42105263157896" type="curve"/>
      <point x="184.8421052631579" y="368.63157894736844"/>
      <point x="108.57894736842107" y="313.10526315789474"/>
      <point x="28.684210526315788" y="256.3157894736842" type="curve"/>
    </contour>
  </outline>
</glyph>
<glyph name="three" format="2">
  <advance width="1179.0873786407767"/>
  <unicode hex="0033"/>
  <outline>
    <contour>
      <point x="487.9611650485437" y="-29.28155339805825" type="curve" smooth="yes"/>
      <point x="864.9320388349515" y="-29.28155339805825"/>
      <point x="1026.8932038834953" y="91.39805825242718"/>
      <point x="1077.5339805825242" y="333.24271844660194" type="curve" smooth="yes"/>
      <point x="1122.2135922330096" y="543.3203883495147"/>
      <point x="997.3786407766991" y="662.757281553398"/>
      <point x="875.378640776699" y="700.7184466019417" type="curve"/>
      <point x="880.6990291262136" y="729.3203883495146" type="line"/>
      <point x="1023.4563106796116" y="756.0"/>
      <point x="1142.1747572815534" y="818.1165048543688"/>
      <point x="1178.1747572815534" y="989.4368932038835" type="curve" smooth="yes"/>
      <point x="1225.4951456310678" y="1213.3980582524273"/>
      <point x="1045.611650485437" y="1408.601941747573"/>
      <point x="712.6796116504854" y="1408.601941747573" type="curve" smooth="yes"/>
      <point x="529.4757281553399" y="1408.601941747573"/>
      <point x="385.39805825242723" y="1361.8446601941746"/>
      <point x="254.83495145631068" y="1309.8058252427186" type="curve"/>
      <point x="211.02912621359224" y="943.7281553398059" type="line"/>
      <point x="352.504854368932" y="1021.8446601941747"/>
      <point x="501.14563106796123" y="1086.368932038835"/>
      <point x="619.747572815534" y="1086.368932038835" type="curve"/>
      <point x="734.1359223300971" y="1086.368932038835"/>
      <point x="787.7669902912621" y="1028.8155339805828"/>
      <point x="769.0097087378641" y="938.4271844660195" type="curve" smooth="yes"/>
      <point x="750.9320388349515" y="854.757281553398"/>
      <point x="686.5825242718447" y="822.4854368932039"/>
      <point x="545.2038834951456" y="822.4854368932039" type="curve"/>
      <point x="488.6407766990291" y="822.4854368932039"/>
      <point x="433.3980582524272" y="822.4854368932039"/>
      <point x="376.8349514563107" y="822.4854368932039" type="curve"/>
      <point x="320.3106796116505" y="559.1456310679612" type="line"/>
      <point x="384.8349514563107" y="559.1456310679612"/>
      <point x="439.4368932038835" y="559.1456310679612"/>
      <point x="503.96116504854365" y="559.1456310679612" type="curve"/>
      <point x="644.0194174757281" y="559.1456310679612"/>
      <point x="712.3689320388349" y="502.757281553398"/>
      <point x="693.5728155339806" y="411.5728155339806" type="curve" smooth="yes"/>
      <point x="676.8155339805826" y="332.504854368932"/>
      <point x="618.5436893203884" y="292.2718446601941"/>
      <point x="492.6019417475727" y="292.2718446601941" type="curve"/>
      <point x="357.126213592233" y="292.2718446601941"/>
      <point x="200.5631067961165" y="348.2718446601941"/>
      <point x="77.20388349514562" y="430.9514563106796" type="curve"/>
      <point x="-20.485436893203865" y="90.15533980582525" type="line"/>
      <point x="73.55339805825244" y="27.4368932038835"/>
      <point x="290.6407766990291" y="-29.28155339805825"/>
    </contour>
  </outline>
</glyph>
<glyph name="four" format="2">
  <advance width="1243.0485436893205"/>
  <unicode hex="0034"/>
  <outline>
    <contour>
      <point x="532.5436893203882" y="0.0" type="curve"/>
      <point x="919.1456310679612" y="0.0" type="line"/>
      <point x="948.4660194174758" y="135.9611650485437"/>
      <point x="971.7864077669902" y="250.5242718446602"/>
      <point x="1006.4271844660195" y="413.7669902912621" type="curve"/>
      <point x="1108.4660194174758" y="895.9611650485438" type="line"/>
      <point x="1140.4660194174758" y="1053.9611650485435"/>
      <point x="1174.4660194174758" y="1211.9611650485435"/>
      <point x="1208.4660194174758" y="1377.9611650485435" type="curve"/>
      <point x="811.2621359223301" y="1377.9611650485435" type="line"/>
      <point x="738.5436893203884" y="1297.242718446602"/>
      <point x="666.4660194174758" y="1217.1650485436894"/>
      <point x="595.0679611650485" y="1137.7669902912623" type="curve"/>
      <point x="387.59223300970876" y="906.9708737864078" type="line"/>
      <point x="285.5145631067961" y="792.8932038834952"/>
      <point x="145.39805825242718" y="637.4563106796118"/>
      <point x="47.99999999999999" y="529.3786407766991" type="curve"/>
      <point x="-4.485436893203888" y="274.2718446601942" type="line"/>
      <point x="722.2330097087379" y="274.2718446601942" type="line"/>
      <point x="847.4368932038835" y="274.2718446601942"/>
      <point x="1029.242718446602" y="274.2718446601942"/>
      <point x="1143.1262135922332" y="274.2718446601942" type="curve"/>
      <point x="1210.2135922330096" y="601.7864077669902" type="line"/>
      <point x="1097.009708737864" y="601.7864077669902"/>
      <point x="914.5242718446602" y="601.7864077669902"/>
      <point x="789.3203883495146" y="601.7864077669902" type="curve"/>
      <point x="750.0776699029125" y="575.3786407766991" type="line"/>
      <point x="358.9514563106796" y="575.3786407766991" type="line"/>
      <point x="371.51456310679606" y="528.3106796116504" type="line"/>
      <point x="442.9126213592233" y="607.7087378640775"/>
      <point x="516.3106796116505" y="689.1067961165047"/>
      <point x="587.7087378640776" y="768.5048543689319" type="curve"/>
      <point x="855.9805825242719" y="1064.7766990291263" type="line"/>
      <point x="940.0582524271846" y="1158.8543689320388"/>
      <point x="1020.1359223300971" y="1246.9320388349513"/>
      <point x="1106.2135922330096" y="1343.009708737864" type="curve"/>
      <point x="819.1067961165047" y="1218.4660194174758" type="line"/>
      <point x="790.4271844660194" y="1083.7475728155339"/>
      <point x="761.747572815534" y="951.0291262135922"/>
      <point x="733.0679611650485" y="815.6310679611651" type="curve"/>
      <point x="659.5922330097087" y="464.3300970873786" type="line"/>
      <point x="619.8252427184465" y="413.7669902912621" type="line"/>
      <point x="585.1844660194173" y="250.5242718446602"/>
      <point x="561.8640776699028" y="135.9611650485437"/>
    </contour>
  </outline>
</glyph>
<glyph name="five" format="2">
  <advance width="1176.4854368932038"/>
  <unicode hex="0035"/>
  <outline>
    <contour>
      <point x="477.96116504854376" y="-29.28155339805825" type="curve" smooth="yes"/>
      <point x="854.8932038834952" y="-29.28155339805825"/>
      <point x="1028.9320388349515" y="122.6407766990291"/>
      <point x="1083.6504854368932" y="387.5145631067962" type="curve" smooth="yes"/>
      <point x="1143.0097087378642" y="678.2330097087379"/>
      <point x="978.2135922330096" y="873.5533980582524"/>
      <point x="756.7766990291262" y="873.5533980582524" type="curve" smooth="yes"/>
      <point x="682.6601941747573" y="873.5533980582524"/>
      <point x="627.9417475728155" y="854.873786407767"/>
      <point x="569.1844660194174" y="826.1553398058252" type="curve"/>
      <point x="541.26213592233" y="826.1553398058252" type="line"/>
      <point x="554.6213592233008" y="886.9514563106796" type="line"/>
      <point x="577.3009708737864" y="980.4271844660194"/>
      <point x="599.9805825242718" y="1075.9029126213593"/>
      <point x="621.3398058252427" y="1169.378640776699" type="curve"/>
      <point x="494.252427184466" y="1050.4466019417475" type="line"/>
      <point x="690.9708737864079" y="1050.4466019417475" type="line"/>
      <point x="844.3300970873786" y="1050.4466019417475"/>
      <point x="1002.368932038835" y="1050.4466019417475"/>
      <point x="1158.4077669902913" y="1050.4466019417475" type="curve"/>
      <point x="1225.495145631068" y="1377.9611650485435" type="line"/>
      <point x="320.2330097087379" y="1377.9611650485435" type="line"/>
      <point x="285.5922330097087" y="1211.398058252427"/>
      <point x="244.9514563106796" y="1018.1941747572816"/>
      <point x="202.31067961165047" y="816.9902912621359" type="curve"/>
      <point x="152.34951456310677" y="577.8252427184466" type="line"/>
      <point x="314.4466019417476" y="565.8640776699029" type="line"/>
      <point x="387.43689320388347" y="602.73786407767"/>
      <point x="460.15533980582524" y="616.1359223300972"/>
      <point x="527.0679611650485" y="616.1359223300972" type="curve"/>
      <point x="654.7378640776699" y="616.1359223300972"/>
      <point x="717.1650485436893" y="550.5048543689321"/>
      <point x="695.6893203883494" y="441.80582524271847" type="curve" smooth="yes"/>
      <point x="673.5728155339806" y="335.8640776699029"/>
      <point x="598.5436893203882" y="292.2718446601941"/>
      <point x="479.28155339805824" y="292.2718446601941" type="curve"/>
      <point x="348.4854368932039" y="292.2718446601941"/>
      <point x="196.5631067961165" y="348.2718446601941"/>
      <point x="77.20388349514562" y="430.9514563106796" type="curve"/>
      <point x="-20.485436893203865" y="90.15533980582525" type="line"/>
      <point x="71.55339805825244" y="27.4368932038835"/>
      <point x="286.0" y="-29.28155339805825"/>
    </contour>
  </outline>
</glyph>
<glyph name="six" format="2">
  <advance width="1245.8058252427184"/>
  <unicode hex="0036"/>
  <outline>
    <contour>
      <point x="603.2038834951456" y="-29.28155339805825" type="curve" smooth="yes"/>
      <point x="951.5728155339806" y="-29.28155339805825"/>
      <point x="1110.2912621359221" y="171.39805825242718"/>
      <point x="1158.2912621359221" y="396.0776699029127" type="curve" smooth="yes"/>
      <point x="1217.6116504854367" y="675.3203883495146"/>
      <point x="1064.3300970873786" y="876.2330097087379"/>
      <point x="814.1747572815534" y="876.2330097087379" type="curve" smooth="yes"/>
      <point x="721.26213592233" y="876.2330097087379"/>
      <point x="626.4271844660194" y="847.3980582524272"/>
      <point x="539.4757281553398" y="778.4466019417475" type="curve"/>
      <point x="502.19417475728153" y="779.1262135922331" type="line"/>
      <point x="391.2621359223301" y="673.9611650485436"/>
      <point x="381.94174757281553" y="644.6019417475728"/>
      <point x="455.5922330097087" y="538.8737864077669" type="curve"/>
      <point x="517.4951456310679" y="596.6990291262136"/>
      <point x="585.8446601941747" y="623.4563106796116"/>
      <point x="662.1165048543688" y="623.4563106796116" type="curve"/>
      <point x="765.495145631068" y="623.4563106796116"/>
      <point x="811.6893203883495" y="544.2718446601942"/>
      <point x="790.9320388349515" y="450.4854368932039" type="curve" smooth="yes"/>
      <point x="771.495145631068" y="355.37864077669906"/>
      <point x="712.5048543689321" y="292.2718446601941"/>
      <point x="614.4854368932039" y="292.2718446601941" type="curve"/>
      <point x="497.0291262135922" y="292.2718446601941"/>
      <point x="430.7961165048544" y="414.8155339805825"/>
      <point x="490.2330097087379" y="693.2815533980583" type="curve" smooth="yes"/>
      <point x="550.3883495145631" y="983.3009708737864"/>
      <point x="640.0970873786408" y="1086.368932038835"/>
      <point x="835.2038834951455" y="1086.368932038835" type="curve"/>
      <point x="938.6407766990292" y="1086.368932038835"/>
      <point x="1062.5631067961165" y="1058.3300970873786"/>
      <point x="1166.5631067961165" y="991.6504854368933" type="curve"/>
      <point x="1266.893203883495" y="1319.844660194175" type="line"/>
      <point x="1173.611650485437" y="1367.883495145631"/>
      <point x="1010.4077669902913" y="1408.601941747573"/>
      <point x="835.2038834951456" y="1408.601941747573" type="curve" smooth="yes"/>
      <point x="513.8058252427185" y="1408.601941747573"/>
      <point x="234.15533980582524" y="1268.8543689320386"/>
      <point x="122.873786407767" y="741.126213592233" type="curve" smooth="yes"/>
      <point x="23.592233009708746" y="270.64077669902906"/>
      <point x="198.1941747572815" y="-29.28155339805825"/>
    </contour>
  </outline>
</glyph>
<glyph name="seven" format="2">
  <advance width="1123.157894736842"/>
  <unicode hex="0037"/>
  <outline>
    <contour>
      <point x="52.26315789473686" y="0.0" type="curve"/>
      <point x="491.73684210526307" y="0.0" type="line"/>
      <point x="584.8947368421052" y="147.5263157894737"/>
      <point x="676.421052631579" y="293.7894736842105"/>
      <point x="767.5789473684212" y="438.94736842105266" type="curve"/>
      <point x="924.7894736842105" y="688.5263157894736" type="line"/>
      <point x="1017.0526315789474" y="835.5263157894736"/>
      <point x="1105.842105263158" y="976.6842105263158"/>
      <point x="1197.3684210526314" y="1122.578947368421" type="curve"/>
      <point x="1249.7894736842104" y="1377.7894736842106" type="line"/>
      <point x="234.0" y="1377.7894736842106" type="line"/>
      <point x="166.5263157894737" y="1050.2105263157896" type="line"/>
      <point x="313.5263157894737" y="1050.2105263157896"/>
      <point x="458.89473684210526" y="1050.2105263157896"/>
      <point x="603.8947368421052" y="1050.2105263157896" type="curve"/>
      <point x="849.6842105263157" y="1050.2105263157896" type="line"/>
      <point x="772.4210526315791" y="1124.0526315789473" type="line"/>
      <point x="714.7368421052631" y="1034.0"/>
      <point x="659.0526315789474" y="947.5789473684212"/>
      <point x="598.4736842105262" y="852.6315789473684" type="curve"/>
      <point x="362.8421052631579" y="484.7894736842105" type="line"/>
      <point x="259.6842105263158" y="323.2631578947368"/>
      <point x="157.42105263157896" y="163.89473684210526"/>
    </contour>
  </outline>
</glyph>
<glyph name="equal" format="2">
  <advance width="1168.9473684210527"/>
  <unicode hex="003D"/>
  <outline>
    <contour>
      <point x="45.10526315789475" y="201.5263157894737" type="line"/>
      <point x="188.8421052631579" y="201.5263157894737"/>
      <point x="324.94736842105266" y="201.5263157894737"/>
      <point x="443.42105263157896" y="201.5263157894737" type="curve"/>
      <point x="601.0" y="201.5263157894737" type="line"/>
      <point x="719.4736842105262" y="201.5263157894737"/>
      <point x="855.578947368421" y="201.5263157894737"/>
      <point x="999.3157894736842" y="201.5263157894737" type="curve"/>
      <point x="1068.421052631579" y="522.578947368421" type="line"/>
      <point x="924.6842105263158" y="522.578947368421"/>
      <point x="788.578947368421" y="522.578947368421"/>
      <point x="670.1052631578948" y="522.578947368421" type="curve"/>
      <point x="512.5263157894736" y="522.578947368421" type="line"/>
      <point x="394.0526315789474" y="522.578947368421"/>
      <point x="257.94736842105266" y="522.578947368421"/>
      <point x="114.21052631578948" y="522.578947368421" type="curve"/>
    </contour>
    <contour>
      <point x="150.6842105263158" y="703.1052631578948" type="line"/>
      <point x="294.42105263157896" y="703.1052631578948"/>
      <point x="430.5263157894737" y="703.1052631578948"/>
      <point x="549.0" y="703.1052631578948" type="curve"/>
      <point x="706.578947368421" y="703.1052631578948" type="line"/>
      <point x="825.0526315789473" y="703.1052631578948"/>
      <point x="961.1578947368421" y="703.1052631578948"/>
      <point x="1104.8947368421052" y="703.1052631578948" type="curve"/>
      <point x="1174.0" y="1024.157894736842" type="line"/>
      <point x="1030.2631578947369" y="1024.157894736842"/>
      <point x="894.1578947368421" y="1024.157894736842"/>
      <point x="775.6842105263158" y="1024.157894736842" type="curve"/>
      <point x="618.1052631578948" y="1024.157894736842" type="line"/>
      <point x="499.63157894736844" y="1024.157894736842"/>
      <point x="363.5263157894737" y="1024.157894736842"/>
      <point x="219.78947368421052" y="1024.157894736842" type="curve"/>
    </contour>
  </outline>
</glyph>
<glyph name="greater" format="2">
  <advance width="1168.9473684210527"/>
  <unicode hex="003E"/>
  <outline>
    <contour>
      <point x="3.4736842105263186" y="86.26315789473685" type="line"/>
      <point x="155.57894736842107" y="138.26315789473685"/>
      <point x="305.3157894736842" y="189.89473684210526"/>
      <point x="434.15789473684214" y="233.89473684210526" type="curve"/>
      <point x="637.4736842105262" y="304.3157894736842" type="line"/>
      <point x="765.578947368421" y="347.9473684210526"/>
      <point x="915.3157894736842" y="399.57894736842104"/>
      <point x="1067.421052631579" y="451.57894736842104" type="curve"/>
      <point x="1136.5263157894735" y="773.3684210526316" type="line"/>
      <point x="1006.7894736842105" y="825.3684210526316"/>
      <point x="878.6842105263158" y="877.0"/>
      <point x="768.9473684210526" y="920.6315789473684" type="curve"/>
      <point x="595.1052631578947" y="991.0526315789474" type="line"/>
      <point x="486.2631578947368" y="1035.0526315789473"/>
      <point x="356.5263157894737" y="1086.6842105263158"/>
      <point x="226.78947368421052" y="1138.6842105263158" type="curve"/>
      <point x="157.31578947368422" y="817.6315789473684" type="line"/>
      <point x="254.0" y="779.8947368421053"/>
      <point x="357.42105263157896" y="739.7894736842105"/>
      <point x="454.8421052631579" y="701.6842105263158" type="curve"/>
      <point x="611.2631578947369" y="640.7894736842105" type="line"/>
      <point x="605.6315789473684" y="612.4736842105262" type="line"/>
      <point x="425.6842105263158" y="554.8421052631579" type="line"/>
      <point x="309.3157894736842" y="516.7368421052631"/>
      <point x="190.21052631578948" y="477.89473684210526"/>
      <point x="77.84210526315789" y="441.78947368421046" type="curve"/>
    </contour>
  </outline>
</glyph>
<glyph name="at" format="2">
  <advance width="1794.0526315789473"/>
  <unicode hex="0040"/>
  <outline>
    <contour>
      <point x="976.6315789473683" y="-301.10526315789474" type="curve" smooth="yes"/>
      <point x="1182.578947368421" y="-301.10526315789474"/>
      <point x="1374.4736842105262" y="-256.7368421052632"/>
      <point x="1543.8947368421052" y="-155.26315789473682" type="curve"/>
      <point x="1543.8947368421052" y="80.26315789473684" type="line"/>
      <point x="1321.421052631579" y="-60.26315789473685"/>
      <point x="1125.578947368421" y="-93.89473684210526"/>
      <point x="976.6315789473683" y="-93.89473684210526" type="curve"/>
      <point x="463.0" y="-93.89473684210526"/>
      <point x="228.21052631578948" y="238.0"/>
      <point x="324.7368421052632" y="674.1578947368421" type="curve" smooth="yes"/>
      <point x="393.15789473684214" y="985.7368421052631"/>
      <point x="603.9473684210526" y="1205.7894736842106"/>
      <point x="966.6315789473683" y="1205.7894736842106" type="curve"/>
      <point x="1359.5263157894735" y="1205.7894736842106"/>
      <point x="1591.0526315789473" y="954.9473684210526"/>
      <point x="1512.3157894736842" y="559.6315789473684" type="curve" smooth="yes"/>
      <point x="1484.4736842105262" y="418.7894736842105"/>
      <point x="1407.6315789473683" y="326.3157894736842"/>
      <point x="1324.9473684210527" y="326.3157894736842" type="curve"/>
      <point x="1250.842105263158" y="326.3157894736842"/>
      <point x="1226.9473684210525" y="391.57894736842104"/>
      <point x="1261.1052631578948" y="554.578947368421" type="curve"/>
      <point x="1282.2631578947369" y="654.0" type="line"/>
      <point x="1305.0" y="760.0526315789474"/>
      <point x="1331.0" y="877.8947368421052"/>
      <point x="1351.7368421052631" y="975.578947368421" type="curve"/>
      <point x="1092.6842105263158" y="961.421052631579" type="line"/>
      <point x="1060.8947368421052" y="861.0526315789474" type="line"/>
      <point x="1037.842105263158" y="861.0526315789474" type="line"/>
      <point x="998.6842105263157" y="942.6315789473684"/>
      <point x="923.8947368421052" y="985.9473684210526"/>
      <point x="829.6315789473683" y="985.9473684210526" type="curve" smooth="yes"/>
      <point x="644.8947368421052" y="985.9473684210526"/>
      <point x="518.1052631578947" y="820.2105263157895"/>
      <point x="478.2631578947368" y="622.8421052631579" type="curve" smooth="yes"/>
      <point x="426.63157894736844" y="365.63157894736844"/>
      <point x="538.2105263157895" y="136.21052631578948"/>
      <point x="757.3684210526316" y="136.21052631578948" type="curve" smooth="yes"/>
      <point x="838.8421052631578" y="136.21052631578948"/>
      <point x="928.7368421052631" y="170.42105263157896"/>
      <point x="986.0526315789473" y="271.4736842105263" type="curve"/>
      <point x="1007.4736842105262" y="271.4736842105263" type="line"/>
      <point x="1050.4736842105262" y="185.1578947368421"/>
      <point x="1164.4736842105262" y="119.47368421052632"/>
      <point x="1327.5263157894735" y="119.47368421052632" type="curve" smooth="yes"/>
      <point x="1469.7894736842104" y="119.47368421052632"/>
      <point x="1677.6842105263158" y="216.05263157894737"/>
      <point x="1735.4736842105262" y="515.0" type="curve" smooth="yes"/>
      <point x="1831.6315789473683" y="1013.0526315789474"/>
      <point x="1500.1052631578946" y="1413.0"/>
      <point x="970.2631578947368" y="1413.0" type="curve" smooth="yes"/>
      <point x="577.2105263157895" y="1413.0"/>
      <point x="207.5263157894737" y="1201.2105263157894"/>
      <point x="106.10526315789473" y="722.9473684210526" type="curve" smooth="yes"/>
      <point x="-10.736842105263161" y="174.8421052631579"/>
      <point x="316.0526315789474" y="-301.10526315789474"/>
    </contour>
    <contour>
      <point x="848.578947368421" y="393.63157894736844" type="curve"/>
      <point x="772.578947368421" y="393.63157894736844"/>
      <point x="745.5263157894736" y="483.6842105263158"/>
      <point x="763.7894736842104" y="569.5263157894736" type="curve" smooth="yes"/>
      <point x="782.2105263157894" y="657.7894736842105"/>
      <point x="832.7368421052631" y="723.2631578947369"/>
      <point x="907.0526315789473" y="723.2631578947369" type="curve"/>
      <point x="945.4736842105262" y="723.2631578947369"/>
      <point x="976.8947368421052" y="703.8947368421052"/>
      <point x="995.578947368421" y="678.4736842105264" type="curve"/>
      <point x="949.4736842105262" y="461.42105263157896" type="line"/>
      <point x="926.0526315789473" y="418.2631578947369"/>
      <point x="888.578947368421" y="393.63157894736844"/>
    </contour>
  </outline>
</glyph>
<glyph name="A" format="2">
  <advance width="1474.6842105263158"/>
  <unicode hex="0041"/>
  <anchor x="629.2631578947368" y="0.0" name="bottom"/>
  <anchor x="1332.9473684210527" y="0.0" name="ogonek"/>
  <anchor x="929.2631578947368" y="1426.0" name="top"/>
  <outline>
    <contour>
      <point x="-72.78947368421053" y="0.0" type="curve"/>
      <point x="365.0526315789474" y="0.0" type="line"/>
      <point x="428.99999999999994" y="141.21052631578948"/>
      <point x="498.9473684210526" y="296.9473684210526"/>
      <point x="562.5263157894736" y="439.05263157894734" type="curve"/>
      <point x="851.6315789473684" y="1081.5263157894738" type="line"/>
      <point x="879.9473684210526" y="1081.5263157894738" type="line"/>
      <point x="908.6315789473684" y="435.42105263157896" type="line"/>
      <point x="914.1578947368421" y="297.3157894736842"/>
      <point x="922.0526315789473" y="141.73684210526315"/>
      <point x="927.578947368421" y="0.0" type="curve"/>
      <point x="1332.9473684210527" y="0.0" type="line"/>
      <point x="1318.3684210526317" y="150.0"/>
      <point x="1301.421052631579" y="326.0"/>
      <point x="1286.4736842105262" y="477.8421052631579" type="curve"/>
      <point x="1238.3684210526317" y="974.0" type="line"/>
      <point x="1221.421052631579" y="1148.0"/>
      <point x="1208.842105263158" y="1277.842105263158"/>
      <point x="1194.6315789473686" y="1426.0" type="curve"/>
      <point x="666.2631578947369" y="1426.0" type="line"/>
      <point x="589.6842105263158" y="1278.0"/>
      <point x="519.4736842105264" y="1142.3684210526317"/>
      <point x="432.5263157894737" y="974.3684210526316" type="curve"/>
      <point x="179.68421052631578" y="486.0" type="line"/>
      <point x="99.10526315789475" y="332.0"/>
      <point x="7.78947368421052" y="155.63157894736844"/>
    </contour>
    <contour>
      <point x="371.8421052631579" y="264.0526315789474" type="line"/>
      <point x="1044.3684210526317" y="264.0526315789474" type="line"/>
      <point x="1069.421052631579" y="568.7894736842105" type="line"/>
      <point x="480.1052631578947" y="568.7894736842105" type="line"/>
    </contour>
  </outline>
</glyph>
<glyph name="B" format="2">
  <advance width="1343.990291262136"/>
  <unicode hex="0042"/>
  <outline>
    <contour>
      <point x="597.4660194174758" y="0.0" type="curve"/>
      <point x="1082.4757281553398" y="0.0"/>
      <point x="1215.8349514563106" y="132.03883495145632"/>
      <point x="1265.7961165048544" y="371.2038834951456" type="curve" smooth="yes"/>
      <point x="1308.4757281553398" y="573.9611650485438"/>
      <point x="1203.0388349514562" y="701.8834951456312"/>
      <point x="1047.873786407767" y="745.883495145631" type="curve"/>
      <point x="1055.1941747572816" y="774.4854368932038" type="line"/>
      <point x="1214.4757281553398" y="804.5631067961165"/>
      <point x="1335.7572815533981" y="863.3592233009709"/>
      <point x="1375.0776699029127" y="1045.3203883495146" type="curve" smooth="yes"/>
      <point x="1415.116504854369" y="1236.7961165048544"/>
      <point x="1334.883495145631" y="1426.0"/>
      <point x="863.6990291262135" y="1426.0" type="curve"/>
      <point x="665.7766990291261" y="1426.0"/>
      <point x="465.4077669902913" y="1426.0"/>
      <point x="311.4466019417476" y="1426.0" type="curve"/>
      <point x="277.4466019417476" y="1268.6407766990292"/>
      <point x="249.4466019417476" y="1135.2815533980581"/>
      <point x="210.12621359223303" y="948.6796116504854" type="curve"/>
      <point x="106.80582524271847" y="461.3980582524272" type="line"/>
      <point x="67.4854368932039" y="277.4368932038835"/>
      <point x="40.80582524271846" y="150.71844660194174"/>
      <point x="8.126213592233025" y="0.0" type="curve"/>
      <point x="150.45631067961168" y="0.0"/>
      <point x="354.37864077669906" y="0.0"/>
    </contour>
    <contour>
      <point x="476.49514563106794" y="291.8640776699029" type="line"/>
      <point x="492.5339805825243" y="366.7378640776699"/>
      <point x="508.57281553398053" y="441.6116504854369"/>
      <point x="531.9320388349514" y="550.4077669902913" type="curve"/>
      <point x="596.7281553398059" y="860.3106796116505" type="line"/>
      <point x="621.4077669902913" y="975.0679611650485"/>
      <point x="637.4466019417475" y="1055.864077669903"/>
      <point x="655.4854368932039" y="1139.4174757281553" type="curve"/>
      <point x="815.2135922330096" y="1139.4174757281553" type="line" smooth="yes"/>
      <point x="914.4757281553398" y="1139.4174757281553"/>
      <point x="958.7475728155339" y="1080.621359223301"/>
      <point x="939.3495145631067" y="990.2718446601941" type="curve" smooth="yes"/>
      <point x="920.6310679611651" y="898.0388349514564"/>
      <point x="854.2815533980583" y="849.0485436893204"/>
      <point x="748.8640776699029" y="849.0485436893204" type="curve" smooth="yes"/>
      <point x="494.96116504854365" y="849.0485436893204" type="line"/>
      <point x="439.757281553398" y="583.6699029126214" type="line"/>
      <point x="708.3009708737864" y="583.6699029126214" type="line" smooth="yes"/>
      <point x="818.3592233009709" y="583.6699029126214"/>
      <point x="870.0679611650485" y="524.1165048543689"/>
      <point x="850.631067961165" y="430.33009708737865" type="curve" smooth="yes"/>
      <point x="829.2330097087378" y="331.3398058252427"/>
      <point x="764.242718446602" y="291.8640776699029"/>
      <point x="647.2330097087379" y="291.8640776699029" type="curve" smooth="yes"/>
    </contour>
  </outline>
</glyph>
<glyph name="C" format="2">
  <advance width="1365.657894736842"/>
  <unicode hex="0043"/>
  <anchor x="683.5" y="0.0" name="bottom"/>
  <anchor x="979.8157894736843" y="1426.0" name="top"/>
  <outline>
    <contour>
      <point x="770.3421052631579" y="-29.421052631578945" type="curve" smooth="yes"/>
      <point x="901.2894736842105" y="-29.421052631578945"/>
      <point x="1070.8684210526314" y="-5.578947368421051"/>
      <point x="1180.5" y="43.21052631578948" type="curve"/>
      <point x="1243.2368421052631" y="434.8421052631579" type="line"/>
      <point x="1102.0263157894738" y="347.57894736842104"/>
      <point x="962.921052631579" y="305.7894736842105"/>
      <point x="851.5526315789474" y="305.7894736842105" type="curve"/>
      <point x="579.4473684210526" y="305.7894736842105"/>
      <point x="493.39473684210526" y="531.9999999999999"/>
      <point x="539.1315789473684" y="750.1052631578947" type="curve" smooth="yes"/>
      <point x="594.1315789473684" y="1013.7894736842104"/>
      <point x="765.3421052631578" y="1109.8947368421052"/>
      <point x="957.5" y="1109.8947368421052" type="curve"/>
      <point x="1094.5" y="1109.8947368421052"/>
      <point x="1217.8157894736842" y="1059.578947368421"/>
      <point x="1354.1842105263158" y="969.7368421052631" type="curve"/>
      <point x="1462.657894736842" y="1340.4736842105262" type="line"/>
      <point x="1331.078947368421" y="1412.6842105263158"/>
      <point x="1131.7105263157896" y="1456.5263157894738"/>
      <point x="963.1315789473683" y="1456.5263157894738" type="curve" smooth="yes"/>
      <point x="485.7105263157895" y="1456.5263157894738"/>
      <point x="211.07894736842107" y="1230.5263157894735"/>
      <point x="122.71052631578948" y="804.5263157894738" type="curve" smooth="yes"/>
      <point x="28.18421052631579" y="354.2631578947369"/>
      <point x="262.8157894736842" y="-29.421052631578945"/>
    </contour>
  </outline>
</glyph>
<glyph name="D" format="2">
  <advance width="1463.3157894736842"/>
  <unicode hex="0044"/>
  <anchor x="602.5263157894736" y="0.0" name="bottom"/>
  <anchor x="777.2105263157895" y="714.0" name="center"/>
  <anchor x="902.5263157894736" y="1426.0" name="top"/>
  <outline>
    <contour>
      <point x="8.315789473684212" y="0.0" type="curve"/>
      <point x="173.42105263157896" y="0.0"/>
      <point x="348.5263157894737" y="0.0"/>
      <point x="566.578947368421" y="0.0" type="curve"/>
      <point x="1134.2631578947369" y="0.0"/>
      <point x="1354.421052631579" y="259.63157894736844"/>
      <point x="1437.157894736842" y="662.7368421052631" type="curve" smooth="yes"/>
      <point x="1522.7894736842104" y="1082.6842105263158"/>
      <point x="1310.2631578947369" y="1426.0"/>
      <point x="863.6315789473684" y="1426.0" type="curve"/>
      <point x="663.3157894736842" y="1426.0"/>
      <point x="458.5263157894737" y="1426.0"/>
      <point x="311.9473684210526" y="1426.0" type="curve"/>
      <point x="277.9473684210526" y="1269.6315789473686"/>
      <point x="249.57894736842104" y="1135.421052631579"/>
      <point x="209.94736842105263" y="947.6315789473684" type="curve"/>
      <point x="106.6842105263158" y="461.3157894736842" type="line"/>
      <point x="67.42105263157895" y="277.5263157894737"/>
      <point x="40.684210526315795" y="150.57894736842104"/>
    </contour>
    <contour>
      <point x="492.57894736842104" y="326.3157894736842" type="line"/>
      <point x="507.52631578947364" y="398.6842105263158"/>
      <point x="522.1052631578947" y="469.2105263157895"/>
      <point x="542.6842105263157" y="569.0" type="curve"/>
      <point x="601.8947368421052" y="848.8421052631579" type="line"/>
      <point x="624.1052631578947" y="953.5263157894736"/>
      <point x="639.0526315789473" y="1022.421052631579"/>
      <point x="655.6315789473684" y="1099.6842105263158" type="curve"/>
      <point x="766.0526315789474" y="1099.6842105263158" type="line"/>
      <point x="989.1052631578947" y="1099.6842105263158"/>
      <point x="1061.2105263157896" y="918.0"/>
      <point x="1014.2105263157895" y="697.9473684210526" type="curve" smooth="yes"/>
      <point x="968.4736842105264" y="480.7368421052631"/>
      <point x="861.5263157894738" y="326.3157894736842"/>
      <point x="604.4736842105264" y="326.3157894736842" type="curve"/>
    </contour>
  </outline>
</glyph>
<glyph name="E" format="2">
  <advance width="1196.601941747573"/>
  <unicode hex="0045"/>
  <anchor x="506.79611650485435" y="0.0" name="bottom"/>
  <anchor x="1002.4466019417476" y="0.0" name="ogonek"/>
  <anchor x="806.7961165048544" y="1426.0" name="top"/>
  <anchor x="262.0388349514563" y="1426.0" name="topleft"/>
  <outline>
    <contour>
      <point x="8.466019417475742" y="0.0" type="curve"/>
      <point x="412.9902912621359" y="0.0" type="line"/>
      <point x="428.2718446601942" y="66.40776699029126" type="line"/>
      <point x="458.9514563106796" y="217.126213592233"/>
      <point x="487.631067961165" y="347.84466019417476"/>
      <point x="524.9514563106796" y="527.8058252427185" type="curve"/>
      <point x="598.3883495145631" y="882.2718446601941" type="line"/>
      <point x="638.3883495145631" y="1068.8737864077668"/>
      <point x="667.7087378640776" y="1204.2330097087379"/>
      <point x="700.3883495145631" y="1359.5922330097087" type="curve"/>
      <point x="713.6699029126213" y="1426.0" type="line"/>
      <point x="311.7864077669903" y="1426.0" type="line"/>
      <point x="277.7864077669903" y="1269.3203883495146"/>
      <point x="249.7864077669903" y="1135.2815533980581"/>
      <point x="209.78640776699032" y="947.3203883495146" type="curve"/>
      <point x="106.46601941747574" y="461.3980582524272" type="line"/>
      <point x="67.14563106796119" y="277.4368932038835"/>
      <point x="40.46601941747574" y="150.0388349514563"/>
    </contour>
    <contour>
      <point x="368.46601941747565" y="0.0" type="line"/>
      <point x="1002.4466019417476" y="0.0" type="line"/>
      <point x="1072.893203883495" y="328.9126213592233" type="line"/>
      <point x="948.0970873786408" y="328.9126213592233"/>
      <point x="815.3009708737865" y="328.9126213592233"/>
      <point x="665.1456310679612" y="328.9126213592233" type="curve"/>
      <point x="438.91262135922324" y="328.9126213592233" type="line"/>
    </contour>
    <contour>
      <point x="437.4563106796116" y="567.1456310679612" type="line"/>
      <point x="689.6116504854369" y="567.1456310679612" type="line"/>
      <point x="853.0485436893204" y="567.1456310679612"/>
      <point x="964.4466019417476" y="567.1456310679612"/>
      <point x="1084.5242718446602" y="567.1456310679612" type="curve"/>
      <point x="1147.009708737864" y="865.6116504854369" type="line"/>
      <point x="1033.611650485437" y="865.6116504854369"/>
      <point x="921.5339805825241" y="865.6116504854369"/>
      <point x="752.7766990291262" y="865.6116504854369" type="curve"/>
      <point x="499.94174757281553" y="865.6116504854369" type="line"/>
    </contour>
    <contour>
      <point x="574.1359223300971" y="1097.0873786407767" type="line"/>
      <point x="799.0097087378641" y="1097.0873786407767" type="line"/>
      <point x="979.8446601941747" y="1097.0873786407767"/>
      <point x="1105.2815533980586" y="1097.0873786407767"/>
      <point x="1222.7184466019419" y="1097.0873786407767" type="curve"/>
      <point x="1291.8446601941748" y="1426.0" type="line"/>
      <point x="642.5825242718446" y="1426.0" type="line"/>
    </contour>
  </outline>
</glyph>
<glyph name="F" format="2">
  <advance width="1158.3157894736842"/>
  <unicode hex="0046"/>
  <outline>
    <contour>
      <point x="8.315789473684212" y="0.0" type="curve"/>
      <point x="411.6842105263158" y="0.0" type="line"/>
      <point x="444.05263157894734" y="150.57894736842104"/>
      <point x="470.7894736842105" y="277.5263157894737"/>
      <point x="510.05263157894734" y="461.3157894736842" type="curve"/>
      <point x="598.6315789473684" y="882.0" type="line"/>
      <point x="637.8947368421052" y="1069.0526315789473"/>
      <point x="667.8947368421052" y="1204.157894736842"/>
      <point x="700.2631578947368" y="1359.6315789473683" type="curve"/>
      <point x="713.6842105263157" y="1426.0" type="line"/>
      <point x="311.9473684210526" y="1426.0" type="line"/>
      <point x="277.9473684210526" y="1269.6315789473686"/>
      <point x="249.57894736842104" y="1135.421052631579"/>
      <point x="209.94736842105263" y="947.6315789473684" type="curve"/>
      <point x="106.6842105263158" y="461.3157894736842" type="line"/>
      <point x="67.42105263157895" y="277.5263157894737"/>
      <point x="40.684210526315795" y="150.57894736842104"/>
    </contour>
    <contour>
      <point x="420.05263157894734" y="527.578947368421" type="line"/>
      <point x="668.4736842105262" y="527.578947368421" type="line"/>
      <point x="832.0" y="527.578947368421"/>
      <point x="943.3157894736842" y="527.578947368421"/>
      <point x="1063.3684210526317" y="527.578947368421" type="curve"/>
      <point x="1131.2105263157896" y="853.8947368421052" type="line"/>
      <point x="1017.5263157894736" y="853.8947368421052"/>
      <point x="905.8421052631578" y="853.8947368421052"/>
      <point x="736.6842105263157" y="853.8947368421052" type="curve"/>
      <point x="487.8947368421052" y="853.8947368421052" type="line"/>
    </contour>
    <contour>
      <point x="563.3157894736843" y="1085.0" type="line"/>
      <point x="784.3157894736843" y="1085.0" type="line"/>
      <point x="965.1578947368421" y="1085.0"/>
      <point x="1091.0526315789473" y="1085.0"/>
      <point x="1208.578947368421" y="1085.0" type="curve"/>
      <point x="1279.6842105263158" y="1426.0" type="line"/>
      <point x="634.421052631579" y="1426.0" type="line"/>
    </contour>
  </outline>
</glyph>
<glyph name="G" format="2">
  <advance width="1454.2368421052631"/>
  <unicode hex="0047"/>
  <anchor x="683.5" y="0.0" name="bottom"/>
  <anchor x="983.5" y="1426.0" name="top"/>
  <outline>
    <contour>
      <point x="805.9736842105264" y="-27.789473684210527" type="curve" smooth="yes"/>
      <point x="970.7105263157895" y="-27.789473684210527"/>
      <point x="1156.078947368421" y="4.421052631578949"/>
      <point x="1253.921052631579" y="42.63157894736842" type="curve"/>
      <point x="1278.0263157894735" y="404.52631578947364" type="line"/>
      <point x="1125.342105263158" y="328.5263157894737"/>
      <point x="1005.078947368421" y="297.63157894736844"/>
      <point x="838.9736842105264" y="297.63157894736844" type="curve"/>
      <point x="579.7631578947369" y="297.63157894736844"/>
      <point x="486.86842105263156" y="522.2105263157895"/>
      <point x="535.8684210526316" y="753.3684210526316" type="curve" smooth="yes"/>
      <point x="592.8684210526316" y="1023.4210526315788"/>
      <point x="775.6578947368421" y="1109.8947368421052"/>
      <point x="956.7631578947369" y="1109.8947368421052" type="curve"/>
      <point x="1057.8684210526314" y="1109.8947368421052"/>
      <point x="1215.8684210526317" y="1083.3157894736842"/>
      <point x="1397.0263157894738" y="967.8947368421053" type="curve"/>
      <point x="1507.1315789473683" y="1340.2631578947369" type="line"/>
      <point x="1371.1842105263158" y="1405.421052631579"/>
      <point x="1167.9736842105262" y="1456.5263157894738"/>
      <point x="946.6052631578947" y="1456.5263157894738" type="curve" smooth="yes"/>
      <point x="497.44736842105266" y="1456.5263157894738"/>
      <point x="214.3421052631579" y="1242.842105263158"/>
      <point x="122.71052631578948" y="804.5263157894738" type="curve" smooth="yes"/>
      <point x="31.07894736842105" y="367.47368421052636"/>
      <point x="238.86842105263156" y="-27.789473684210527"/>
    </contour>
    <contour>
      <point x="866.8684210526316" y="34.473684210526315" type="curve"/>
      <point x="1253.921052631579" y="42.63157894736842" type="line"/>
      <point x="1283.5526315789475" y="186.05263157894737"/>
      <point x="1307.1842105263158" y="295.10526315789474"/>
      <point x="1332.078947368421" y="411.42105263157896" type="curve"/>
      <point x="1359.7105263157896" y="546.1052631578947"/>
      <point x="1380.9736842105262" y="641.5263157894736"/>
      <point x="1402.2368421052631" y="750.2105263157895" type="curve"/>
      <point x="1016.8157894736843" y="750.2105263157895" type="line"/>
      <point x="995.5526315789474" y="641.5263157894736"/>
      <point x="974.2894736842105" y="546.1052631578947"/>
      <point x="946.6578947368421" y="411.42105263157896" type="curve"/>
      <point x="921.7631578947369" y="295.10526315789474"/>
      <point x="898.1315789473684" y="186.05263157894737"/>
    </contour>
  </outline>
</glyph>
<glyph name="I" format="2">
  <advance width="668.7894736842105"/>
  <unicode hex="0049"/>
  <anchor x="221.421052631579" y="0.0" name="bottom"/>
  <anchor x="437.78947368421046" y="0.0" name="ogonek"/>
  <anchor x="521.421052631579" y="1426.0" name="top"/>
  <anchor x="250.42105263157896" y="1426.0" name="topleft"/>
  <outline>
    <contour>
      <point x="16.473684210526322" y="0.0" type="curve"/>
      <point x="437.78947368421046" y="0.0" type="line"/>
      <point x="470.157894736842" y="150.57894736842104"/>
      <point x="496.8947368421052" y="277.5263157894737"/>
      <point x="536.157894736842" y="461.3157894736842" type="curve"/>
      <point x="639.4210526315788" y="947.6315789473684" type="line"/>
      <point x="679.0526315789473" y="1135.421052631579"/>
      <point x="707.4210526315788" y="1269.6315789473686"/>
      <point x="741.4210526315788" y="1426.0" type="curve"/>
      <point x="320.10526315789474" y="1426.0" type="line"/>
      <point x="286.10526315789474" y="1269.6315789473686"/>
      <point x="257.7368421052632" y="1135.421052631579"/>
      <point x="218.10526315789477" y="947.6315789473684" type="curve"/>
      <point x="114.8421052631579" y="461.3157894736842" type="line"/>
      <point x="75.57894736842105" y="277.5263157894737"/>
      <point x="48.842105263157904" y="150.57894736842104"/>
    </contour>
  </outline>
</glyph>
<glyph name="J" format="2">
  <advance width="670.1578947368421"/>
  <unicode hex="004A"/>
  <anchor x="228.94736842105263" y="0.0" name="bottom"/>
  <anchor x="528.9473684210526" y="1426.0" name="top"/>
  <outline>
    <contour>
      <point x="-188.73684210526315" y="-306.94736842105266" type="curve"/>
      <point x="199.3157894736842" y="-306.94736842105266" type="line"/>
      <point x="322.36842105263156" y="-213.68421052631578"/>
      <point x="424.94736842105266" y="-77.0"/>
      <point x="472.57894736842104" y="148.05263157894737" type="curve" smooth="yes"/>
      <point x="509.10526315789474" y="320.6842105263158"/>
      <point x="548.5263157894736" y="506.0"/>
      <point x="589.0526315789474" y="698.6315789473683" type="curve"/>
      <point x="642.421052631579" y="947.6315789473684" type="line"/>
      <point x="682.0526315789474" y="1135.421052631579"/>
      <point x="710.421052631579" y="1269.6315789473686"/>
      <point x="744.421052631579" y="1426.0" type="curve"/>
      <point x="329.63157894736844" y="1426.0" type="line"/>
      <point x="295.63157894736844" y="1269.6315789473686"/>
      <point x="267.2631578947369" y="1135.421052631579"/>
      <point x="227.63157894736844" y="947.6315789473684" type="curve"/>
      <point x="171.68421052631578" y="686.4736842105262" type="line"/>
      <point x="63.05263157894738" y="170.21052631578948" type="line"/>
      <point x="25.578947368421048" y="-2.421052631578948"/>
      <point x="-58.315789473684205" y="-162.10526315789474"/>
    </contour>
  </outline>
</glyph>
<glyph name="K" format="2">
  <advance width="1428.5263157894738"/>
  <unicode hex="004B"/>
  <anchor x="622.0" y="0.0" name="bottom"/>
  <anchor x="922.0" y="1426.0" name="top"/>
  <outline>
    <contour>
      <point x="826.0526315789474" y="0.0" type="curve"/>
      <point x="1295.842105263158" y="0.0" type="line"/>
      <point x="1236.7894736842104" y="127.78947368421052"/>
      <point x="1134.0526315789473" y="343.15789473684214"/>
      <point x="1059.8947368421052" y="501.1052631578948" type="curve"/>
      <point x="894.8421052631579" y="849.1578947368421" type="line"/>
      <point x="892.3157894736843" y="666.3157894736843" type="line"/>
      <point x="1156.9473684210527" y="961.5263157894738" type="line"/>
      <point x="1297.6315789473686" y="1116.578947368421"/>
      <point x="1432.157894736842" y="1268.7368421052631"/>
      <point x="1575.421052631579" y="1426.0" type="curve"/>
      <point x="1085.1052631578948" y="1426.0" type="line"/>
      <point x="979.5263157894738" y="1295.3684210526317"/>
      <point x="905.3157894736842" y="1203.3157894736842"/>
      <point x="828.1578947368421" y="1108.6842105263158" type="curve"/>
      <point x="661.2631578947368" y="903.0526315789474" type="line"/>
      <point x="582.1578947368421" y="903.0526315789474" type="line"/>
      <point x="515.9473684210527" y="583.2631578947369" type="line"/>
      <point x="601.2105263157895" y="583.2631578947369" type="line"/>
      <point x="700.4736842105264" y="326.7368421052632" type="line"/>
      <point x="740.3157894736842" y="223.05263157894737"/>
      <point x="778.8947368421053" y="120.26315789473685"/>
    </contour>
    <contour>
      <point x="8.315789473684212" y="0.0" type="curve"/>
      <point x="419.842105263158" y="0.0" type="line"/>
      <point x="452.21052631578954" y="150.57894736842104"/>
      <point x="478.9473684210527" y="277.5263157894737"/>
      <point x="518.2105263157895" y="461.3157894736842" type="curve"/>
      <point x="621.4736842105264" y="947.6315789473684" type="line"/>
      <point x="661.1052631578948" y="1135.421052631579"/>
      <point x="689.4736842105264" y="1269.6315789473686"/>
      <point x="723.4736842105264" y="1426.0" type="curve"/>
      <point x="311.9473684210526" y="1426.0" type="line"/>
      <point x="277.9473684210526" y="1269.6315789473686"/>
      <point x="249.57894736842104" y="1135.421052631579"/>
      <point x="209.94736842105263" y="947.6315789473684" type="curve"/>
      <point x="106.6842105263158" y="461.3157894736842" type="line"/>
      <point x="67.42105263157895" y="277.5263157894737"/>
      <point x="40.684210526315795" y="150.57894736842104"/>
    </contour>
  </outline>
</glyph>
<glyph name="L" format="2">
  <advance width="1145.0526315789475"/>
  <unicode hex="004C"/>
  <anchor x="498.1052631578947" y="0.0" name="bottom"/>
  <anchor x="940.1578947368421" y="718.8947368421053" name="center"/>
  <anchor x="680.7368421052631" y="1426.0" name="top"/>
  <anchor x="736.2631578947369" y="1001.0526315789474" name="topright"/>
  <outline>
    <contour>
      <point x="8.315789473684212" y="0.0" type="curve"/>
      <point x="423.4736842105263" y="0.0" type="line"/>
      <point x="438.52631578947364" y="66.73684210526315" type="line"/>
      <point x="469.2631578947368" y="217.31578947368422"/>
      <point x="497.6315789473684" y="347.5263157894737"/>
      <point x="535.2631578947368" y="528.0526315789474" type="curve"/>
      <point x="624.7368421052631" y="947.6315789473684" type="line"/>
      <point x="664.3684210526316" y="1135.421052631579"/>
      <point x="692.7368421052631" y="1269.6315789473686"/>
      <point x="726.7368421052631" y="1426.0" type="curve"/>
      <point x="311.9473684210526" y="1426.0" type="line"/>
      <point x="277.9473684210526" y="1269.6315789473686"/>
      <point x="249.57894736842104" y="1135.421052631579"/>
      <point x="209.94736842105263" y="947.6315789473684" type="curve"/>
      <point x="106.6842105263158" y="461.3157894736842" type="line"/>
      <point x="67.42105263157895" y="277.5263157894737"/>
      <point x="40.684210526315795" y="150.57894736842104"/>
    </contour>
    <contour>
      <point x="369.0526315789474" y="0.0" type="line"/>
      <point x="986.6315789473683" y="0.0" type="line"/>
      <point x="1062.6315789473683" y="357.3157894736842" type="line"/>
      <point x="930.5263157894736" y="357.3157894736842"/>
      <point x="817.8947368421052" y="357.3157894736842"/>
      <point x="624.1052631578947" y="357.3157894736842" type="curve"/>
      <point x="445.0526315789474" y="357.3157894736842" type="line"/>
    </contour>
  </outline>
</glyph>
<glyph name="M" format="2">
  <advance width="1933.7368421052631"/>
  <unicode hex="004D"/>
  <anchor x="861.0526315789474" y="0.0" name="bottom"/>
  <anchor x="1161.0526315789475" y="1426.0" name="top"/>
  <outline>
    <contour>
      <point x="-24.315789473684205" y="0.0" type="curve"/>
      <point x="356.9473684210526" y="0.0" type="line"/>
      <point x="412.15789473684214" y="170.0"/>
      <point x="463.36842105263156" y="323.7894736842105"/>
      <point x="508.36842105263156" y="457.5263157894737" type="curve"/>
      <point x="605.1052631578948" y="746.3157894736843" type="line"/>
      <point x="632.3157894736842" y="746.3157894736843" type="line"/>
      <point x="677.7894736842105" y="436.36842105263156" type="line"/>
      <point x="698.7894736842105" y="289.1578947368421"/>
      <point x="723.2631578947369" y="132.94736842105263"/>
      <point x="740.7894736842105" y="0.0" type="curve"/>
      <point x="1012.3157894736842" y="0.0" type="line"/>
      <point x="1079.6315789473686" y="134.26315789473685"/>
      <point x="1158.2631578947369" y="285.1578947368421"/>
      <point x="1235.421052631579" y="437.10526315789474" type="curve"/>
      <point x="1392.3157894736842" y="746.3157894736843" type="line"/>
      <point x="1419.5263157894738" y="746.3157894736843" type="line"/>
      <point x="1393.4736842105262" y="457.5263157894737" type="line"/>
      <point x="1381.6315789473686" y="323.7894736842105"/>
      <point x="1368.6842105263158" y="170.0"/>
      <point x="1354.4736842105262" y="0.0" type="curve"/>
      <point x="1746.0526315789473" y="0.0" type="line"/>
      <point x="1760.421052631579" y="148.94736842105263"/>
      <point x="1769.157894736842" y="287.6842105263158"/>
      <point x="1783.5263157894735" y="461.3157894736842" type="curve"/>
      <point x="1822.6315789473686" y="944.3684210526316" type="line"/>
      <point x="1837.0" y="1118.7368421052631"/>
      <point x="1849.0" y="1270.157894736842"/>
      <point x="1861.3684210526317" y="1426.0" type="curve"/>
      <point x="1434.421052631579" y="1426.0" type="line"/>
      <point x="1351.3157894736842" y="1271.9473684210525"/>
      <point x="1287.1052631578948" y="1151.842105263158"/>
      <point x="1216.0" y="1020.3157894736842" type="curve"/>
      <point x="1007.0526315789473" y="635.3684210526316" type="line"/>
      <point x="981.1052631578947" y="635.3684210526316" type="line"/>
      <point x="922.5263157894736" y="1020.3157894736842" type="line"/>
      <point x="903.0" y="1151.842105263158"/>
      <point x="882.3684210526316" y="1276.842105263158"/>
      <point x="860.4736842105264" y="1426.0" type="curve"/>
      <point x="453.3157894736842" y="1426.0" type="line"/>
      <point x="400.57894736842104" y="1266.5263157894738"/>
      <point x="349.6842105263158" y="1118.0"/>
      <point x="291.6842105263158" y="944.3684210526316" type="curve"/>
      <point x="130.78947368421052" y="461.3157894736842" type="line"/>
      <point x="72.78947368421053" y="288.94736842105266"/>
      <point x="24.789473684210527" y="143.31578947368422"/>
    </contour>
  </outline>
</glyph>
<glyph name="N" format="2">
  <advance width="1496.0526315789473"/>
  <unicode hex="004E"/>
  <anchor x="644.2105263157895" y="0.0" name="bottom"/>
  <anchor x="944.2105263157895" y="1426.0" name="top"/>
  <outline>
    <contour>
      <point x="8.315789473684212" y="0.0" type="curve"/>
      <point x="393.7368421052632" y="0.0" type="line"/>
      <point x="426.10526315789474" y="150.57894736842104"/>
      <point x="452.8421052631579" y="277.5263157894737"/>
      <point x="492.10526315789474" y="461.3157894736842" type="curve"/>
      <point x="557.5263157894736" y="772.1578947368422" type="line"/>
      <point x="585.1052631578947" y="772.1578947368422" type="line"/>
      <point x="716.2105263157895" y="473.6842105263158" type="line"/>
      <point x="793.8947368421052" y="295.10526315789474"/>
      <point x="857.8947368421053" y="149.1578947368421"/>
      <point x="923.3157894736843" y="0.0" type="curve"/>
      <point x="1273.2105263157894" y="0.0" type="line"/>
      <point x="1305.578947368421" y="150.57894736842104"/>
      <point x="1332.3157894736842" y="277.5263157894737"/>
      <point x="1371.578947368421" y="461.3157894736842" type="curve"/>
      <point x="1474.842105263158" y="947.6315789473684" type="line"/>
      <point x="1514.4736842105262" y="1135.421052631579"/>
      <point x="1542.842105263158" y="1269.6315789473686"/>
      <point x="1576.842105263158" y="1426.0" type="curve"/>
      <point x="1191.4210526315792" y="1426.0" type="line"/>
      <point x="1157.4210526315792" y="1269.6315789473686"/>
      <point x="1129.0526315789475" y="1135.421052631579"/>
      <point x="1089.4210526315792" y="947.6315789473684" type="curve"/>
      <point x="1027.2631578947369" y="655.3157894736842" type="line"/>
      <point x="998.0526315789474" y="655.3157894736842" type="line"/>
      <point x="872.2105263157895" y="951.4210526315788" type="line"/>
      <point x="808.2105263157895" y="1099.3684210526317"/>
      <point x="743.1052631578947" y="1252.421052631579"/>
      <point x="672.0" y="1426.0" type="curve"/>
      <point x="311.9473684210526" y="1426.0" type="line"/>
      <point x="277.9473684210526" y="1269.6315789473686"/>
      <point x="249.57894736842104" y="1135.421052631579"/>
      <point x="209.94736842105263" y="947.6315789473684" type="curve"/>
      <point x="106.6842105263158" y="461.3157894736842" type="line"/>
      <point x="67.42105263157895" y="277.5263157894737"/>
      <point x="40.684210526315795" y="150.57894736842104"/>
    </contour>
  </outline>
</glyph>
<glyph name="O" format="2">
  <advance width="1624.9473684210527"/>
  <unicode hex="004F"/>
  <anchor x="707.8421052631578" y="0.0" name="bottom"/>
  <anchor x="857.8421052631578" y="714.0" name="center"/>
  <anchor x="1019.3684210526317" y="0.0" name="ogonek"/>
  <anchor x="1007.8421052631578" y="1426.0" name="top"/>
  <anchor x="243.8421052631579" y="1426.0" name="topleft"/>
  <anchor x="1585.2631578947369" y="1426.0" name="topright"/>
  <outline>
    <contour>
      <point x="801.1052631578948" y="-29.421052631578945" type="curve" smooth="yes"/>
      <point x="1234.2105263157894" y="-29.421052631578945"/>
      <point x="1508.7894736842106" y="238.73684210526315"/>
      <point x="1592.0526315789475" y="627.7894736842105" type="curve" smooth="yes"/>
      <point x="1687.6842105263158" y="1072.6842105263158"/>
      <point x="1442.578947368421" y="1456.5263157894738"/>
      <point x="916.7894736842105" y="1456.5263157894738" type="curve" smooth="yes"/>
      <point x="482.2105263157895" y="1456.5263157894738"/>
      <point x="206.89473684210526" y="1203.7894736842104"/>
      <point x="122.15789473684211" y="802.3157894736842" type="curve" smooth="yes"/>
      <point x="30.157894736842106" y="366.6842105263158"/>
      <point x="257.5263157894737" y="-29.421052631578945"/>
    </contour>
    <contour>
      <point x="807.6315789473684" y="305.7894736842105" type="curve"/>
      <point x="599.578947368421" y="305.7894736842105"/>
      <point x="488.10526315789474" y="510.10526315789474"/>
      <point x="540.2105263157895" y="751.1578947368421" type="curve" smooth="yes"/>
      <point x="586.4736842105264" y="967.0"/>
      <point x="717.6842105263157" y="1121.3157894736842"/>
      <point x="911.8947368421053" y="1121.3157894736842" type="curve"/>
      <point x="1127.0" y="1121.3157894736842"/>
      <point x="1220.842105263158" y="906.7894736842105"/>
      <point x="1170.7368421052631" y="671.1578947368421" type="curve" smooth="yes"/>
      <point x="1124.6842105263158" y="451.78947368421046"/>
      <point x="993.8421052631579" y="305.7894736842105"/>
    </contour>
  </outline>
</glyph>
<glyph name="P" format="2">
  <advance width="1322.8932038834953"/>
  <unicode hex="0050"/>
  <outline>
    <contour>
      <point x="778.8155339805826" y="462.0194174757281" type="curve"/>
      <point x="1135.0485436893205" y="462.0194174757281"/>
      <point x="1296.8155339805824" y="611.9805825242719"/>
      <point x="1358.7766990291261" y="907.1067961165049" type="curve" smooth="yes"/>
      <point x="1435.3398058252428" y="1268.601941747573"/>
      <point x="1264.1747572815534" y="1426.0"/>
      <point x="905.0485436893204" y="1426.0" type="curve"/>
      <point x="638.0388349514561" y="1426.0"/>
      <point x="425.06796116504853" y="1426.0"/>
      <point x="311.7864077669903" y="1426.0" type="curve"/>
      <point x="620.5825242718447" y="1110.3689320388348" type="line"/>
      <point x="816.0776699029127" y="1110.3689320388348" type="line" smooth="yes"/>
      <point x="901.7864077669904" y="1110.3689320388348"/>
      <point x="969.7669902912621" y="1052.4077669902913"/>
      <point x="942.2912621359225" y="923.0679611650486" type="curve" smooth="yes"/>
      <point x="916.8543689320389" y="802.6019417475729"/>
      <point x="863.8640776699029" y="760.4854368932039"/>
      <point x="740.3689320388349" y="760.4854368932039" type="curve" smooth="yes"/>
      <point x="525.7864077669902" y="760.4854368932039" type="line"/>
      <point x="463.30097087378635" y="462.0194174757281" type="line"/>
      <point x="541.3009708737864" y="462.0194174757281"/>
      <point x="680.1359223300971" y="462.0194174757281"/>
    </contour>
    <contour>
      <point x="8.466019417475742" y="0.0" type="curve"/>
      <point x="412.9902912621359" y="0.0" type="line"/>
      <point x="445.6699029126213" y="150.71844660194174"/>
      <point x="472.34951456310677" y="277.4368932038835"/>
      <point x="511.66990291262135" y="461.3980582524272" type="curve"/>
      <point x="600.3883495145631" y="882.2718446601941" type="line"/>
      <point x="639.7087378640776" y="1068.8737864077668"/>
      <point x="669.0291262135922" y="1204.2330097087379"/>
      <point x="701.7087378640776" y="1359.5922330097087" type="curve"/>
      <point x="311.7864077669903" y="1426.0" type="line"/>
      <point x="277.7864077669903" y="1269.3203883495146"/>
      <point x="249.7864077669903" y="1135.2815533980581"/>
      <point x="209.78640776699032" y="947.3203883495146" type="curve"/>
      <point x="106.46601941747574" y="461.3980582524272" type="line"/>
      <point x="67.14563106796119" y="277.4368932038835"/>
      <point x="41.145631067961176" y="150.71844660194174"/>
    </contour>
  </outline>
</glyph>
<glyph name="R" format="2">
  <advance width="1407.5533980582522"/>
  <unicode hex="0052"/>
  <anchor x="595.1067961165047" y="0.0" name="bottom"/>
  <anchor x="868.6990291262135" y="1426.0" name="top"/>
  <outline>
    <contour>
      <point x="821.6310679611652" y="0.0" type="curve"/>
      <point x="1276.6796116504854" y="0.0" type="line"/>
      <point x="1233.2038834951456" y="110.0"/>
      <point x="1163.6893203883494" y="285.28155339805824"/>
      <point x="1109.5339805825242" y="418.6019417475728" type="curve"/>
      <point x="991.864077669903" y="707.8834951456312" type="line"/>
      <point x="801.3203883495146" y="572.8349514563107" type="line"/>
      <point x="1144.2330097087379" y="572.1553398058252"/>
      <point x="1311.3592233009708" y="689.0679611650485"/>
      <point x="1365.9999999999998" y="946.3106796116505" type="curve" smooth="yes"/>
      <point x="1433.9223300970873" y="1271.2427184466019"/>
      <point x="1250.7961165048544" y="1426.0"/>
      <point x="889.0291262135922" y="1426.0" type="curve"/>
      <point x="680.4271844660193" y="1426.0"/>
      <point x="446.97087378640776" y="1426.0"/>
      <point x="311.12621359223306" y="1426.0" type="curve"/>
      <point x="521.0291262135922" y="1111.6893203883494" type="line"/>
      <point x="807.3786407766991" y="1111.6893203883494" type="line" smooth="yes"/>
      <point x="894.4077669902914" y="1111.6893203883494"/>
      <point x="961.7087378640776" y="1060.4077669902913"/>
      <point x="936.2330097087378" y="940.3883495145633" type="curve" smooth="yes"/>
      <point x="908.1165048543689" y="809.8446601941748"/>
      <point x="841.8446601941748" y="779.0097087378641"/>
      <point x="734.2718446601942" y="779.0097087378641" type="curve" smooth="yes"/>
      <point x="503.8446601941747" y="779.0097087378641" type="line"/>
      <point x="447.96116504854365" y="513.5533980582525" type="line"/>
      <point x="797.8834951456311" y="513.5533980582525" type="line"/>
      <point x="588.6601941747573" y="689.8834951456311" type="line"/>
      <point x="718.4077669902913" y="296.2718446601942" type="line"/>
      <point x="751.9223300970874" y="201.51456310679612"/>
      <point x="784.7572815533981" y="106.75728155339806"/>
    </contour>
    <contour>
      <point x="9.126213592233025" y="0.0" type="curve"/>
      <point x="413.65048543689323" y="0.0" type="line"/>
      <point x="446.33009708737865" y="150.71844660194174"/>
      <point x="473.00970873786406" y="277.4368932038835"/>
      <point x="512.3300970873787" y="461.3980582524272" type="curve"/>
      <point x="601.0485436893204" y="882.2718446601941" type="line"/>
      <point x="640.3689320388349" y="1068.8737864077668"/>
      <point x="669.6893203883495" y="1204.2330097087379"/>
      <point x="702.3689320388349" y="1359.5922330097087" type="curve"/>
      <point x="312.4466019417476" y="1426.0" type="line"/>
      <point x="278.4466019417476" y="1269.3203883495146"/>
      <point x="250.4466019417476" y="1135.2815533980581"/>
      <point x="210.4466019417476" y="947.3203883495146" type="curve"/>
      <point x="107.12621359223301" y="461.3980582524272" type="line"/>
      <point x="67.80582524271847" y="277.4368932038835"/>
      <point x="41.80582524271846" y="150.71844660194174"/>
    </contour>
  </outline>
</glyph>
<glyph name="S" format="2">
  <advance width="1217.0485436893205"/>
  <unicode hex="0053"/>
  <anchor x="504.5631067961166" y="0.0" name="bottom"/>
  <anchor x="804.5631067961166" y="1426.0" name="top"/>
  <outline>
    <contour>
      <point x="551.2815533980583" y="-29.28155339805825" type="curve" smooth="yes"/>
      <point x="918.9320388349514" y="-29.28155339805825"/>
      <point x="1083.5339805825242" y="85.4368932038835"/>
      <point x="1142.135922330097" y="365.12621359223306" type="curve" smooth="yes"/>
      <point x="1188.0970873786407" y="584.2912621359224"/>
      <point x="1103.4563106796115" y="715.6893203883495"/>
      <point x="803.3786407766991" y="837.0873786407767" type="curve" smooth="yes"/>
      <point x="647.5145631067961" y="901.3203883495146"/>
      <point x="594.0388349514562" y="957.4368932038835"/>
      <point x="609.4757281553398" y="1031.2233009708739" type="curve" smooth="yes"/>
      <point x="624.9126213592232" y="1103.0097087378642"/>
      <point x="698.7378640776699" y="1126.4077669902913"/>
      <point x="786.4466019417475" y="1126.4077669902913" type="curve"/>
      <point x="871.2427184466021" y="1126.4077669902913"/>
      <point x="1053.8446601941748" y="1082.368932038835"/>
      <point x="1167.0873786407765" y="995.0485436893205" type="curve"/>
      <point x="1268.7766990291263" y="1326.6407766990292" type="line"/>
      <point x="1155.6504854368932" y="1396.5631067961167"/>
      <point x="930.5242718446602" y="1456.6407766990292"/>
      <point x="730.6796116504855" y="1456.6407766990292" type="curve" smooth="yes"/>
      <point x="394.9902912621359" y="1456.6407766990292"/>
      <point x="235.63106796116506" y="1328.7184466019419"/>
      <point x="184.3495145631068" y="1080.3106796116506" type="curve" smooth="yes"/>
      <point x="129.747572815534" y="816.6601941747573"/>
      <point x="258.3106796116505" y="688.5436893203884"/>
      <point x="493.2233009708738" y="593.747572815534" type="curve" smooth="yes"/>
      <point x="645.6116504854368" y="532.2330097087378"/>
      <point x="733.126213592233" y="478.7572815533981"/>
      <point x="715.6893203883494" y="398.97087378640776" type="curve" smooth="yes"/>
      <point x="698.2135922330096" y="321.0291262135922"/>
      <point x="639.6699029126213" y="294.9902912621359"/>
      <point x="534.0388349514562" y="294.9902912621359" type="curve"/>
      <point x="384.4854368932039" y="294.9902912621359"/>
      <point x="224.60194174757282" y="351.66990291262135"/>
      <point x="99.32038834951456" y="438.9902912621359" type="curve"/>
      <point x="1.631067961165047" y="95.47572815533981" type="line"/>
      <point x="98.23300970873785" y="29.475728155339812"/>
      <point x="333.24271844660194" y="-29.28155339805825"/>
    </contour>
  </outline>
</glyph>
<glyph name="T" format="2">
  <advance width="1296.842105263158"/>
  <unicode hex="0054"/>
  <anchor x="545.7894736842105" y="0.0" name="bottom"/>
  <anchor x="674.578947368421" y="619.3684210526316" name="center"/>
  <anchor x="845.7894736842105" y="1426.0" name="top"/>
  <outline>
    <contour>
      <point x="335.94736842105266" y="0.0" type="curve"/>
      <point x="747.4736842105262" y="0.0" type="line"/>
      <point x="779.8421052631579" y="150.57894736842104"/>
      <point x="806.578947368421" y="277.5263157894737"/>
      <point x="845.8421052631579" y="461.3157894736842" type="curve"/>
      <point x="936.0526315789474" y="882.0" type="line"/>
      <point x="975.3157894736842" y="1069.0526315789473"/>
      <point x="1005.3157894736842" y="1204.157894736842"/>
      <point x="1037.6842105263158" y="1359.6315789473683" type="curve"/>
      <point x="1051.1052631578948" y="1426.0" type="line"/>
      <point x="639.578947368421" y="1426.0" type="line"/>
      <point x="626.1578947368421" y="1359.6315789473683" type="line"/>
      <point x="593.7894736842105" y="1204.157894736842"/>
      <point x="563.7894736842105" y="1069.0526315789473"/>
      <point x="524.5263157894738" y="882.0" type="curve"/>
      <point x="434.3157894736842" y="461.3157894736842" type="line"/>
      <point x="395.0526315789474" y="277.5263157894737"/>
      <point x="368.3157894736842" y="150.57894736842104"/>
    </contour>
    <contour>
      <point x="167.5263157894737" y="1068.6842105263158" type="line"/>
      <point x="267.57894736842104" y="1068.6842105263158"/>
      <point x="373.63157894736844" y="1068.6842105263158"/>
      <point x="519.1578947368421" y="1068.6842105263158" type="curve"/>
      <point x="633.578947368421" y="1068.6842105263158" type="line"/>
      <point x="707.9473684210526" y="1426.0" type="line"/>
      <point x="241.8947368421053" y="1426.0" type="line"/>
    </contour>
    <contour>
      <point x="907.2631578947369" y="1068.6842105263158" type="line"/>
      <point x="1021.6842105263158" y="1068.6842105263158" type="line"/>
      <point x="1167.2105263157894" y="1068.6842105263158"/>
      <point x="1271.6315789473686" y="1068.6842105263158"/>
      <point x="1371.6842105263158" y="1068.6842105263158" type="curve"/>
      <point x="1447.6842105263158" y="1426.0" type="line"/>
      <point x="981.6315789473684" y="1426.0" type="line"/>
    </contour>
  </outline>
</glyph>
<glyph name="U" format="2">
  <advance width="1454.2105263157894"/>
  <unicode hex="0055"/>
  <anchor x="623.4736842105262" y="0.0" name="bottom"/>
  <anchor x="907.4210526315788" y="0.0" name="ogonek"/>
  <anchor x="923.4736842105262" y="1426.0" name="top"/>
  <anchor x="1616.421052631579" y="1426.0" name="topright"/>
  <outline>
    <contour>
      <point x="660.7368421052631" y="-29.421052631578945" type="curve" smooth="yes"/>
      <point x="1118.6842105263156" y="-29.421052631578945"/>
      <point x="1281.9473684210527" y="189.84210526315792"/>
      <point x="1349.7368421052631" y="501.36842105263156" type="curve" smooth="yes"/>
      <point x="1366.4736842105262" y="579.421052631579"/>
      <point x="1408.4736842105262" y="777.2105263157895"/>
      <point x="1443.578947368421" y="947.6315789473684" type="curve"/>
      <point x="1483.2105263157894" y="1135.421052631579"/>
      <point x="1511.578947368421" y="1271.2631578947369"/>
      <point x="1543.9473684210527" y="1426.0" type="curve"/>
      <point x="1132.4210526315792" y="1426.0" type="line"/>
      <point x="1100.0526315789475" y="1271.2631578947369"/>
      <point x="1070.0526315789475" y="1133.7894736842106"/>
      <point x="1030.4210526315792" y="947.6315789473684" type="curve"/>
      <point x="948.7368421052632" y="560.8947368421052" type="line" smooth="yes"/>
      <point x="915.578947368421" y="401.6842105263158"/>
      <point x="843.0526315789473" y="305.7894736842105"/>
      <point x="692.1052631578947" y="305.7894736842105" type="curve"/>
      <point x="546.9473684210527" y="305.7894736842105"/>
      <point x="501.1578947368421" y="427.2105263157895"/>
      <point x="538.6842105263158" y="600.4736842105264" type="curve" smooth="yes"/>
      <point x="612.1578947368421" y="947.6315789473684" type="line"/>
      <point x="651.7894736842105" y="1135.421052631579"/>
      <point x="680.1578947368421" y="1269.6315789473686"/>
      <point x="714.1578947368421" y="1426.0" type="curve"/>
      <point x="302.63157894736844" y="1426.0" type="line"/>
      <point x="268.63157894736844" y="1269.6315789473686"/>
      <point x="240.26315789473685" y="1135.421052631579"/>
      <point x="200.63157894736844" y="947.6315789473684" type="curve"/>
      <point x="171.89473684210526" y="816.8421052631579"/>
      <point x="143.1578947368421" y="685.0"/>
      <point x="128.42105263157896" y="615.6842105263158" type="curve" smooth="yes"/>
      <point x="51.00000000000001" y="253.47368421052633"/>
      <point x="201.31578947368422" y="-29.421052631578945"/>
    </contour>
  </outline>
</glyph>
<glyph name="V" format="2">
  <advance width="1446.9473684210527"/>
  <unicode hex="0056"/>
  <anchor x="619.8421052631579" y="0.0" name="bottom"/>
  <anchor x="919.8421052631579" y="1426.0" name="top"/>
  <outline>
    <contour>
      <point x="341.2631578947368" y="0.0" type="curve"/>
      <point x="892.4736842105262" y="0.0" type="line"/>
      <point x="964.1578947368422" y="141.10526315789474"/>
      <point x="1048.2105263157896" y="312.2105263157895"/>
      <point x="1118.421052631579" y="452.3684210526316" type="curve"/>
      <point x="1342.0" y="900.0" type="line"/>
      <point x="1419.3157894736844" y="1055.6315789473683"/>
      <point x="1518.1052631578948" y="1252.7368421052631"/>
      <point x="1603.7894736842106" y="1426.0" type="curve"/>
      <point x="1131.6842105263158" y="1426.0" type="line"/>
      <point x="1058.578947368421" y="1252.3684210526314"/>
      <point x="980.3684210526316" y="1064.0"/>
      <point x="911.6315789473684" y="895.4736842105264" type="curve"/>
      <point x="710.3684210526316" y="416.2631578947368" type="line"/>
      <point x="682.0526315789474" y="416.2631578947368" type="line"/>
      <point x="675.0" y="893.1052631578948" type="line"/>
      <point x="673.7894736842105" y="1060.3684210526314"/>
      <point x="671.4736842105264" y="1258.7368421052631"/>
      <point x="668.6315789473683" y="1426.0" type="curve"/>
      <point x="235.5263157894737" y="1426.0" type="line"/>
      <point x="247.94736842105263" y="1257.2631578947369"/>
      <point x="263.10526315789474" y="1052.8947368421052"/>
      <point x="274.7894736842105" y="899.6315789473684" type="curve"/>
      <point x="307.8421052631579" y="452.36842105263156" type="line"/>
      <point x="317.52631578947364" y="314.36842105263156"/>
      <point x="331.57894736842104" y="142.0"/>
    </contour>
  </outline>
</glyph>
<glyph name="W" format="2">
  <advance width="2123.6315789473683"/>
  <unicode hex="0057"/>
  <anchor x="946.2105263157895" y="0.0" name="bottom"/>
  <anchor x="1246.2105263157896" y="1426.0" name="top"/>
  <outline>
    <contour>
      <point x="290.3157894736842" y="0.0" type="curve"/>
      <point x="761.0526315789473" y="0.0" type="line"/>
      <point x="815.578947368421" y="135.1578947368421"/>
      <point x="882.3157894736843" y="301.63157894736844"/>
      <point x="936.8421052631579" y="436.7894736842105" type="curve"/>
      <point x="1094.9473684210527" y="831.6842105263158" type="line"/>
      <point x="1123.2631578947369" y="831.6842105263158" type="line"/>
      <point x="1120.157894736842" y="436.7894736842105" type="line"/>
      <point x="1118.578947368421" y="300.0"/>
      <point x="1117.7368421052631" y="137.52631578947367"/>
      <point x="1118.157894736842" y="0.0" type="curve"/>
      <point x="1620.2631578947367" y="0.0" type="line"/>
      <point x="1683.7368421052631" y="137.6315789473684"/>
      <point x="1763.578947368421" y="308.36842105263156"/>
      <point x="1829.421052631579" y="450.36842105263156" type="curve"/>
      <point x="2038.2105263157896" y="900.0" type="line"/>
      <point x="2110.421052631579" y="1056.7368421052631"/>
      <point x="2203.894736842105" y="1257.2631578947367"/>
      <point x="2282.105263157895" y="1426.0" type="curve"/>
      <point x="1805.4736842105265" y="1426.0" type="line"/>
      <point x="1748.2105263157896" y="1270.157894736842"/>
      <point x="1682.3684210526314" y="1089.3684210526317"/>
      <point x="1625.4736842105265" y="934.2631578947369" type="curve"/>
      <point x="1462.2631578947369" y="490.05263157894734" type="line"/>
      <point x="1433.9473684210527" y="490.05263157894734" type="line"/>
      <point x="1446.842105263158" y="931.0" type="line"/>
      <point x="1451.3157894736842" y="1089.578947368421"/>
      <point x="1455.7894736842106" y="1267.0526315789473"/>
      <point x="1460.2631578947369" y="1426.0" type="curve"/>
      <point x="1029.0526315789473" y="1426.0" type="line"/>
      <point x="971.2631578947369" y="1272.8947368421054"/>
      <point x="898.8947368421052" y="1085.7368421052631"/>
      <point x="841.4736842105262" y="934.6315789473684" type="curve"/>
      <point x="671.578947368421" y="490.05263157894734" type="line"/>
      <point x="643.2631578947368" y="490.05263157894734" type="line"/>
      <point x="664.8421052631578" y="928.421052631579" type="line"/>
      <point x="672.2105263157895" y="1086.2631578947369"/>
      <point x="682.1052631578947" y="1268.157894736842"/>
      <point x="689.4736842105264" y="1426.0" type="curve"/>
      <point x="230.63157894736844" y="1426.0" type="line"/>
      <point x="236.8421052631579" y="1258.0"/>
      <point x="247.05263157894737" y="1056.8947368421052"/>
      <point x="253.26315789473685" y="898.1578947368422" type="curve"/>
      <point x="270.7894736842106" y="450.0" type="line"/>
      <point x="276.63157894736844" y="310.36842105263156"/>
      <point x="284.47368421052636" y="140.3684210526316"/>
    </contour>
  </outline>
</glyph>
<glyph name="X" format="2">
  <advance width="1454.842105263158"/>
  <unicode hex="0058"/>
  <outline>
    <contour>
      <point x="-61.68421052631579" y="0.0" type="curve"/>
      <point x="430.57894736842104" y="0.0" type="line"/>
      <point x="488.05263157894734" y="95.94736842105263"/>
      <point x="538.578947368421" y="177.68421052631578"/>
      <point x="588.5789473684209" y="262.5263157894737" type="curve"/>
      <point x="708.2631578947369" y="461.1578947368421" type="line"/>
      <point x="736.578947368421" y="461.1578947368421" type="line"/>
      <point x="784.5263157894736" y="262.89473684210526" type="line"/>
      <point x="804.1052631578947" y="182.78947368421052"/>
      <point x="824.7894736842106" y="95.57894736842105"/>
      <point x="848.2105263157895" y="0.0" type="curve"/>
      <point x="1310.157894736842" y="0.0" type="line"/>
      <point x="1257.8947368421054" y="150.0"/>
      <point x="1210.3684210526317" y="285.63157894736844"/>
      <point x="1156.1052631578948" y="439.63157894736844" type="curve"/>
      <point x="1047.5789473684213" y="752.8947368421053" type="line"/>
      <point x="1026.8947368421054" y="648.7368421052631" type="line"/>
      <point x="1270.8421052631577" y="995.7368421052631" type="line"/>
      <point x="1356.8947368421052" y="1117.8947368421052"/>
      <point x="1461.3157894736844" y="1265.3157894736842"/>
      <point x="1573.7368421052633" y="1426.0" type="curve"/>
      <point x="1088.0" y="1426.0" type="line"/>
      <point x="1027.6315789473686" y="1324.2631578947369"/>
      <point x="968.5263157894736" y="1225.0526315789473"/>
      <point x="914.8947368421053" y="1135.3157894736842" type="curve"/>
      <point x="813.1052631578947" y="964.2105263157895" type="line"/>
      <point x="784.7894736842105" y="964.2105263157895" type="line"/>
      <point x="744.7368421052632" y="1134.578947368421" type="line"/>
      <point x="725.1578947368421" y="1223.9473684210525"/>
      <point x="700.4736842105264" y="1323.157894736842"/>
      <point x="677.421052631579" y="1426.0" type="curve"/>
      <point x="233.42105263157896" y="1426.0" type="line"/>
      <point x="286.05263157894734" y="1262.7368421052631"/>
      <point x="327.94736842105266" y="1125.4736842105262"/>
      <point x="371.4736842105263" y="990.2105263157895" type="curve"/>
      <point x="465.63157894736844" y="693.6842105263158" type="line"/>
      <point x="487.94736842105266" y="789.6842105263158" type="line"/>
      <point x="233.05263157894737" y="424.10526315789474" type="line"/>
      <point x="127.52631578947368" y="271.94736842105266"/>
      <point x="32.36842105263158" y="135.42105263157896"/>
    </contour>
  </outline>
</glyph>
<glyph name="Y" format="2">
  <advance width="1395.0526315789473"/>
  <unicode hex="0059"/>
  <anchor x="597.7894736842105" y="0.0" name="bottom"/>
  <anchor x="901.0526315789474" y="1426.0" name="top"/>
  <anchor x="232.73684210526315" y="1426.0" name="topleft"/>
  <outline>
    <contour>
      <point x="520.8421052631578" y="472.7368421052632" type="line"/>
      <point x="882.6842105263158" y="472.7368421052632" type="line"/>
      <point x="1293.4736842105262" y="1051.421052631579" type="line"/>
      <point x="1378.578947368421" y="1171.7368421052631"/>
      <point x="1469.3157894736842" y="1299.6842105263158"/>
      <point x="1558.421052631579" y="1426.0" type="curve"/>
      <point x="1071.0526315789475" y="1426.0" type="line"/>
      <point x="990.578947368421" y="1277.6315789473683"/>
      <point x="949.5263157894736" y="1204.6315789473683"/>
      <point x="883.4736842105264" y="1081.578947368421" type="curve"/>
      <point x="783.8421052631579" y="898.2631578947369" type="line"/>
      <point x="757.1578947368421" y="898.2631578947369" type="line"/>
      <point x="726.0" y="1085.0526315789473" type="line"/>
      <point x="706.578947368421" y="1203.3684210526317"/>
      <point x="695.2105263157895" y="1276.0"/>
      <point x="670.1052631578947" y="1426.0" type="curve"/>
      <point x="234.63157894736844" y="1426.0" type="line"/>
      <point x="279.2105263157895" y="1278.421052631579"/>
      <point x="309.0526315789474" y="1177.0"/>
      <point x="346.89473684210526" y="1051.421052631579" type="curve"/>
    </contour>
    <contour>
      <point x="387.94736842105266" y="0.0" type="curve"/>
      <point x="802.7368421052631" y="0.0" type="line"/>
      <point x="835.1052631578947" y="150.57894736842104"/>
      <point x="861.8421052631579" y="277.5263157894737"/>
      <point x="901.1052631578947" y="461.3157894736842" type="curve"/>
      <point x="976.6315789473684" y="820.0526315789474" type="line"/>
      <point x="561.8421052631579" y="820.0526315789474" type="line"/>
      <point x="486.3157894736842" y="461.3157894736842" type="line"/>
      <point x="447.0526315789474" y="277.5263157894737"/>
      <point x="420.3157894736842" y="150.57894736842104"/>
    </contour>
  </outline>
</glyph>
<glyph name="Z" format="2">
  <advance width="1391.421052631579"/>
  <unicode hex="005A"/>
  <anchor x="590.2631578947368" y="0.0" name="bottom"/>
  <anchor x="740.2631578947368" y="714.0" name="center"/>
  <anchor x="890.2631578947368" y="1426.0" name="top"/>
  <outline>
    <contour>
      <point x="-36.42105263157894" y="0.0" type="line"/>
      <point x="1214.7368421052633" y="0.0" type="line"/>
      <point x="1285.842105263158" y="339.36842105263156" type="line"/>
      <point x="1155.157894736842" y="339.36842105263156"/>
      <point x="946.2105263157895" y="339.36842105263156"/>
      <point x="802.421052631579" y="339.36842105263156" type="curve"/>
      <point x="502.10526315789474" y="339.36842105263156" type="line"/>
      <point x="535.8947368421052" y="215.57894736842104" type="line"/>
      <point x="1093.157894736842" y="787.7894736842105" type="line"/>
      <point x="1207.3157894736842" y="907.9473684210526"/>
      <point x="1324.0" y="1028.1052631578948"/>
      <point x="1444.5263157894738" y="1152.6315789473683" type="curve"/>
      <point x="1502.2105263157896" y="1426.0" type="line"/>
      <point x="287.0" y="1426.0" type="line"/>
      <point x="215.8947368421053" y="1086.6315789473683" type="line"/>
      <point x="380.7894736842105" y="1086.6315789473683"/>
      <point x="536.578947368421" y="1086.6315789473683"/>
      <point x="673.2631578947369" y="1086.6315789473683" type="curve"/>
      <point x="1005.0526315789473" y="1086.6315789473683" type="line"/>
      <point x="959.0526315789474" y="1207.4736842105262" type="line"/>
      <point x="411.36842105263156" y="635.0526315789474" type="line"/>
      <point x="291.05263157894734" y="508.7368421052632"/>
      <point x="121.42105263157893" y="329.10526315789474"/>
      <point x="7.842105263157897" y="211.52631578947367" type="curve"/>
    </contour>
  </outline>
</glyph>
<glyph name="bracketleft" format="2">
  <advance width="853.1578947368421"/>
  <unicode hex="005B"/>
  <outline>
    <contour>
      <point x="-27.526315789473664" y="-253.3684210526316" type="curve"/>
      <point x="310.2105263157895" y="-253.3684210526316" type="line"/>
      <point x="323.2631578947368" y="-186.6315789473684" type="line"/>
      <point x="355.6315789473684" y="-32.78947368421053"/>
      <point x="382.36842105263156" y="94.52631578947368"/>
      <point x="420.0" y="274.6842105263158" type="curve"/>
      <point x="575.8421052631579" y="1013.5263157894736" type="line"/>
      <point x="615.1052631578947" y="1200.578947368421"/>
      <point x="643.4736842105262" y="1335.6842105263158"/>
      <point x="675.8421052631579" y="1491.157894736842" type="curve"/>
      <point x="690.8947368421052" y="1557.5263157894738" type="line"/>
      <point x="353.15789473684214" y="1557.5263157894738" type="line"/>
      <point x="320.7894736842105" y="1402.0526315789473"/>
      <point x="292.42105263157896" y="1266.578947368421"/>
      <point x="253.1578947368421" y="1079.8947368421052" type="curve"/>
      <point x="69.2105263157895" y="207.94736842105263" type="line"/>
      <point x="31.57894736842107" y="27.789473684210524"/>
      <point x="3.210526315789492" y="-102.78947368421052"/>
    </contour>
    <contour>
      <point x="265.57894736842104" y="-253.3684210526316" type="line"/>
      <point x="642.0" y="-253.3684210526316" type="line"/>
      <point x="702.9473684210526" y="39.94736842105263" type="line"/>
      <point x="616.3684210526316" y="39.94736842105263"/>
      <point x="527.0526315789474" y="39.94736842105263"/>
      <point x="424.1052631578947" y="39.94736842105263" type="curve"/>
      <point x="326.52631578947364" y="39.94736842105263" type="line"/>
    </contour>
    <contour>
      <point x="557.578947368421" y="1264.2105263157896" type="line"/>
      <point x="662.2105263157895" y="1264.2105263157896" type="line"/>
      <point x="785.8947368421052" y="1264.2105263157896"/>
      <point x="872.1052631578947" y="1264.2105263157896"/>
      <point x="952.3157894736842" y="1264.2105263157896" type="curve"/>
      <point x="1014.8947368421052" y="1557.5263157894738" type="line"/>
      <point x="620.1578947368421" y="1557.5263157894738" type="line"/>
    </contour>
  </outline>
</glyph>
<glyph name="backslash" format="2">
  <advance width="918.421052631579"/>
  <unicode hex="005C"/>
  <outline>
    <contour>
      <point x="463.57894736842104" y="0.0" type="curve"/>
      <point x="796.421052631579" y="0.0" type="line"/>
      <point x="770.2105263157895" y="147.6315789473684"/>
      <point x="747.9999999999999" y="274.0"/>
      <point x="716.6842105263158" y="456.0" type="curve"/>
      <point x="628.9473684210526" y="951.6315789473684" type="line"/>
      <point x="595.6315789473684" y="1140.7368421052633"/>
      <point x="571.7894736842105" y="1272.0"/>
      <point x="545.2105263157895" y="1426.0" type="curve"/>
      <point x="210.73684210526318" y="1426.0" type="line"/>
      <point x="238.94736842105263" y="1270.3684210526317"/>
      <point x="261.1578947368421" y="1140.7368421052631"/>
      <point x="296.10526315789474" y="948.3684210526316" type="curve"/>
      <point x="382.2105263157894" y="456.0" type="line"/>
      <point x="415.15789473684214" y="274.0"/>
      <point x="437.3684210526316" y="146.0"/>
    </contour>
  </outline>
</glyph>
<glyph name="asciicircum" format="2">
  <advance width="1290.9473684210527"/>
  <unicode hex="005E"/>
  <outline>
    <contour>
      <point x="939.3684210526316" y="698.2631578947369" type="curve"/>
      <point x="1250.4736842105262" y="701.8947368421052" type="line"/>
      <point x="1170.7894736842104" y="928.1578947368421"/>
      <point x="1092.7368421052633" y="1151.5263157894738"/>
      <point x="1013.0526315789473" y="1377.7894736842106" type="curve"/>
      <point x="580.0526315789474" y="1377.7894736842106" type="line"/>
      <point x="431.2631578947369" y="1157.157894736842"/>
      <point x="277.94736842105266" y="928.7368421052631"/>
      <point x="127.3157894736842" y="705.8947368421052" type="curve"/>
      <point x="474.8947368421053" y="705.8947368421052" type="line"/>
      <point x="567.6315789473683" y="825.6842105263158"/>
      <point x="658.7368421052631" y="942.578947368421"/>
      <point x="751.4736842105262" y="1062.3684210526317" type="curve"/>
      <point x="778.1578947368421" y="1062.3684210526317" type="line"/>
      <point x="831.8947368421053" y="940.578947368421"/>
      <point x="885.6315789473684" y="820.0526315789474"/>
    </contour>
  </outline>
</glyph>
<glyph name="underscore" format="2">
  <advance width="890.5263157894736"/>
  <unicode hex="005F"/>
  <outline>
    <contour>
      <point x="-204.05263157894737" y="-371.7894736842105" type="line"/>
      <point x="-60.31578947368422" y="-371.7894736842105"/>
      <point x="75.78947368421055" y="-371.7894736842105"/>
      <point x="194.26315789473685" y="-371.7894736842105" type="curve"/>
      <point x="328.1578947368421" y="-371.7894736842105" type="line"/>
      <point x="446.63157894736844" y="-371.7894736842105"/>
      <point x="582.7368421052631" y="-371.7894736842105"/>
      <point x="726.4736842105262" y="-371.7894736842105" type="curve"/>
      <point x="788.6842105263157" y="-71.05263157894737" type="line"/>
      <point x="644.9473684210526" y="-71.05263157894737"/>
      <point x="508.8421052631579" y="-71.05263157894737"/>
      <point x="390.36842105263156" y="-71.05263157894737" type="curve"/>
      <point x="256.4736842105263" y="-71.05263157894737" type="line"/>
      <point x="138.00000000000003" y="-71.05263157894737"/>
      <point x="1.8947368421052548" y="-71.05263157894737"/>
      <point x="-141.8421052631579" y="-71.05263157894737" type="curve"/>
    </contour>
  </outline>
</glyph>
<glyph name="a" format="2">
  <advance width="1052.0388349514562"/>
  <unicode hex="0061"/>
  <anchor x="427.3203883495145" y="0.0" name="bottom"/>
  <anchor x="863.6504854368932" y="0.0" name="ogonek"/>
  <anchor x="639.3203883495145" y="1001.2815533980582" name="top"/>
  <outline>
    <contour>
      <point x="255.2233009708738" y="-25.96116504854369" type="curve" smooth="yes"/>
      <point x="373.2621359223301" y="-25.96116504854369"/>
      <point x="463.3398058252427" y="30.601941747572816"/>
      <point x="534.0970873786408" y="139.88349514563106" type="curve"/>
      <point x="559.3786407766992" y="139.88349514563106" type="line"/>
      <point x="553.26213592233" y="0.0" type="line"/>
      <point x="863.6504854368932" y="0.0" type="line"/>
      <point x="892.2912621359224" y="135.20388349514562"/>
      <point x="916.9320388349515" y="251.0873786407767"/>
      <point x="939.5728155339806" y="356.97087378640776" type="curve"/>
      <point x="953.6504854368932" y="423.3203883495146" type="line" smooth="yes"/>
      <point x="969.0097087378641" y="492.75728155339806"/>
      <point x="982.3300970873787" y="557.4368932038835"/>
      <point x="997.6504854368933" y="628.0388349514562" type="curve" smooth="yes"/>
      <point x="1050.9708737864078" y="878.5631067961165"/>
      <point x="897.8834951456311" y="1030.5631067961165"/>
      <point x="601.3592233009708" y="1030.5631067961165" type="curve" smooth="yes"/>
      <point x="458.79611650485435" y="1030.5631067961165"/>
      <point x="298.9126213592233" y="995.8834951456311"/>
      <point x="196.99029126213594" y="965.2038834951455" type="curve"/>
      <point x="139.1844660194175" y="646.8932038834951" type="line"/>
      <point x="266.58252427184465" y="697.6116504854369"/>
      <point x="385.9029126213593" y="727.6116504854369"/>
      <point x="487.82524271844665" y="727.6116504854369" type="curve" smooth="yes"/>
      <point x="616.6990291262135" y="727.6116504854369"/>
      <point x="668.9320388349515" y="676.7766990291262"/>
      <point x="654.8155339805826" y="618.2330097087379" type="curve"/>
      <point x="361.7864077669903" y="574.7961165048544" type="line" smooth="yes"/>
      <point x="197.74757281553397" y="550.757281553398"/>
      <point x="51.70873786407767" y="492.79611650485435"/>
      <point x="11.708737864077671" y="306.79611650485435" type="curve" smooth="yes"/>
      <point x="-28.291262135922327" y="126.11650485436893"/>
      <point x="69.7864077669903" y="-25.96116504854369"/>
    </contour>
    <contour>
      <point x="448.25242718446594" y="257.74757281553394" type="curve" smooth="yes"/>
      <point x="399.2621359223301" y="257.74757281553394"/>
      <point x="359.82524271844653" y="290.58252427184465"/>
      <point x="370.5436893203883" y="350.17475728155335" type="curve" smooth="yes"/>
      <point x="381.26213592233006" y="408.4077669902913"/>
      <point x="432.09708737864077" y="427.16504854368935"/>
      <point x="486.52427184466023" y="440.5631067961165" type="curve" smooth="yes"/>
      <point x="569.8640776699028" y="459.3592233009709"/>
      <point x="596.0194174757282" y="471.3980582524272"/>
      <point x="621.4174757281553" y="494.0388349514563" type="curve"/>
      <point x="589.378640776699" y="347.12621359223306" type="line"/>
      <point x="551.0679611650486" y="291.37864077669894"/>
      <point x="502.56310679611653" y="257.74757281553394"/>
    </contour>
  </outline>
</glyph>
<glyph name="b" format="2">
  <advance width="1185.2631578947369"/>
  <unicode hex="0062"/>
  <outline>
    <contour>
      <point x="671.3157894736843" y="-29.421052631578945" type="curve" smooth="yes"/>
      <point x="905.5263157894736" y="-29.421052631578945"/>
      <point x="1062.6842105263156" y="176.47368421052633"/>
      <point x="1122.6842105263156" y="459.57894736842104" type="curve" smooth="yes"/>
      <point x="1186.3157894736842" y="762.8421052631578"/>
      <point x="1094.9473684210525" y="1030.842105263158"/>
      <point x="826.4736842105264" y="1030.842105263158" type="curve" smooth="yes"/>
      <point x="732.8947368421053" y="1030.842105263158"/>
      <point x="649.0" y="986.2105263157895"/>
      <point x="581.8947368421052" y="903.5263157894738" type="curve"/>
      <point x="553.578947368421" y="903.5263157894738" type="line"/>
      <point x="571.421052631579" y="986.3684210526316" type="line"/>
      <point x="610.6842105263158" y="1174.3157894736842"/>
      <point x="646.3157894736843" y="1340.1052631578948"/>
      <point x="678.6842105263158" y="1495.9473684210527" type="curve"/>
      <point x="300.1578947368421" y="1466.8947368421052" type="line"/>
      <point x="265.2631578947368" y="1301.6842105263158"/>
      <point x="232.52631578947367" y="1146.578947368421"/>
      <point x="198.1578947368421" y="986.3684210526316" type="curve"/>
      <point x="80.5263157894737" y="428.94736842105266" type="line"/>
      <point x="44.52631578947369" y="262.0526315789474"/>
      <point x="20.157894736842113" y="140.21052631578948"/>
      <point x="-10.210526315789465" y="0.0" type="curve"/>
      <point x="300.6842105263158" y="0.0" type="line"/>
      <point x="351.36842105263156" y="122.47368421052632" type="line"/>
      <point x="374.7894736842105" y="122.47368421052632" type="line"/>
      <point x="427.94736842105266" y="22.263157894736842"/>
      <point x="547.7894736842105" y="-29.421052631578945"/>
    </contour>
    <contour>
      <point x="558.7368421052631" y="289.10526315789474" type="curve"/>
      <point x="505.5263157894737" y="289.10526315789474"/>
      <point x="463.6842105263158" y="313.5789473684211"/>
      <point x="439.8947368421053" y="356.7894736842105" type="curve"/>
      <point x="498.5789473684211" y="636.1578947368421" type="line"/>
      <point x="533.5263157894738" y="686.3684210526316"/>
      <point x="579.3684210526317" y="717.2105263157895"/>
      <point x="631.9473684210526" y="717.2105263157895" type="curve"/>
      <point x="735.5263157894736" y="717.2105263157895"/>
      <point x="769.1578947368421" y="600.8947368421053"/>
      <point x="745.7894736842105" y="487.1578947368421" type="curve" smooth="yes"/>
      <point x="722.2631578947369" y="374.6315789473684"/>
      <point x="658.7894736842105" y="289.10526315789474"/>
    </contour>
  </outline>
</glyph>
<glyph name="c" format="2">
  <advance width="958.3157894736842"/>
  <unicode hex="0063"/>
  <anchor x="448.2631578947369" y="0.0" name="bottom"/>
  <anchor x="656.2105263157895" y="1001.0526315789474" name="top"/>
  <outline>
    <contour>
      <point x="575.2105263157895" y="-24.526315789473685" type="curve" smooth="yes"/>
      <point x="667.7894736842105" y="-24.526315789473685"/>
      <point x="748.7368421052632" y="-8.473684210526315"/>
      <point x="802.7368421052632" y="19.0" type="curve"/>
      <point x="853.3157894736843" y="339.36842105263156" type="line"/>
      <point x="790.7368421052631" y="299.5263157894737"/>
      <point x="723.9473684210526" y="279.3157894736842"/>
      <point x="650.2631578947368" y="279.3157894736842" type="curve" smooth="yes"/>
      <point x="498.63157894736844" y="279.3157894736842"/>
      <point x="402.10526315789474" y="370.6842105263158"/>
      <point x="438.7368421052631" y="530.7368421052631" type="curve" smooth="yes"/>
      <point x="467.0" y="652.421052631579"/>
      <point x="561.2631578947369" y="717.2105263157895"/>
      <point x="669.0526315789474" y="717.2105263157895" type="curve"/>
      <point x="729.2105263157895" y="717.2105263157895"/>
      <point x="812.6842105263158" y="703.8947368421052"/>
      <point x="909.9473684210526" y="636.2631578947368" type="curve"/>
      <point x="1000.4736842105264" y="954.7894736842105" type="line"/>
      <point x="896.0" y="1005.0"/>
      <point x="776.7368421052632" y="1029.2105263157894"/>
      <point x="653.1052631578947" y="1029.2105263157894" type="curve" smooth="yes"/>
      <point x="324.57894736842104" y="1029.2105263157894"/>
      <point x="122.73684210526316" y="844.1052631578947"/>
      <point x="63.47368421052632" y="563.9473684210526" type="curve" smooth="yes"/>
      <point x="-13.052631578947363" y="204.05263157894737"/>
      <point x="201.0" y="-24.526315789473685"/>
    </contour>
  </outline>
</glyph>
<glyph name="d" format="2">
  <advance width="1178.2631578947369"/>
  <unicode hex="0064"/>
  <anchor x="532.4736842105262" y="0.0" name="bottom"/>
  <anchor x="589.421052631579" y="500.5263157894737" name="center"/>
  <anchor x="839.7368421052631" y="1462.3157894736842" name="top"/>
  <anchor x="1247.8421052631577" y="1001.0526315789474" name="topright"/>
  <outline>
    <contour>
      <point x="360.42105263157896" y="-29.421052631578945" type="curve" smooth="yes"/>
      <point x="467.52631578947376" y="-29.421052631578945"/>
      <point x="569.2105263157895" y="18.210526315789473"/>
      <point x="652.6842105263158" y="127.84210526315788" type="curve"/>
      <point x="676.1052631578948" y="127.84210526315788" type="line"/>
      <point x="669.3157894736842" y="0.0" type="line"/>
      <point x="983.4736842105262" y="0.0" type="line"/>
      <point x="1013.8421052631578" y="140.21052631578948"/>
      <point x="1038.2105263157894" y="262.0526315789474"/>
      <point x="1074.2105263157894" y="428.94736842105266" type="curve"/>
      <point x="1191.842105263158" y="986.3684210526316" type="line"/>
      <point x="1231.1052631578946" y="1174.3157894736842"/>
      <point x="1266.7368421052631" y="1340.1052631578948"/>
      <point x="1299.1052631578946" y="1495.9473684210527" type="curve"/>
      <point x="920.578947368421" y="1466.8947368421052" type="line"/>
      <point x="885.6842105263158" y="1301.6842105263158"/>
      <point x="852.9473684210526" y="1146.578947368421"/>
      <point x="818.578947368421" y="986.3684210526316" type="curve"/>
      <point x="800.3684210526316" y="902.421052631579" type="line"/>
      <point x="772.0526315789473" y="902.421052631579" type="line"/>
      <point x="727.0526315789474" y="984.9473684210526"/>
      <point x="623.8947368421053" y="1030.842105263158"/>
      <point x="515.578947368421" y="1030.842105263158" type="curve" smooth="yes"/>
      <point x="281.36842105263156" y="1030.842105263158"/>
      <point x="124.21052631578948" y="824.9473684210526"/>
      <point x="64.21052631578948" y="541.8421052631579" type="curve" smooth="yes"/>
      <point x="0.210526315789473" y="238.57894736842107"/>
      <point x="91.94736842105263" y="-29.421052631578945"/>
    </contour>
    <contour>
      <point x="554.9473684210526" y="284.2105263157895" type="curve"/>
      <point x="451.36842105263156" y="284.2105263157895"/>
      <point x="417.3684210526316" y="400.52631578947364"/>
      <point x="441.1052631578948" y="514.2631578947369" type="curve" smooth="yes"/>
      <point x="464.63157894736844" y="626.7894736842105"/>
      <point x="528.1052631578948" y="712.3157894736842"/>
      <point x="628.1578947368421" y="712.3157894736842" type="curve"/>
      <point x="681.0" y="712.3157894736842"/>
      <point x="722.4736842105264" y="687.1052631578947"/>
      <point x="748.4736842105264" y="652.3684210526316" type="curve"/>
      <point x="689.421052631579" y="373.0" type="line"/>
      <point x="657.4210526315788" y="315.0526315789474"/>
      <point x="608.2631578947369" y="284.2105263157895"/>
    </contour>
  </outline>
</glyph>
<glyph name="f" format="2">
  <advance width="834.8947368421052"/>
  <unicode hex="0066"/>
  <outline>
    <contour>
      <point x="76.78947368421053" y="0.0" type="curve"/>
      <point x="450.0526315789474" y="0.0" type="line"/>
      <point x="480.421052631579" y="140.21052631578948"/>
      <point x="504.7894736842106" y="262.0526315789474"/>
      <point x="540.7894736842105" y="428.94736842105266" type="curve"/>
      <point x="649.1578947368422" y="943.6842105263158" type="line"/>
      <point x="645.3684210526316" y="1001.0526315789474" type="line"/>
      <point x="649.7368421052631" y="1018.8947368421053"/>
      <point x="655.9473684210526" y="1055.578947368421"/>
      <point x="659.7894736842105" y="1073.6842105263158" type="curve" smooth="yes"/>
      <point x="674.9473684210526" y="1150.5263157894738"/>
      <point x="721.9473684210526" y="1190.6842105263158"/>
      <point x="793.7368421052631" y="1190.6842105263158" type="curve" smooth="yes"/>
      <point x="846.3157894736842" y="1190.6842105263158"/>
      <point x="902.3157894736843" y="1175.421052631579"/>
      <point x="953.2105263157895" y="1151.421052631579" type="curve"/>
      <point x="1041.7368421052631" y="1446.7368421052631" type="line"/>
      <point x="970.8947368421053" y="1477.2631578947369"/>
      <point x="860.8421052631578" y="1496.157894736842"/>
      <point x="761.1052631578947" y="1496.157894736842" type="curve" smooth="yes"/>
      <point x="555.0" y="1496.157894736842"/>
      <point x="377.6842105263158" y="1411.7894736842106"/>
      <point x="313.0" y="1117.9473684210525" type="curve" smooth="yes"/>
      <point x="281.10526315789474" y="964.3157894736842"/>
      <point x="221.0" y="688.3157894736843"/>
      <point x="189.1578947368421" y="528.9473684210526" type="curve"/>
      <point x="167.5263157894737" y="428.94736842105266" type="line"/>
      <point x="131.5263157894737" y="262.0526315789474"/>
      <point x="107.15789473684212" y="140.21052631578948"/>
    </contour>
    <contour>
      <point x="76.57894736842107" y="724.7894736842105" type="line"/>
      <point x="335.2105263157895" y="724.7894736842105" type="line"/>
      <point x="504.578947368421" y="724.7894736842105" type="line"/>
      <point x="616.1052631578948" y="724.7894736842105"/>
      <point x="720.7368421052631" y="724.7894736842105"/>
      <point x="841.1578947368421" y="724.7894736842105" type="curve"/>
      <point x="900.4736842105264" y="1001.0526315789474" type="line"/>
      <point x="135.89473684210526" y="1001.0526315789474" type="line"/>
    </contour>
  </outline>
</glyph>
<glyph name="g" format="2">
  <advance width="1107.8446601941748"/>
  <unicode hex="0067"/>
  <anchor x="444.252427184466" y="-384.0" name="bottom"/>
  <anchor x="616.7572815533981" y="1001.2815533980582" name="top"/>
  <outline>
    <contour>
      <point x="367.88349514563106" y="-409.9611650485437" type="curve" smooth="yes"/>
      <point x="621.7281553398059" y="-409.9611650485437"/>
      <point x="886.8932038834951" y="-326.6019417475728"/>
      <point x="942.135922330097" y="-68.99029126213593" type="curve" smooth="yes"/>
      <point x="988.7378640776698" y="147.3398058252427"/>
      <point x="833.7281553398059" y="258.6990291262136"/>
      <point x="607.4174757281554" y="258.6990291262136" type="curve" smooth="yes"/>
      <point x="524.0194174757281" y="258.6990291262136" type="line" smooth="yes"/>
      <point x="473.8252427184465" y="258.6990291262136"/>
      <point x="430.9902912621359" y="270.0582524271844"/>
      <point x="437.66990291262135" y="304.13592233009706" type="curve" smooth="yes"/>
      <point x="443.6699029126213" y="332.8543689320388"/>
      <point x="493.9029126213592" y="344.97087378640776"/>
      <point x="582.9320388349515" y="357.0097087378641" type="curve" smooth="yes"/>
      <point x="751.7281553398058" y="382.36893203883494"/>
      <point x="931.6504854368933" y="447.0873786407767"/>
      <point x="971.6504854368933" y="635.3592233009707" type="curve" smooth="yes"/>
      <point x="992.9708737864078" y="735.4368932038835"/>
      <point x="970.2135922330096" y="817.5533980582524"/>
      <point x="899.3009708737864" y="891.5922330097087" type="curve"/>
      <point x="800.2912621359224" y="775.8640776699028" type="line"/>
      <point x="911.0485436893204" y="775.8640776699028"/>
      <point x="1015.1650485436893" y="775.8640776699028"/>
      <point x="1134.5631067961167" y="775.8640776699028" type="curve"/>
      <point x="1183.7669902912623" y="1007.2427184466019" type="line"/>
      <point x="878.2135922330096" y="1007.2427184466019" type="line" smooth="yes"/>
      <point x="743.7281553398057" y="1007.2427184466019"/>
      <point x="689.8058252427184" y="1030.5631067961165"/>
      <point x="518.1553398058252" y="1030.5631067961165" type="curve" smooth="yes"/>
      <point x="261.78640776699035" y="1030.5631067961165"/>
      <point x="129.66990291262135" y="902.0776699029126"/>
      <point x="96.3106796116505" y="737.9611650485436" type="curve" smooth="yes"/>
      <point x="62.271844660194176" y="573.7669902912621"/>
      <point x="149.22330097087377" y="453.8446601941748"/>
      <point x="257.70873786407765" y="386.6796116504854" type="curve"/>
      <point x="257.70873786407765" y="363.3980582524272" type="line"/>
      <point x="184.91262135922335" y="343.3980582524272"/>
      <point x="97.02912621359226" y="306.03883495145624"/>
      <point x="79.02912621359226" y="215.43689320388347" type="curve" smooth="yes"/>
      <point x="59.02912621359226" y="117.47572815533981"/>
      <point x="126.34951456310682" y="62.83495145631068"/>
      <point x="170.9126213592233" y="44.19417475728155" type="curve"/>
      <point x="170.9126213592233" y="21.59223300970874" type="line"/>
      <point x="88.99029126213594" y="8.912621359223305"/>
      <point x="-37.087378640776706" y="-31.80582524271844"/>
      <point x="-60.44660194174759" y="-139.28155339805824" type="curve" smooth="yes"/>
      <point x="-105.08737864077672" y="-342.4854368932039"/>
      <point x="139.96116504854368" y="-409.9611650485437"/>
    </contour>
    <contour>
      <point x="411.0873786407767" y="-174.50485436893206" type="curve"/>
      <point x="305.04854368932035" y="-174.50485436893206"/>
      <point x="239.22330097087377" y="-139.7864077669903"/>
      <point x="248.62135922330094" y="-94.19417475728154" type="curve" smooth="yes"/>
      <point x="260.0194174757281" y="-35.922330097087375"/>
      <point x="351.72815533980577" y="-19.126213592233007"/>
      <point x="407.3980582524273" y="-17.126213592233" type="curve"/>
      <point x="436.83495145631076" y="-17.126213592233" type="line" smooth="yes"/>
      <point x="580.0194174757281" y="-17.126213592233"/>
      <point x="602.1359223300973" y="-61.92233009708738"/>
      <point x="592.73786407767" y="-101.47572815533981" type="curve" smooth="yes"/>
      <point x="585.3786407766992" y="-135.5533980582524"/>
      <point x="519.7475728155339" y="-174.50485436893206"/>
    </contour>
    <contour>
      <point x="507.08737864077665" y="538.9320388349514" type="curve"/>
      <point x="456.13592233009706" y="558.3300970873786"/>
      <point x="409.7864077669903" y="603.1650485436893"/>
      <point x="420.54368932038835" y="658.3106796116505" type="curve" smooth="yes"/>
      <point x="431.94174757281553" y="711.3786407766991"/>
      <point x="480.25242718446606" y="738.2135922330098"/>
      <point x="540.0388349514564" y="738.2135922330098" type="curve"/>
      <point x="627.0291262135922" y="738.2135922330098"/>
      <point x="672.6990291262136" y="685.2621359223301"/>
      <point x="659.2621359223301" y="628.1165048543689" type="curve" smooth="yes"/>
      <point x="644.504854368932" y="565.0097087378641"/>
      <point x="574.757281553398" y="542.9708737864078"/>
    </contour>
  </outline>
</glyph>
<glyph name="k" format="2">
  <advance width="1184.1052631578948"/>
  <unicode hex="006B"/>
  <anchor x="489.1052631578947" y="0.0" name="bottom"/>
  <anchor x="796.3684210526316" y="1462.3157894736842" name="top"/>
  <outline>
    <contour>
      <point x="639.5263157894736" y="0.0" type="curve"/>
      <point x="1068.5263157894738" y="0.0" type="line"/>
      <point x="1001.4736842105264" y="123.78947368421052"/>
      <point x="935.6842105263158" y="248.8421052631579"/>
      <point x="868.6315789473684" y="372.63157894736844" type="curve"/>
      <point x="741.3684210526316" y="619.1578947368421" type="line"/>
      <point x="797.0526315789474" y="457.1578947368421" type="line"/>
      <point x="949.6315789473684" y="636.2105263157895" type="line"/>
      <point x="1055.0526315789475" y="758.3684210526316"/>
      <point x="1156.8421052631577" y="878.8947368421053"/>
      <point x="1262.2631578947367" y="1001.0526315789474" type="curve"/>
      <point x="813.1052631578947" y="1001.0526315789474" type="line"/>
      <point x="752.8947368421053" y="917.7368421052631"/>
      <point x="693.578947368421" y="835.6842105263158"/>
      <point x="635.0" y="752.3684210526316" type="curve"/>
      <point x="537.7368421052632" y="616.8421052631579" type="line"/>
      <point x="464.6842105263158" y="616.8421052631579" type="line"/>
      <point x="413.52631578947364" y="374.8421052631579" type="line"/>
      <point x="487.6315789473685" y="374.8421052631579" type="line"/>
      <point x="547.1052631578947" y="230.3684210526316" type="line"/>
      <point x="576.578947368421" y="153.57894736842104"/>
      <point x="609.6842105263158" y="76.78947368421052"/>
    </contour>
    <contour>
      <point x="-10.210526315789465" y="0.0" type="curve"/>
      <point x="363.0526315789474" y="0.0" type="line"/>
      <point x="388.5263157894737" y="120.63157894736842"/>
      <point x="411.2631578947369" y="226.1578947368421"/>
      <point x="437.47368421052636" y="352.2631578947369" type="curve"/>
      <point x="571.421052631579" y="986.3684210526316" type="line"/>
      <point x="610.6842105263158" y="1174.3157894736842"/>
      <point x="646.3157894736843" y="1340.1052631578946"/>
      <point x="678.6842105263158" y="1495.9473684210527" type="curve"/>
      <point x="300.1578947368421" y="1466.8947368421052" type="line"/>
      <point x="265.2631578947368" y="1301.6842105263158"/>
      <point x="232.52631578947367" y="1146.578947368421"/>
      <point x="198.1578947368421" y="986.3684210526316" type="curve"/>
      <point x="80.5263157894737" y="428.94736842105266" type="line"/>
      <point x="44.52631578947369" y="262.0526315789474"/>
      <point x="20.157894736842113" y="140.21052631578948"/>
    </contour>
  </outline>
</glyph>
<glyph name="l" format="2">
  <advance width="564.8421052631579"/>
  <unicode hex="006C"/>
  <anchor x="176.42105263157896" y="0.0" name="bottom"/>
  <anchor x="358.57894736842104" y="818.0" name="center"/>
  <anchor x="479.5263157894737" y="1462.3157894736842" name="top"/>
  <anchor x="627.421052631579" y="1001.0526315789474" name="topright"/>
  <outline>
    <contour>
      <point x="-10.210526315789465" y="0.0" type="curve"/>
      <point x="363.0526315789474" y="0.0" type="line"/>
      <point x="393.42105263157896" y="140.21052631578948"/>
      <point x="417.7894736842106" y="262.0526315789474"/>
      <point x="453.7894736842106" y="428.94736842105266" type="curve"/>
      <point x="571.421052631579" y="986.3684210526316" type="line"/>
      <point x="610.6842105263158" y="1174.3157894736842"/>
      <point x="646.3157894736843" y="1340.1052631578948"/>
      <point x="678.6842105263158" y="1495.9473684210527" type="curve"/>
      <point x="300.1578947368421" y="1466.8947368421052" type="line"/>
      <point x="265.2631578947368" y="1301.6842105263158"/>
      <point x="232.52631578947367" y="1146.578947368421"/>
      <point x="198.1578947368421" y="986.3684210526316" type="curve"/>
      <point x="80.5263157894737" y="428.94736842105266" type="line"/>
      <point x="44.52631578947369" y="262.0526315789474"/>
      <point x="20.157894736842113" y="140.21052631578948"/>
    </contour>
  </outline>
</glyph>
<glyph name="m" format="2">
  <advance width="1745.6315789473683"/>
  <unicode hex="006D"/>
  <anchor x="774.9473684210526" y="0.0" name="bottom"/>
  <anchor x="986.2105263157895" y="1001.0526315789474" name="top"/>
  <outline>
    <contour>
      <point x="-10.210526315789465" y="0.0" type="curve"/>
      <point x="363.0526315789474" y="0.0" type="line"/>
      <point x="393.42105263157896" y="140.21052631578948"/>
      <point x="417.7894736842106" y="262.0526315789474"/>
      <point x="448.8947368421053" y="407.7368421052632" type="curve"/>
      <point x="489.8421052631579" y="602.2631578947368" type="line"/>
      <point x="536.421052631579" y="655.7894736842105"/>
      <point x="581.3684210526316" y="692.7368421052631"/>
      <point x="636.9473684210527" y="692.7368421052631" type="curve" smooth="yes"/>
      <point x="705.7894736842105" y="692.7368421052631"/>
      <point x="718.6315789473684" y="624.7894736842105"/>
      <point x="699.1052631578947" y="531.3684210526317" type="curve"/>
      <point x="674.1578947368421" y="407.7368421052632" type="line"/>
      <point x="643.0526315789473" y="262.0526315789474"/>
      <point x="618.6842105263157" y="140.21052631578948"/>
      <point x="588.3157894736842" y="0.0" type="curve"/>
      <point x="961.5789473684212" y="0.0" type="line"/>
      <point x="991.9473684210527" y="140.21052631578948"/>
      <point x="1016.3157894736843" y="262.0526315789474"/>
      <point x="1052.3157894736844" y="428.94736842105266" type="curve"/>
      <point x="1068.3157894736844" y="506.57894736842104"/>
      <point x="1086.4736842105265" y="588.8421052631579"/>
      <point x="1098.4736842105265" y="646.1052631578947" type="curve" smooth="yes"/>
      <point x="1111.7368421052633" y="707.1578947368421"/>
      <point x="1114.4736842105265" y="762.578947368421"/>
      <point x="1109.578947368421" y="810.7368421052632" type="curve"/>
      <point x="1101.421052631579" y="812.2105263157895" type="line"/>
      <point x="1088.8947368421054" y="952.6315789473684"/>
      <point x="1004.5263157894736" y="1030.842105263158"/>
      <point x="857.9473684210526" y="1030.842105263158" type="curve" smooth="yes"/>
      <point x="730.3684210526316" y="1030.842105263158"/>
      <point x="604.5263157894736" y="964.3157894736842"/>
      <point x="527.1052631578947" y="852.7894736842105" type="curve"/>
      <point x="497.52631578947364" y="852.7894736842105" type="line"/>
      <point x="513.0526315789474" y="1018.4736842105264" type="line"/>
      <point x="201.42105263157893" y="1001.0526315789474" type="line"/>
      <point x="165.42105263157893" y="834.6842105263157"/>
      <point x="133.05263157894737" y="679.578947368421"/>
      <point x="102.5263157894737" y="528.9473684210526" type="curve"/>
      <point x="80.5263157894737" y="428.94736842105266" type="line"/>
      <point x="44.52631578947369" y="262.0526315789474"/>
      <point x="20.157894736842113" y="140.21052631578948"/>
    </contour>
    <contour>
      <point x="1184.6315789473686" y="0.0" type="curve"/>
      <point x="1557.8947368421054" y="0.0" type="line"/>
      <point x="1588.2631578947369" y="140.21052631578948"/>
      <point x="1612.6315789473686" y="262.0526315789474"/>
      <point x="1648.6315789473686" y="428.94736842105266" type="curve"/>
      <point x="1664.6315789473686" y="506.57894736842104"/>
      <point x="1682.7894736842106" y="588.8421052631579"/>
      <point x="1694.7894736842106" y="646.1052631578947" type="curve" smooth="yes"/>
      <point x="1743.8947368421054" y="877.0526315789474"/>
      <point x="1658.7894736842106" y="1030.842105263158"/>
      <point x="1454.2631578947369" y="1030.842105263158" type="curve" smooth="yes"/>
      <point x="1326.6842105263156" y="1030.842105263158"/>
      <point x="1200.1052631578946" y="963.9473684210526"/>
      <point x="1120.842105263158" y="850.9473684210526" type="curve"/>
      <point x="1080.7368421052631" y="850.9473684210526" type="line"/>
      <point x="1084.5263157894738" y="602.2631578947368" type="line"/>
      <point x="1131.1052631578948" y="655.0526315789474"/>
      <point x="1177.6842105263156" y="692.7368421052631"/>
      <point x="1233.2631578947369" y="692.7368421052631" type="curve" smooth="yes"/>
      <point x="1302.1052631578946" y="692.7368421052631"/>
      <point x="1314.9473684210527" y="624.7894736842105"/>
      <point x="1295.421052631579" y="531.3684210526317" type="curve"/>
      <point x="1270.4736842105262" y="407.7368421052632" type="line"/>
      <point x="1239.3684210526317" y="262.0526315789474"/>
      <point x="1215.0" y="140.21052631578948"/>
    </contour>
  </outline>
</glyph>
<glyph name="n" format="2">
  <advance width="1162.4736842105262"/>
  <unicode hex="006E"/>
  <anchor x="482.0" y="0.0" name="bottom"/>
  <anchor x="693.2631578947369" y="1001.0526315789474" name="top"/>
  <outline>
    <contour>
      <point x="-10.210526315789465" y="0.0" type="curve"/>
      <point x="363.0526315789474" y="0.0" type="line"/>
      <point x="393.42105263157896" y="140.21052631578948"/>
      <point x="417.7894736842106" y="262.0526315789474"/>
      <point x="448.8947368421053" y="407.7368421052632" type="curve"/>
      <point x="489.8421052631579" y="602.2631578947368" type="line"/>
      <point x="536.421052631579" y="655.7894736842105"/>
      <point x="582.4736842105262" y="692.7368421052631"/>
      <point x="642.421052631579" y="692.7368421052631" type="curve" smooth="yes"/>
      <point x="718.9473684210526" y="692.7368421052631"/>
      <point x="731.7894736842106" y="624.7894736842105"/>
      <point x="712.2631578947369" y="531.3684210526317" type="curve"/>
      <point x="687.3157894736843" y="407.7368421052632" type="line"/>
      <point x="656.2105263157895" y="262.0526315789474"/>
      <point x="631.8421052631579" y="140.21052631578948"/>
      <point x="601.4736842105264" y="0.0" type="curve"/>
      <point x="974.7368421052632" y="0.0" type="line"/>
      <point x="1005.1052631578948" y="140.21052631578948"/>
      <point x="1029.4736842105265" y="262.0526315789474"/>
      <point x="1065.4736842105265" y="428.94736842105266" type="curve"/>
      <point x="1081.4736842105265" y="506.57894736842104"/>
      <point x="1099.6315789473686" y="588.8421052631579"/>
      <point x="1111.6315789473686" y="646.1052631578947" type="curve" smooth="yes"/>
      <point x="1160.7368421052633" y="877.0526315789474"/>
      <point x="1075.6315789473686" y="1030.842105263158"/>
      <point x="863.421052631579" y="1030.842105263158" type="curve" smooth="yes"/>
      <point x="731.4736842105262" y="1030.842105263158"/>
      <point x="604.5263157894738" y="964.3157894736842"/>
      <point x="527.1052631578947" y="852.7894736842105" type="curve"/>
      <point x="497.52631578947364" y="852.7894736842105" type="line"/>
      <point x="513.0526315789474" y="1018.4736842105264" type="line"/>
      <point x="201.42105263157893" y="1001.0526315789474" type="line"/>
      <point x="165.42105263157893" y="834.6842105263157"/>
      <point x="133.05263157894737" y="679.578947368421"/>
      <point x="102.5263157894737" y="528.9473684210526" type="curve"/>
      <point x="80.5263157894737" y="428.94736842105266" type="line"/>
      <point x="44.52631578947369" y="262.0526315789474"/>
      <point x="20.157894736842113" y="140.21052631578948"/>
    </contour>
  </outline>
</glyph>
<glyph name="q" format="2">
  <advance width="1173.421052631579"/>
  <unicode hex="0071"/>
  <outline>
    <contour>
      <point x="528.2105263157895" y="-394.5263157894737" type="curve"/>
      <point x="901.8421052631578" y="-384.0" type="line"/>
      <point x="932.2105263157894" y="-243.78947368421052"/>
      <point x="956.5789473684209" y="-121.94736842105263"/>
      <point x="992.5789473684209" y="44.94736842105263" type="curve"/>
      <point x="1096.2105263157894" y="528.9473684210526" type="line"/>
      <point x="1131.842105263158" y="692.9473684210526"/>
      <point x="1165.4736842105262" y="850.1578947368421"/>
      <point x="1202.3684210526314" y="1018.4736842105264" type="curve"/>
      <point x="866.2631578947369" y="1001.0526315789474" type="line"/>
      <point x="828.4736842105264" y="875.9473684210526" type="line"/>
      <point x="800.1578947368422" y="875.9473684210526" type="line"/>
      <point x="749.8947368421053" y="976.7894736842105"/>
      <point x="635.3157894736842" y="1030.842105263158"/>
      <point x="515.578947368421" y="1030.842105263158" type="curve" smooth="yes"/>
      <point x="281.36842105263156" y="1030.842105263158"/>
      <point x="124.21052631578948" y="824.9473684210526"/>
      <point x="64.21052631578948" y="541.8421052631579" type="curve" smooth="yes"/>
      <point x="0.210526315789473" y="238.57894736842107"/>
      <point x="91.94736842105263" y="-29.421052631578945"/>
      <point x="360.42105263157896" y="-29.421052631578945" type="curve" smooth="yes"/>
      <point x="451.2105263157894" y="-29.421052631578945"/>
      <point x="534.9473684210527" y="10.05263157894737"/>
      <point x="605.3684210526316" y="98.47368421052632" type="curve"/>
      <point x="630.421052631579" y="98.47368421052632" type="line"/>
      <point x="616.0526315789474" y="23.736842105263158" type="line"/>
      <point x="585.3157894736842" y="-121.94736842105263"/>
      <point x="558.578947368421" y="-254.31578947368422"/>
    </contour>
    <contour>
      <point x="554.9473684210526" y="284.2105263157895" type="curve"/>
      <point x="451.36842105263156" y="284.2105263157895"/>
      <point x="417.3684210526316" y="400.52631578947364"/>
      <point x="441.1052631578948" y="514.2631578947369" type="curve" smooth="yes"/>
      <point x="464.63157894736844" y="626.7894736842105"/>
      <point x="528.1052631578948" y="712.3157894736842"/>
      <point x="628.1578947368421" y="712.3157894736842" type="curve"/>
      <point x="681.0" y="712.3157894736842"/>
      <point x="722.4736842105264" y="687.1052631578947"/>
      <point x="748.4736842105264" y="652.3684210526316" type="curve"/>
      <point x="689.7894736842105" y="373.0" type="line"/>
      <point x="657.4210526315788" y="315.0526315789474"/>
      <point x="608.2631578947369" y="284.2105263157895"/>
    </contour>
  </outline>
</glyph>
<glyph name="r" format="2">
  <advance width="840.0"/>
  <unicode hex="0072"/>
  <anchor x="176.78947368421055" y="0.0" name="bottom"/>
  <anchor x="577.7894736842105" y="1001.0526315789474" name="top"/>
  <outline>
    <contour>
      <point x="-10.210526315789465" y="0.0" type="curve"/>
      <point x="363.0526315789474" y="0.0" type="line"/>
      <point x="393.42105263157896" y="140.21052631578948"/>
      <point x="417.7894736842106" y="262.0526315789474"/>
      <point x="448.8947368421053" y="407.7368421052632" type="curve"/>
      <point x="477.63157894736844" y="535.7894736842106" type="line"/>
      <point x="533.0" y="632.0526315789474"/>
      <point x="611.3684210526316" y="655.2105263157895"/>
      <point x="670.2105263157895" y="655.2105263157895" type="curve" smooth="yes"/>
      <point x="724.1578947368421" y="655.2105263157895"/>
      <point x="763.7894736842105" y="654.4736842105262"/>
      <point x="816.6842105263158" y="651.1578947368422" type="curve"/>
      <point x="923.1578947368421" y="1010.4736842105264" type="line"/>
      <point x="892.0526315789473" y="1022.4736842105262"/>
      <point x="846.578947368421" y="1030.842105263158"/>
      <point x="806.3684210526317" y="1030.842105263158" type="curve" smooth="yes"/>
      <point x="719.7894736842105" y="1030.842105263158"/>
      <point x="626.2105263157895" y="1002.6315789473684"/>
      <point x="526.7368421052631" y="849.4736842105262" type="curve"/>
      <point x="497.1578947368421" y="849.4736842105262" type="line"/>
      <point x="513.0526315789474" y="1018.4736842105264" type="line"/>
      <point x="201.42105263157893" y="1001.0526315789474" type="line"/>
      <point x="165.42105263157893" y="834.6842105263157"/>
      <point x="133.05263157894737" y="679.578947368421"/>
      <point x="102.5263157894737" y="528.9473684210526" type="curve"/>
      <point x="80.5263157894737" y="428.94736842105266" type="line"/>
      <point x="44.52631578947369" y="262.0526315789474"/>
      <point x="20.157894736842113" y="140.21052631578948"/>
    </contour>
  </outline>
</glyph>
<glyph name="t" format="2">
  <advance width="858.7368421052631"/>
  <unicode hex="0074"/>
  <anchor x="360.2105263157895" y="0.0" name="bottom"/>
  <anchor x="441.0" y="500.5263157894737" name="center"/>
  <anchor x="598.578947368421" y="1339.3684210526317" name="top"/>
  <anchor x="685.7368421052632" y="1001.0526315789474" name="topright"/>
  <outline>
    <contour>
      <point x="488.1052631578948" y="-29.421052631578945" type="curve" smooth="yes"/>
      <point x="561.7368421052631" y="-29.421052631578945"/>
      <point x="669.2631578947368" y="-11.578947368421051"/>
      <point x="714.6842105263157" y="17.315789473684212" type="curve"/>
      <point x="755.8421052631579" y="315.2105263157894" type="line"/>
      <point x="703.4736842105264" y="280.1052631578948"/>
      <point x="654.1578947368421" y="271.1578947368421"/>
      <point x="615.7368421052631" y="271.1578947368421" type="curve" smooth="yes"/>
      <point x="531.578947368421" y="271.1578947368421"/>
      <point x="509.421052631579" y="335.36842105263156"/>
      <point x="531.8421052631579" y="444.52631578947364" type="curve" smooth="yes"/>
      <point x="630.6842105263158" y="911.0526315789474" type="line"/>
      <point x="672.1052631578948" y="1100.0"/>
      <point x="696.6315789473684" y="1228.7894736842106"/>
      <point x="731.5263157894738" y="1388.7368421052631" type="curve"/>
      <point x="349.3684210526316" y="1325.9473684210527" type="line"/>
      <point x="321.7368421052632" y="1191.2631578947369"/>
      <point x="294.8421052631579" y="1070.9473684210527"/>
      <point x="262.3157894736842" y="911.0526315789474" type="curve"/>
      <point x="200.0526315789474" y="617.5263157894738"/>
      <point x="174.5263157894737" y="494.8421052631579"/>
      <point x="144.26315789473685" y="354.6315789473684" type="curve" smooth="yes"/>
      <point x="88.47368421052634" y="86.78947368421053"/>
      <point x="240.84210526315792" y="-29.421052631578945"/>
    </contour>
    <contour>
      <point x="76.57894736842107" y="724.7894736842105" type="line"/>
      <point x="334.8421052631579" y="724.7894736842105" type="line"/>
      <point x="504.2105263157894" y="724.7894736842105" type="line"/>
      <point x="615.7368421052631" y="724.7894736842105"/>
      <point x="738.8947368421052" y="724.7894736842105"/>
      <point x="859.3157894736842" y="724.7894736842105" type="curve"/>
      <point x="918.6315789473684" y="1001.0526315789474" type="line"/>
      <point x="135.89473684210526" y="1001.0526315789474" type="line"/>
    </contour>
  </outline>
</glyph>
<glyph name="u" format="2">
  <advance width="1155.1052631578948"/>
  <unicode hex="0075"/>
  <anchor x="470.47368421052636" y="0.0" name="bottom"/>
  <anchor x="959.2105263157895" y="0.0" name="ogonek"/>
  <anchor x="680.1052631578948" y="1001.0526315789474" name="top"/>
  <anchor x="1234.6315789473683" y="1001.0526315789474" name="topright"/>
  <outline>
    <contour>
      <point x="299.42105263157896" y="-29.421052631578945" type="curve" smooth="yes"/>
      <point x="429.1578947368421" y="-29.421052631578945"/>
      <point x="556.1052631578948" y="37.10526315789474"/>
      <point x="633.5263157894736" y="148.6315789473684" type="curve"/>
      <point x="663.1052631578948" y="148.6315789473684" type="line"/>
      <point x="647.9473684210526" y="0.0" type="line"/>
      <point x="959.2105263157895" y="0.0" type="line"/>
      <point x="989.578947368421" y="140.21052631578948"/>
      <point x="1013.9473684210526" y="262.0526315789474"/>
      <point x="1049.578947368421" y="428.94736842105266" type="curve"/>
      <point x="1074.842105263158" y="545.2631578947369" type="line"/>
      <point x="1115.3684210526317" y="738.2631578947369"/>
      <point x="1140.4736842105262" y="860.8421052631579"/>
      <point x="1170.842105263158" y="1001.0526315789474" type="curve"/>
      <point x="797.578947368421" y="1001.0526315789474" type="line"/>
      <point x="767.2105263157895" y="860.8421052631579"/>
      <point x="742.1052631578947" y="738.2631578947369"/>
      <point x="711.3684210526316" y="592.578947368421" type="curve"/>
      <point x="669.1578947368421" y="391.0" type="line"/>
      <point x="622.578947368421" y="337.4736842105263"/>
      <point x="576.5263157894738" y="300.52631578947364"/>
      <point x="518.7894736842104" y="300.52631578947364" type="curve" smooth="yes"/>
      <point x="442.2631578947368" y="300.52631578947364"/>
      <point x="429.42105263157896" y="368.4736842105263"/>
      <point x="448.9473684210526" y="461.89473684210526" type="curve"/>
      <point x="475.1578947368421" y="592.578947368421" type="line"/>
      <point x="505.89473684210526" y="738.2631578947369"/>
      <point x="533.0" y="871.3684210526316"/>
      <point x="563.3684210526316" y="1011.578947368421" type="curve"/>
      <point x="188.10526315789474" y="1001.0526315789474" type="line"/>
      <point x="157.73684210526315" y="860.8421052631579"/>
      <point x="132.6315789473684" y="738.2631578947369"/>
      <point x="92.10526315789474" y="545.2631578947369" type="curve"/>
      <point x="76.47368421052632" y="468.7368421052632"/>
      <point x="63.21052631578948" y="412.57894736842104"/>
      <point x="51.21052631578948" y="355.3157894736842" type="curve" smooth="yes"/>
      <point x="2.10526315789474" y="124.36842105263159"/>
      <point x="87.21052631578948" y="-29.421052631578945"/>
    </contour>
  </outline>
</glyph>
<glyph name="v" format="2">
  <advance width="1119.9473684210527"/>
  <unicode hex="0076"/>
  <outline>
    <contour>
      <point x="259.1578947368421" y="0.0" type="curve"/>
      <point x="654.7894736842105" y="0.0" type="line"/>
      <point x="723.8947368421052" y="125.63157894736842"/>
      <point x="792.6315789473684" y="250.89473684210526"/>
      <point x="861.7368421052631" y="374.89473684210526" type="curve"/>
      <point x="961.2105263157895" y="554.1578947368421" type="line"/>
      <point x="1043.9473684210525" y="703.421052631579"/>
      <point x="1127.4210526315787" y="853.421052631579"/>
      <point x="1208.8947368421052" y="1001.0526315789474" type="curve"/>
      <point x="788.1052631578948" y="1001.0526315789474" type="line"/>
      <point x="741.7368421052631" y="888.4736842105264"/>
      <point x="692.4736842105262" y="763.578947368421"/>
      <point x="640.4736842105264" y="637.2105263157895" type="curve"/>
      <point x="543.9473684210526" y="401.2105263157895" type="line"/>
      <point x="515.6315789473684" y="401.2105263157895" type="line"/>
      <point x="512.3684210526316" y="637.2105263157895" type="line"/>
      <point x="511.0" y="763.578947368421"/>
      <point x="509.99999999999994" y="890.1052631578948"/>
      <point x="507.3684210526316" y="1011.578947368421" type="curve"/>
      <point x="122.6842105263158" y="1001.0526315789474" type="line"/>
      <point x="142.1578947368421" y="857.0526315789474"/>
      <point x="163.26315789473685" y="703.7894736842105"/>
      <point x="182.73684210526318" y="556.5263157894736" type="curve"/>
      <point x="207.8421052631579" y="378.89473684210526" type="line"/>
      <point x="224.9473684210526" y="254.0"/>
      <point x="242.0526315789474" y="125.63157894736842"/>
    </contour>
  </outline>
</glyph>
<glyph name="w" format="2">
  <advance width="1694.3157894736842"/>
  <unicode hex="0077"/>
  <anchor x="735.1052631578947" y="0.0" name="bottom"/>
  <anchor x="944.7368421052631" y="1001.0526315789474" name="top"/>
  <outline>
    <contour>
      <point x="214.78947368421052" y="0.0" type="curve"/>
      <point x="600.2631578947369" y="0.0" type="line"/>
      <point x="642.421052631579" y="101.6842105263158"/>
      <point x="687.6842105263157" y="209.21052631578948"/>
      <point x="729.4736842105264" y="310.1578947368421" type="curve"/>
      <point x="810.3157894736843" y="505.3157894736842" type="line"/>
      <point x="835.3684210526316" y="505.3157894736842" type="line"/>
      <point x="837.8421052631579" y="319.05263157894734" type="line"/>
      <point x="838.2631578947368" y="215.21052631578948"/>
      <point x="839.421052631579" y="100.94736842105263"/>
      <point x="839.8421052631579" y="0.0" type="curve"/>
      <point x="1262.3157894736844" y="0.0" type="line"/>
      <point x="1326.6842105263158" y="123.63157894736842"/>
      <point x="1393.0526315789475" y="251.26315789473685"/>
      <point x="1461.421052631579" y="382.89473684210526" type="curve"/>
      <point x="1552.157894736842" y="556.8947368421052" type="line"/>
      <point x="1630.157894736842" y="707.421052631579"/>
      <point x="1704.8947368421052" y="851.421052631579"/>
      <point x="1783.2631578947369" y="1001.0526315789474" type="curve"/>
      <point x="1359.578947368421" y="1001.0526315789474" type="line"/>
      <point x="1316.8947368421054" y="890.5263157894736"/>
      <point x="1263.6315789473683" y="749.421052631579"/>
      <point x="1216.2105263157896" y="626.1578947368421" type="curve"/>
      <point x="1123.3684210526317" y="383.63157894736844" type="line"/>
      <point x="1097.0526315789473" y="383.63157894736844" type="line"/>
      <point x="1100.7368421052631" y="622.5263157894736" type="line"/>
      <point x="1103.2105263157894" y="747.7894736842105"/>
      <point x="1105.6842105263158" y="879.7894736842105"/>
      <point x="1108.157894736842" y="1001.0526315789474" type="curve"/>
      <point x="762.421052631579" y="1001.0526315789474" type="line"/>
      <point x="714.2631578947369" y="874.3157894736843"/>
      <point x="666.4736842105262" y="750.3157894736843"/>
      <point x="617.421052631579" y="621.7894736842105" type="curve"/>
      <point x="525.6842105263158" y="383.63157894736844" type="line"/>
      <point x="499.36842105263156" y="383.63157894736844" type="line"/>
      <point x="502.6842105263158" y="620.3157894736842" type="line"/>
      <point x="505.1578947368421" y="745.2105263157895"/>
      <point x="506.89473684210526" y="885.9473684210527"/>
      <point x="509.0" y="1011.578947368421" type="curve"/>
      <point x="122.6842105263158" y="1001.0526315789474" type="line"/>
      <point x="136.1578947368421" y="851.0526315789474"/>
      <point x="150.89473684210526" y="706.1578947368421"/>
      <point x="164.0" y="556.8947368421052" type="curve"/>
      <point x="179.8421052631579" y="380.5263157894737" type="line"/>
      <point x="190.94736842105263" y="252.89473684210526"/>
      <point x="203.68421052631578" y="125.63157894736842"/>
    </contour>
  </outline>
</glyph>
<glyph name="x" format="2">
  <advance width="1174.421052631579"/>
  <unicode hex="0078"/>
  <outline>
    <contour>
      <point x="-76.42105263157895" y="0.0" type="curve"/>
      <point x="363.2631578947368" y="0.0" type="line"/>
      <point x="401.78947368421046" y="70.26315789473684"/>
      <point x="429.3684210526316" y="119.42105263157895"/>
      <point x="469.1578947368421" y="192.57894736842107" type="curve"/>
      <point x="541.4736842105262" y="323.47368421052636" type="line"/>
      <point x="564.5263157894736" y="323.47368421052636" type="line"/>
      <point x="591.6842105263157" y="183.6842105263158" type="line"/>
      <point x="605.2631578947369" y="115.42105263157895"/>
      <point x="614.2631578947369" y="66.63157894736842"/>
      <point x="627.8421052631579" y="0.0" type="curve"/>
      <point x="1048.6315789473683" y="0.0" type="line"/>
      <point x="994.5789473684212" y="133.78947368421052"/>
      <point x="960.0" y="219.94736842105263"/>
      <point x="920.3157894736843" y="317.57894736842104" type="curve"/>
      <point x="822.9473684210526" y="559.1578947368421" type="line"/>
      <point x="827.1052631578947" y="483.8421052631579" type="line"/>
      <point x="1006.2631578947369" y="702.0" type="line"/>
      <point x="1088.842105263158" y="801.6315789473684"/>
      <point x="1143.2105263157894" y="868.1578947368421"/>
      <point x="1252.5263157894738" y="1001.0526315789474" type="curve"/>
      <point x="798.1578947368421" y="1001.0526315789474" type="line"/>
      <point x="758.0" y="930.7894736842105"/>
      <point x="727.5263157894738" y="878.3684210526316"/>
      <point x="687.2105263157895" y="806.3157894736843" type="curve"/>
      <point x="613.8421052631579" y="677.6315789473684" type="line"/>
      <point x="587.8947368421053" y="677.6315789473684" type="line"/>
      <point x="560.421052631579" y="807.9473684210526" type="line"/>
      <point x="547.0526315789474" y="877.2631578947369"/>
      <point x="534.421052631579" y="938.9473684210526"/>
      <point x="519.2105263157895" y="1011.578947368421" type="curve"/>
      <point x="126.89473684210526" y="1001.0526315789474" type="line"/>
      <point x="173.31578947368422" y="875.7894736842105"/>
      <point x="201.5263157894737" y="799.2631578947369"/>
      <point x="237.94736842105263" y="698.8947368421053" type="curve"/>
      <point x="317.6842105263158" y="482.36842105263156" type="line"/>
      <point x="333.10526315789474" y="558.421052631579" type="line"/>
      <point x="160.6315789473684" y="322.4736842105263" type="line"/>
      <point x="81.3157894736842" y="214.6842105263158"/>
      <point x="26.368421052631582" y="139.78947368421055"/>
    </contour>
  </outline>
</glyph>
<glyph name="y" format="2">
  <advance width="1132.842105263158"/>
  <unicode hex="0079"/>
  <anchor x="839.6315789473684" y="0.0" name="bottom"/>
  <anchor x="671.421052631579" y="1001.0526315789474" name="top"/>
  <outline>
    <contour>
      <point x="1.0526315789473895" y="-394.5263157894737" type="curve"/>
      <point x="412.42105263157896" y="-384.0" type="line"/>
      <point x="497.1578947368421" y="-240.0"/>
      <point x="595.5263157894736" y="-71.47368421052632"/>
      <point x="743.3684210526316" y="182.52631578947367" type="curve"/>
      <point x="908.4736842105264" y="463.7894736842105" type="line"/>
      <point x="1055.578947368421" y="715.421052631579"/>
      <point x="1126.6842105263156" y="839.0526315789474"/>
      <point x="1221.4210526315787" y="1001.0526315789474" type="curve"/>
      <point x="800.6315789473684" y="1001.0526315789474" type="line"/>
      <point x="747.0000000000001" y="875.421052631579"/>
      <point x="697.3684210526316" y="755.7894736842105"/>
      <point x="643.3684210526316" y="629.0526315789474" type="curve"/>
      <point x="542.4736842105264" y="388.1578947368421" type="line"/>
      <point x="514.1578947368421" y="388.1578947368421" type="line"/>
      <point x="511.63157894736844" y="630.3157894736842" type="line"/>
      <point x="509.0" y="760.3157894736842"/>
      <point x="509.99999999999994" y="881.578947368421"/>
      <point x="507.3684210526316" y="1011.578947368421" type="curve"/>
      <point x="122.6842105263158" y="1001.0526315789474" type="line"/>
      <point x="141.78947368421052" y="857.421052631579"/>
      <point x="162.89473684210526" y="705.421052631579"/>
      <point x="182.0" y="561.7894736842105" type="curve"/>
      <point x="205.4736842105263" y="381.7894736842105" type="line"/>
      <point x="224.21052631578945" y="244.89473684210526"/>
      <point x="241.68421052631578" y="106.15789473684211"/>
      <point x="260.7894736842105" y="-31.473684210526315" type="curve"/>
      <point x="268.9473684210526" y="47.473684210526315" type="line"/>
      <point x="183.15789473684208" y="-94.8421052631579"/>
      <point x="86.84210526315788" y="-252.21052631578948"/>
    </contour>
  </outline>
</glyph>
<glyph name="z" format="2">
  <advance width="1052.1052631578948"/>
  <unicode hex="007A"/>
  <anchor x="418.0526315789474" y="0.0" name="bottom"/>
  <anchor x="523.6842105263158" y="500.5263157894737" name="center"/>
  <anchor x="629.3157894736843" y="1001.0526315789474" name="top"/>
  <outline>
    <contour>
      <point x="-50.263157894736835" y="0.0" type="line"/>
      <point x="892.578947368421" y="0.0" type="line"/>
      <point x="950.2631578947369" y="271.36842105263156" type="line"/>
      <point x="843.0526315789474" y="271.36842105263156"/>
      <point x="698.5263157894736" y="271.36842105263156"/>
      <point x="611.1578947368422" y="271.36842105263156" type="curve"/>
      <point x="418.57894736842104" y="271.36842105263156" type="line"/>
      <point x="456.31578947368416" y="196.26315789473685" type="line"/>
      <point x="736.4736842105262" y="485.5263157894737" type="line"/>
      <point x="835.3157894736843" y="590.0"/>
      <point x="952.5789473684212" y="712.8947368421052"/>
      <point x="1033.7368421052631" y="796.421052631579" type="curve"/>
      <point x="1076.3684210526314" y="1001.0526315789474" type="line"/>
      <point x="172.42105263157893" y="1001.0526315789474" type="line"/>
      <point x="114.73684210526315" y="728.0526315789474" type="line"/>
      <point x="232.3157894736842" y="728.0526315789474"/>
      <point x="382.1052631578947" y="728.0526315789474"/>
      <point x="469.1052631578947" y="728.0526315789474" type="curve"/>
      <point x="647.1052631578947" y="728.0526315789474" type="line"/>
      <point x="594.6842105263158" y="824.421052631579" type="line"/>
      <point x="298.57894736842104" y="506.1578947368421" type="line"/>
      <point x="202.8421052631579" y="404.7894736842105"/>
      <point x="97.78947368421053" y="290.47368421052636"/>
      <point x="-14.526315789473681" y="170.89473684210526" type="curve"/>
    </contour>
  </outline>
</glyph>
<glyph name="braceleft" format="2">
  <advance width="936.5263157894736"/>
  <unicode hex="007B"/>
  <outline>
    <contour>
      <point x="527.8947368421052" y="-253.3684210526316" type="curve" smooth="yes"/>
      <point x="725.7368421052631" y="-253.3684210526316" type="line"/>
      <point x="786.6842105263157" y="39.94736842105263" type="line"/>
      <point x="718.6842105263157" y="39.94736842105263"/>
      <point x="665.0526315789474" y="39.94736842105263"/>
      <point x="631.0526315789474" y="39.94736842105263" type="curve"/>
      <point x="549.9473684210526" y="39.94736842105263"/>
      <point x="518.0526315789473" y="104.73684210526315"/>
      <point x="535.8947368421052" y="187.94736842105263" type="curve" smooth="yes"/>
      <point x="575.2631578947368" y="371.15789473684214" type="line" smooth="yes"/>
      <point x="608.5263157894736" y="523.3157894736842"/>
      <point x="563.2631578947368" y="589.8421052631579"/>
      <point x="433.7894736842105" y="637.6315789473684" type="curve"/>
      <point x="439.0526315789474" y="664.3157894736843" type="line"/>
      <point x="587.7894736842105" y="721.5263157894738"/>
      <point x="665.2105263157895" y="804.1578947368421"/>
      <point x="698.8421052631579" y="963.0526315789474" type="curve" smooth="yes"/>
      <point x="735.5263157894736" y="1138.421052631579" type="line" smooth="yes"/>
      <point x="753.7368421052631" y="1222.7368421052631"/>
      <point x="805.6315789473684" y="1264.2105263157896"/>
      <point x="884.8947368421053" y="1264.2105263157896" type="curve"/>
      <point x="919.2631578947369" y="1264.2105263157896"/>
      <point x="974.9473684210526" y="1264.2105263157896"/>
      <point x="1035.6842105263158" y="1264.2105263157896" type="curve"/>
      <point x="1098.2631578947369" y="1557.5263157894738" type="line"/>
      <point x="868.9473684210526" y="1557.5263157894738" type="line" smooth="yes"/>
      <point x="618.9999999999999" y="1557.5263157894738"/>
      <point x="464.42105263157896" y="1461.421052631579"/>
      <point x="417.3684210526316" y="1236.1578947368423" type="curve"/>
      <point x="397.89473684210526" y="1137.8947368421054"/>
      <point x="379.3157894736842" y="1045.7368421052631"/>
      <point x="358.2105263157895" y="947.4736842105264" type="curve"/>
      <point x="335.63157894736844" y="836.421052631579"/>
      <point x="266.57894736842104" y="782.0526315789474"/>
      <point x="180.89473684210526" y="782.0526315789474" type="curve" smooth="yes"/>
      <point x="95.52631578947367" y="782.0526315789474" type="line"/>
      <point x="41.10526315789473" y="521.7368421052631" type="line"/>
      <point x="126.4736842105263" y="521.7368421052631" type="line" smooth="yes"/>
      <point x="212.1578947368421" y="521.7368421052631"/>
      <point x="257.2105263157895" y="467.36842105263156"/>
      <point x="234.63157894736844" y="356.3157894736842" type="curve"/>
      <point x="218.78947368421055" y="282.7368421052631"/>
      <point x="202.94736842105263" y="209.52631578947367"/>
      <point x="187.10526315789474" y="135.94736842105263" type="curve"/>
      <point x="140.42105263157896" y="-88.21052631578948"/>
      <point x="274.6315789473684" y="-253.3684210526316"/>
    </contour>
  </outline>
</glyph>
<glyph name="bar" format="2">
  <advance width="584.8421052631579"/>
  <unicode hex="007C"/>
  <outline>
    <contour>
      <point x="-43.0" y="-324.3157894736842" type="curve"/>
      <point x="278.05263157894734" y="-324.3157894736842" type="line"/>
      <point x="328.05263157894734" y="-90.3157894736842"/>
      <point x="372.05263157894734" y="117.6842105263158"/>
      <point x="418.05263157894734" y="333.6842105263158" type="curve"/>
      <point x="538.0526315789473" y="897.6842105263158" type="line"/>
      <point x="584.0526315789473" y="1113.6842105263158"/>
      <point x="628.0526315789473" y="1321.6842105263158"/>
      <point x="678.0526315789473" y="1555.6842105263158" type="curve"/>
      <point x="357.0" y="1555.6842105263158" type="line"/>
      <point x="307.0" y="1321.6842105263158"/>
      <point x="263.0" y="1113.6842105263158"/>
      <point x="217.0" y="897.6842105263158" type="curve"/>
      <point x="97.0" y="333.6842105263158" type="line"/>
      <point x="51.0" y="117.6842105263158"/>
      <point x="6.999999999999997" y="-90.3157894736842"/>
    </contour>
  </outline>
</glyph>
<glyph name="asciitilde" format="2">
  <advance width="1168.9473684210527"/>
  <unicode hex="007E"/>
  <outline>
    <contour>
      <point x="827.2105263157895" y="394.2105263157895" type="curve" smooth="yes"/>
      <point x="987.7894736842105" y="394.2105263157895"/>
      <point x="1088.2631578947369" y="547.2631578947369"/>
      <point x="1141.1052631578946" y="795.6842105263158" type="curve"/>
      <point x="926.4736842105264" y="795.6842105263158" type="line"/>
      <point x="904.6315789473684" y="745.6842105263158"/>
      <point x="881.1052631578947" y="712.3684210526316"/>
      <point x="828.1052631578947" y="712.3684210526316" type="curve"/>
      <point x="714.3684210526317" y="712.3684210526316"/>
      <point x="584.578947368421" y="836.3684210526316"/>
      <point x="404.0526315789474" y="836.3684210526316" type="curve" smooth="yes"/>
      <point x="233.68421052631578" y="836.3684210526316"/>
      <point x="129.57894736842104" y="681.6842105263158"/>
      <point x="76.36842105263158" y="434.89473684210526" type="curve"/>
      <point x="291.0" y="434.89473684210526" type="line"/>
      <point x="312.84210526315786" y="484.89473684210526"/>
      <point x="341.63157894736844" y="518.2105263157895"/>
      <point x="397.89473684210526" y="518.2105263157895" type="curve"/>
      <point x="503.47368421052636" y="518.2105263157895"/>
      <point x="641.7894736842105" y="394.2105263157895"/>
    </contour>
  </outline>
</glyph>
<glyph name="cent" format="2">
  <advance width="958.3157894736842"/>
  <unicode hex="00A2"/>
  <outline>
    <contour>
      <point x="269.0" y="-274.0" type="curve"/>
      <point x="524.421052631579" y="-274.0" type="line"/>
      <point x="556.2105263157895" y="-123.05263157894737"/>
      <point x="587.6315789473684" y="21.89473684210526"/>
      <point x="617.421052631579" y="164.8421052631579" type="curve"/>
      <point x="362.0" y="164.8421052631579" type="line"/>
      <point x="332.2105263157895" y="23.526315789473685"/>
      <point x="302.42105263157896" y="-116.52631578947368"/>
    </contour>
    <contour>
      <point x="506.89473684210526" y="851.421052631579" type="curve"/>
      <point x="762.3157894736843" y="851.421052631579" type="line"/>
      <point x="790.4736842105264" y="980.9473684210526"/>
      <point x="818.6315789473684" y="1112.4736842105265"/>
      <point x="848.421052631579" y="1254.157894736842" type="curve"/>
      <point x="593.0" y="1254.157894736842" type="line"/>
      <point x="563.2105263157895" y="1115.7368421052631"/>
      <point x="535.0526315789474" y="982.578947368421"/>
    </contour>
    <contour>
      <point x="575.2105263157895" y="-24.526315789473685" type="curve" smooth="yes"/>
      <point x="667.7894736842105" y="-24.526315789473685"/>
      <point x="748.7368421052632" y="-8.473684210526315"/>
      <point x="802.7368421052632" y="19.0" type="curve"/>
      <point x="853.3157894736843" y="339.36842105263156" type="line"/>
      <point x="790.7368421052631" y="299.5263157894737"/>
      <point x="723.9473684210526" y="279.3157894736842"/>
      <point x="650.2631578947368" y="279.3157894736842" type="curve" smooth="yes"/>
      <point x="498.63157894736844" y="279.3157894736842"/>
      <point x="402.10526315789474" y="370.6842105263158"/>
      <point x="438.7368421052631" y="530.7368421052631" type="curve" smooth="yes"/>
      <point x="467.0" y="652.421052631579"/>
      <point x="561.2631578947369" y="717.2105263157895"/>
      <point x="669.0526315789474" y="717.2105263157895" type="curve"/>
      <point x="729.2105263157895" y="717.2105263157895"/>
      <point x="812.6842105263158" y="703.8947368421052"/>
      <point x="909.9473684210526" y="636.2631578947368" type="curve"/>
      <point x="1000.4736842105264" y="954.7894736842105" type="line"/>
      <point x="896.0" y="1005.0"/>
      <point x="776.7368421052632" y="1029.2105263157894"/>
      <point x="653.1052631578947" y="1029.2105263157894" type="curve" smooth="yes"/>
      <point x="324.57894736842104" y="1029.2105263157894"/>
      <point x="122.73684210526316" y="844.1052631578947"/>
      <point x="63.47368421052632" y="563.9473684210526" type="curve" smooth="yes"/>
      <point x="-13.052631578947363" y="204.05263157894737"/>
      <point x="201.0" y="-24.526315789473685"/>
    </contour>
  </outline>
</glyph>
<glyph name="sterling" format="2">
  <advance width="1229.7894736842104"/>
  <unicode hex="00A3"/>
  <outline>
    <contour>
      <point x="-21.263157894736835" y="0.0" type="line"/>
      <point x="1061.9473684210527" y="0.0" type="line"/>
      <point x="1133.0526315789475" y="337.36842105263156" type="line"/>
      <point x="974.6315789473683" y="337.36842105263156"/>
      <point x="836.578947368421" y="337.36842105263156"/>
      <point x="598.3157894736842" y="337.36842105263156" type="curve"/>
      <point x="336.57894736842104" y="337.36842105263156" type="line"/>
      <point x="391.0" y="281.42105263157896" type="line"/>
      <point x="569.6842105263158" y="381.31578947368416"/>
      <point x="619.3157894736843" y="479.5789473684211"/>
      <point x="643.5263157894738" y="599.3157894736843" type="curve" smooth="yes"/>
      <point x="698.421052631579" y="866.421052631579" type="line" smooth="yes"/>
      <point x="728.3157894736843" y="1008.9473684210527"/>
      <point x="808.7894736842105" y="1081.6315789473683"/>
      <point x="928.1578947368421" y="1081.6315789473683" type="curve"/>
      <point x="992.6842105263158" y="1081.6315789473683"/>
      <point x="1085.421052631579" y="1065.0526315789473"/>
      <point x="1194.1052631578948" y="1003.9473684210527" type="curve"/>
      <point x="1297.6842105263158" y="1337.157894736842" type="line"/>
      <point x="1173.6315789473686" y="1385.7368421052631"/>
      <point x="1032.0526315789475" y="1408.3157894736842"/>
      <point x="884.4736842105262" y="1408.3157894736842" type="curve" smooth="yes"/>
      <point x="561.6842105263158" y="1408.3157894736842"/>
      <point x="380.63157894736844" y="1233.5263157894735"/>
      <point x="315.36842105263156" y="916.3157894736843" type="curve" smooth="yes"/>
      <point x="289.1578947368421" y="791.8421052631579"/>
      <point x="251.68421052631578" y="616.4736842105262"/>
      <point x="220.94736842105263" y="469.1578947368421" type="curve"/>
      <point x="201.10526315789474" y="374.3157894736842"/>
      <point x="154.0" y="278.57894736842104"/>
      <point x="20.105263157894743" y="195.21052631578948" type="curve"/>
    </contour>
    <contour>
      <point x="115.4736842105263" y="596.0526315789474" type="line"/>
      <point x="259.2105263157895" y="596.0526315789474"/>
      <point x="395.3157894736842" y="596.0526315789474"/>
      <point x="513.7894736842105" y="596.0526315789474" type="curve"/>
      <point x="596.6315789473684" y="596.0526315789474" type="line"/>
      <point x="715.1052631578948" y="596.0526315789474"/>
      <point x="851.2105263157895" y="596.0526315789474"/>
      <point x="994.9473684210525" y="596.0526315789474" type="curve"/>
      <point x="1047.7368421052631" y="851.1052631578947" type="line"/>
      <point x="904.0" y="851.1052631578947"/>
      <point x="767.8947368421053" y="851.1052631578947"/>
      <point x="649.421052631579" y="851.1052631578947" type="curve"/>
      <point x="566.578947368421" y="851.1052631578947" type="line"/>
      <point x="448.10526315789474" y="851.1052631578947"/>
      <point x="312.0" y="851.1052631578947"/>
      <point x="168.26315789473682" y="851.1052631578947" type="curve"/>
    </contour>
  </outline>
</glyph>
<glyph name="currency" format="2">
  <advance width="1337.0526315789473"/>
  <unicode hex="00A4"/>
  <outline>
    <contour>
      <point x="662.3684210526316" y="170.26315789473685" type="curve" smooth="yes"/>
      <point x="937.2631578947369" y="170.26315789473685"/>
      <point x="1118.421052631579" y="290.05263157894734"/>
      <point x="1177.1052631578948" y="568.2631578947369" type="curve" smooth="yes"/>
      <point x="1236.157894736842" y="850.8421052631579"/>
      <point x="1039.0000000000002" y="1106.842105263158"/>
      <point x="726.5263157894736" y="1106.842105263158" type="curve" smooth="yes"/>
      <point x="454.2105263157895" y="1106.842105263158"/>
      <point x="271.36842105263156" y="987.421052631579"/>
      <point x="212.68421052631578" y="709.2105263157895" type="curve" smooth="yes"/>
      <point x="153.6315789473684" y="426.2631578947369"/>
      <point x="348.42105263157896" y="170.26315789473685"/>
    </contour>
    <contour>
      <point x="275.2631578947368" y="19.473684210526315" type="line"/>
      <point x="379.2105263157895" y="117.42105263157895"/>
      <point x="478.78947368421046" y="209.36842105263156"/>
      <point x="566.3684210526316" y="291.3157894736842" type="curve"/>
      <point x="340.36842105263156" y="531.1052631578947" type="line"/>
      <point x="254.42105263157893" y="450.7894736842105"/>
      <point x="154.8421052631579" y="358.8421052631579"/>
      <point x="49.26315789473684" y="260.89473684210526" type="curve"/>
    </contour>
    <contour>
      <point x="685.9473684210526" y="472.4736842105263" type="curve"/>
      <point x="578.421052631579" y="472.4736842105263"/>
      <point x="512.421052631579" y="561.0526315789474"/>
      <point x="534.1052631578947" y="665.3157894736843" type="curve" smooth="yes"/>
      <point x="552.1578947368421" y="752.1578947368421"/>
      <point x="611.1052631578948" y="809.5263157894738"/>
      <point x="709.4736842105262" y="809.5263157894738" type="curve"/>
      <point x="815.8947368421052" y="809.5263157894738"/>
      <point x="879.0" y="714.421052631579"/>
      <point x="860.578947368421" y="618.6842105263158" type="curve" smooth="yes"/>
      <point x="842.1578947368421" y="520.0526315789474"/>
      <point x="781.6315789473684" y="472.4736842105263"/>
    </contour>
    <contour>
      <point x="382.94736842105266" y="744.3157894736843" type="curve"/>
      <point x="617.4736842105264" y="962.1578947368421" type="line"/>
      <point x="535.1578947368422" y="1050.1052631578948"/>
      <point x="443.57894736842104" y="1147.6842105263158"/>
      <point x="345.6315789473684" y="1253.2631578947369" type="curve"/>
      <point x="112.73684210526316" y="1035.421052631579" type="line"/>
      <point x="210.31578947368422" y="930.2105263157895"/>
      <point x="302.63157894736844" y="830.2631578947369"/>
    </contour>
    <contour>
      <point x="1052.157894736842" y="27.473684210526322" type="curve"/>
      <point x="1285.0526315789475" y="245.3157894736842" type="line"/>
      <point x="1187.4736842105265" y="350.52631578947364"/>
      <point x="1095.157894736842" y="450.4736842105263"/>
      <point x="1014.8421052631579" y="536.421052631579" type="curve"/>
      <point x="780.3157894736843" y="318.57894736842104" type="line"/>
      <point x="862.2631578947369" y="231.00000000000003"/>
      <point x="954.578947368421" y="132.6842105263158"/>
    </contour>
    <contour>
      <point x="1057.421052631579" y="749.6315789473684" type="line"/>
      <point x="1143.0" y="829.578947368421"/>
      <point x="1242.9473684210527" y="921.8947368421052"/>
      <point x="1348.5263157894738" y="1019.8421052631578" type="curve"/>
      <point x="1122.5263157894735" y="1261.2631578947367" type="line"/>
      <point x="1018.578947368421" y="1163.3157894736842"/>
      <point x="917.8947368421052" y="1070.2631578947369"/>
      <point x="831.421052631579" y="989.4210526315788" type="curve"/>
    </contour>
  </outline>
</glyph>
<glyph name="yen" format="2">
  <advance width="1330.0"/>
  <unicode hex="00A5"/>
  <outline>
    <contour>
      <point x="490.4736842105263" y="465.0526315789474" type="line"/>
      <point x="835.6315789473684" y="465.0526315789474" type="line"/>
      <point x="1224.0526315789475" y="1016.4736842105264" type="line"/>
      <point x="1313.1578947368423" y="1142.7894736842106"/>
      <point x="1398.6315789473683" y="1263.842105263158"/>
      <point x="1479.0" y="1377.7894736842106" type="curve"/>
      <point x="1015.2105263157895" y="1377.7894736842106" type="line"/>
      <point x="938.2105263157895" y="1234.8947368421052"/>
      <point x="902.6315789473684" y="1169.0"/>
      <point x="841.6842105263157" y="1056.3157894736844" type="curve"/>
      <point x="741.6842105263158" y="870.6315789473684" type="line"/>
      <point x="716.6315789473683" y="870.6315789473684" type="line"/>
      <point x="688.578947368421" y="1045.0526315789475" type="line"/>
      <point x="671.1578947368421" y="1151.578947368421"/>
      <point x="658.8947368421053" y="1237.421052631579"/>
      <point x="636.5263157894736" y="1377.7894736842106" type="curve"/>
      <point x="221.0" y="1377.7894736842106" type="line"/>
      <point x="275.9473684210526" y="1191.6842105263158"/>
      <point x="297.0526315789474" y="1120.2631578947369"/>
      <point x="328.89473684210526" y="1011.578947368421" type="curve"/>
    </contour>
    <contour>
      <point x="366.4736842105263" y="0.0" type="curve"/>
      <point x="759.6842105263158" y="0.0" type="line"/>
      <point x="790.421052631579" y="144.57894736842104"/>
      <point x="816.7894736842105" y="268.7894736842105"/>
      <point x="852.7894736842105" y="438.0526315789474" type="curve"/>
      <point x="926.3157894736843" y="785.8947368421052" type="line"/>
      <point x="533.1052631578947" y="785.8947368421052" type="line"/>
      <point x="459.57894736842104" y="439.68421052631584" type="line"/>
      <point x="423.57894736842104" y="270.42105263157896"/>
      <point x="397.2105263157895" y="144.57894736842104"/>
    </contour>
    <contour>
      <point x="70.73684210526315" y="216.4736842105263" type="line"/>
      <point x="214.47368421052633" y="216.4736842105263"/>
      <point x="350.57894736842104" y="216.4736842105263"/>
      <point x="469.0526315789473" y="216.4736842105263" type="curve"/>
      <point x="744.5263157894736" y="216.4736842105263" type="line"/>
      <point x="863.0" y="216.4736842105263"/>
      <point x="999.1052631578948" y="216.4736842105263"/>
      <point x="1142.842105263158" y="216.4736842105263" type="curve"/>
      <point x="1190.7368421052631" y="438.89473684210526" type="line"/>
      <point x="1047.0" y="438.89473684210526"/>
      <point x="910.8947368421053" y="438.89473684210526"/>
      <point x="792.421052631579" y="438.89473684210526" type="curve"/>
      <point x="516.9473684210526" y="438.89473684210526" type="line"/>
      <point x="398.4736842105263" y="438.89473684210526"/>
      <point x="262.36842105263156" y="438.89473684210526"/>
      <point x="118.63157894736841" y="438.89473684210526" type="curve"/>
    </contour>
    <contour>
      <point x="143.05263157894737" y="556.421052631579" type="line"/>
      <point x="286.7894736842105" y="556.421052631579"/>
      <point x="422.89473684210526" y="556.421052631579"/>
      <point x="541.3684210526316" y="556.421052631579" type="curve"/>
      <point x="816.8421052631579" y="556.421052631579" type="line"/>
      <point x="935.3157894736843" y="556.421052631579"/>
      <point x="1071.421052631579" y="556.421052631579"/>
      <point x="1215.157894736842" y="556.421052631579" type="curve"/>
      <point x="1263.0526315789475" y="778.8421052631579" type="line"/>
      <point x="1119.3157894736844" y="778.8421052631579"/>
      <point x="983.2105263157895" y="778.8421052631579"/>
      <point x="864.7368421052631" y="778.8421052631579" type="curve"/>
      <point x="589.2631578947368" y="778.8421052631579" type="line"/>
      <point x="470.7894736842105" y="778.8421052631579"/>
      <point x="334.6842105263158" y="778.8421052631579"/>
      <point x="190.94736842105263" y="778.8421052631579" type="curve"/>
    </contour>
  </outline>
</glyph>
<glyph name="section" format="2">
  <advance width="1197.980582524272"/>
  <unicode hex="00A7"/>
  <outline>
    <contour>
      <point x="417.7669902912621" y="-266.5631067961165" type="curve" smooth="yes"/>
      <point x="726.7766990291262" y="-266.5631067961165"/>
      <point x="879.3786407766991" y="-141.35922330097088"/>
      <point x="918.6990291262136" y="43.24271844660193" type="curve" smooth="yes"/>
      <point x="966.0194174757281" y="261.1650485436893"/>
      <point x="863.1456310679612" y="363.20388349514565"/>
      <point x="621.9805825242719" y="463.16504854368935" type="curve" smooth="yes"/>
      <point x="470.9514563106796" y="525.9999999999999"/>
      <point x="448.2330097087379" y="568.1165048543689"/>
      <point x="461.63106796116506" y="627.0679611650486" type="curve" smooth="yes"/>
      <point x="477.02912621359224" y="696.0194174757281"/>
      <point x="553.3398058252427" y="732.0970873786408"/>
      <point x="618.1359223300971" y="740.0970873786407" type="curve"/>
      <point x="507.6504854368931" y="958.757281553398" type="line"/>
      <point x="318.7184466019417" y="944.7184466019418"/>
      <point x="127.59223300970875" y="850.0388349514564"/>
      <point x="86.31067961165049" y="657.6310679611651" type="curve" smooth="yes"/>
      <point x="52.951456310679625" y="502.1553398058253"/>
      <point x="110.38834951456312" y="374.9902912621359"/>
      <point x="342.3106796116504" y="274.31067961165047" type="curve" smooth="yes"/>
      <point x="516.5825242718447" y="198.15533980582526"/>
      <point x="566.7378640776698" y="164.07766990291262"/>
      <point x="549.3398058252427" y="92.36893203883494" type="curve" smooth="yes"/>
      <point x="533.26213592233" y="26.62135922330096"/>
      <point x="456.95145631067965" y="9.262135922330089"/>
      <point x="367.3592233009709" y="9.262135922330089" type="curve"/>
      <point x="238.60194174757282" y="9.262135922330089"/>
      <point x="99.39805825242718" y="75.18446601941746"/>
      <point x="5.999999999999989" y="149.18446601941747" type="curve"/>
      <point x="-79.08737864077669" y="-150.5242718446602" type="line"/>
      <point x="28.19417475728156" y="-209.24271844660194"/>
      <point x="182.83495145631068" y="-266.5631067961165"/>
    </contour>
    <contour>
      <point x="768.3689320388349" y="232.6796116504854" type="line"/>
      <point x="974.776699029126" y="254.71844660194174"/>
      <point x="1121.864077669903" y="352.0388349514563"/>
      <point x="1159.1456310679612" y="534.4854368932038" type="curve" smooth="yes"/>
      <point x="1197.1456310679614" y="716.5631067961165"/>
      <point x="1098.3106796116504" y="818.6019417475728"/>
      <point x="860.4660194174758" y="917.2427184466019" type="curve" smooth="yes"/>
      <point x="716.0776699029126" y="977.4368932038834"/>
      <point x="684.7184466019417" y="1021.5145631067962"/>
      <point x="698.1165048543688" y="1081.8252427184466" type="curve" smooth="yes"/>
      <point x="712.8737864077669" y="1145.5728155339805"/>
      <point x="789.9417475728155" y="1168.9320388349515"/>
      <point x="849.378640776699" y="1168.9320388349515" type="curve"/>
      <point x="938.1359223300971" y="1168.9320388349515"/>
      <point x="1074.097087378641" y="1124.9708737864078"/>
      <point x="1169.4563106796115" y="1051.6893203883492" type="curve"/>
      <point x="1255.1844660194176" y="1350.6796116504854" type="line"/>
      <point x="1167.106796116505" y="1406.7184466019417"/>
      <point x="1003.2233009708738" y="1456.6407766990292"/>
      <point x="794.2912621359225" y="1456.6407766990292" type="curve" smooth="yes"/>
      <point x="529.3592233009708" y="1456.6407766990292"/>
      <point x="369.3980582524272" y="1343.3980582524273"/>
      <point x="325.4368932038835" y="1137.5922330097087" type="curve" smooth="yes"/>
      <point x="284.11650485436894" y="944.9514563106796"/>
      <point x="364.2330097087379" y="821.0679611650485"/>
      <point x="581.4757281553398" y="729.0679611650486" type="curve" smooth="yes"/>
      <point x="754.4271844660195" y="654.9126213592234"/>
      <point x="804.5436893203884" y="617.4757281553399"/>
      <point x="787.8252427184466" y="543.126213592233" type="curve" smooth="yes"/>
      <point x="773.7864077669904" y="484.8932038834952"/>
      <point x="705.514563106796" y="441.4174757281553"/>
      <point x="624.7184466019417" y="432.73786407766994" type="curve"/>
    </contour>
  </outline>
</glyph>
<glyph name="copyright" format="2">
  <advance width="1589.4736842105262"/>
  <unicode hex="00A9"/>
  <outline>
    <contour>
      <point x="841.7368421052631" y="-29.421052631578945" type="curve" smooth="yes"/>
      <point x="1314.157894736842" y="-29.421052631578945"/>
      <point x="1568.2105263157894" y="275.8421052631579"/>
      <point x="1568.2105263157894" y="689.6315789473684" type="curve" smooth="yes"/>
      <point x="1568.2105263157894" y="1086.5263157894738"/>
      <point x="1327.7894736842106" y="1408.3157894736842"/>
      <point x="831.2105263157895" y="1408.3157894736842" type="curve" smooth="yes"/>
      <point x="341.0" y="1408.3157894736842"/>
      <point x="101.26315789473685" y="1089.2631578947369"/>
      <point x="101.26315789473685" y="688.0" type="curve" smooth="yes"/>
      <point x="101.26315789473685" y="310.1578947368421"/>
      <point x="325.1578947368421" y="-29.421052631578945"/>
    </contour>
    <contour>
      <point x="867.1578947368421" y="310.36842105263156" type="curve" smooth="yes"/>
      <point x="965.6842105263158" y="310.36842105263156"/>
      <point x="1033.5263157894738" y="323.3157894736842"/>
      <point x="1086.0526315789473" y="343.1578947368421" type="curve"/>
      <point x="1074.0526315789473" y="572.3157894736842" type="line"/>
      <point x="1029.6315789473683" y="543.7368421052631"/>
      <point x="981.2105263157895" y="529.0"/>
      <point x="930.7894736842105" y="529.0" type="curve"/>
      <point x="817.1052631578948" y="529.0"/>
      <point x="751.0" y="593.0"/>
      <point x="751.0" y="693.2631578947369" type="curve" smooth="yes"/>
      <point x="751.0" y="784.6842105263158"/>
      <point x="807.0" y="840.8421052631579"/>
      <point x="891.0526315789474" y="840.8421052631579" type="curve"/>
      <point x="928.2105263157895" y="840.8421052631579"/>
      <point x="987.1578947368421" y="833.7368421052631"/>
      <point x="1069.157894736842" y="785.3684210526316" type="curve"/>
      <point x="1088.578947368421" y="1016.1578947368421" type="line"/>
      <point x="1029.3157894736842" y="1046.8947368421052"/>
      <point x="938.7894736842105" y="1066.0"/>
      <point x="851.8947368421053" y="1066.0" type="curve" smooth="yes"/>
      <point x="598.7368421052631" y="1066.0"/>
      <point x="475.2631578947368" y="903.6315789473684"/>
      <point x="475.2631578947368" y="685.1052631578947" type="curve" smooth="yes"/>
      <point x="475.2631578947368" y="466.57894736842104"/>
      <point x="616.3157894736842" y="310.36842105263156"/>
    </contour>
    <contour>
      <point x="840.1052631578948" y="166.73684210526315" type="curve"/>
      <point x="468.57894736842104" y="166.73684210526315"/>
      <point x="310.4736842105263" y="403.8421052631579"/>
      <point x="310.4736842105263" y="688.0" type="curve" smooth="yes"/>
      <point x="310.4736842105263" y="987.0"/>
      <point x="478.2105263157895" y="1212.157894736842"/>
      <point x="832.8421052631579" y="1212.157894736842" type="curve"/>
      <point x="1191.1052631578948" y="1212.157894736842"/>
      <point x="1359.0" y="986.1052631578948"/>
      <point x="1359.0" y="689.6315789473684" type="curve" smooth="yes"/>
      <point x="1359.0" y="385.0"/>
      <point x="1182.578947368421" y="166.73684210526315"/>
    </contour>
  </outline>
</glyph>
